<?xml version="1.0" encoding="UTF-8" standalone="no"?>
<!-- Created with Inkscape (http://www.inkscape.org/) -->

<svg
   xmlns:dc="http://purl.org/dc/elements/1.1/"
   xmlns:cc="http://creativecommons.org/ns#"
   xmlns:rdf="http://www.w3.org/1999/02/22-rdf-syntax-ns#"
   xmlns:svg="http://www.w3.org/2000/svg"
   xmlns="http://www.w3.org/2000/svg"
   xmlns:sodipodi="http://sodipodi.sourceforge.net/DTD/sodipodi-0.dtd"
   xmlns:inkscape="http://www.inkscape.org/namespaces/inkscape"
   width="86"
   height="86"
   id="svg3268"
   version="1.1"
   inkscape:version="0.48.5 r10040"
   sodipodi:docname="biking.svg">
  <defs
     id="defs3270" />
  <sodipodi:namedview
     id="base"
     pagecolor="#000000"
     bordercolor="#666666"
     borderopacity="1.0"
     inkscape:pageopacity="0"
     inkscape:pageshadow="2"
     inkscape:zoom="5.6"
     inkscape:cx="67.447691"
     inkscape:cy="43.004767"
     inkscape:document-units="px"
     inkscape:current-layer="layer1"
     showgrid="false"
     inkscape:showpageshadow="false"
     inkscape:window-width="1278"
     inkscape:window-height="780"
     inkscape:window-x="0"
     inkscape:window-y="0"
     inkscape:window-maximized="1" />
  <metadata
     id="metadata3273">
    <rdf:RDF>
      <cc:Work
         rdf:about="">
        <dc:format>image/svg+xml</dc:format>
        <dc:type
           rdf:resource="http://purl.org/dc/dcmitype/StillImage" />
        <dc:title></dc:title>
      </cc:Work>
    </rdf:RDF>
  </metadata>
  <g
     inkscape:label="Layer 1"
     inkscape:groupmode="layer"
     id="layer1"
     transform="translate(0,-966.36218)">
    <path
       style="fill:#ffffff;fill-opacity:1;fill-rule:nonzero;stroke:none"
       id="path3920"
       d="m 23.921428,1024.012 c -0.572666,-0.01 -1.153824,-0.067 -1.726502,-0.028 -0.357976,0.024 -0.498222,0.076 -0.838716,0.1625 -1.36528,0.6224 -3.456924,1.8566 2.697081,-1.5888 0.10608,-0.059 -0.205312,0.1306 -0.302823,0.2033 -0.231221,0.1721 -0.295357,0.2518 -0.49862,0.456 -0.485267,0.5851 -0.892148,1.2426 -1.239028,1.9187 -0.341909,0.6769 -0.612348,1.3884 -0.853176,2.1068 -0.216384,0.6618 -0.261162,1.358 -0.290521,2.0484 -0.0042,0.7227 -0.04808,1.4489 0.01948,2.1693 0.127656,0.7684 0.241417,1.5526 0.519039,2.2832 0.295785,0.6908 0.494823,1.4095 0.828573,2.0838 0.288914,0.6985 0.663726,1.3491 1.057651,1.992 0.469945,0.7045 1.042913,1.3437 1.634861,1.9483 0.56735,0.4941 1.175695,0.9301 1.829322,1.3016 0.597593,0.2978 1.263189,0.3398 1.918063,0.3705 0.682327,0.019 1.364931,0.01 2.047398,0.01 0.712393,-0.024 1.429409,0.048 2.134884,-0.064 0.591678,-0.1007 1.213756,-0.1421 1.779705,-0.3579 0.265223,-0.1011 0.514151,-0.2407 0.772493,-0.3583 1.355694,-0.7129 1.999118,-1.056 -3.089516,1.7727 -0.08241,0.046 0.153817,-0.1095 0.225746,-0.1704 0.208603,-0.1768 0.376766,-0.3764 0.533358,-0.5985 0.265311,-0.4562 0.270197,-0.9963 0.361933,-1.5029 0.04217,-0.233 0.145696,-0.7206 0.194776,-0.9554 0.179715,-0.786 0.260377,-1.5863 0.301484,-2.3898 0.02452,-0.748 0.02607,-1.4966 0.03247,-2.245 -0.02801,-0.5345 0.03142,-1.0755 -0.01584,-1.6094 -0.02536,-0.2864 -0.124011,-0.7455 -0.177232,-1.017 -0.162756,-1.1368 -0.58281,-2.2094 -1.021513,-3.2632 -0.383608,-0.8729 -1.03226,-1.5428 -1.729272,-2.1695 -0.701823,-0.6258 -1.457255,-1.1767 -2.235479,-1.701 -0.615968,-0.3676 -1.269273,-0.6702 -1.88597,-1.0367 -0.523638,-0.3214 -1.105771,-0.4231 -1.706536,-0.4756 -0.562278,-0.034 -1.126067,-0.028 -1.689075,-0.024 -0.23703,0.027 -0.461795,0.073 -0.68658,0.1505 0,0 3.487597,-2.6602 3.487597,-2.6602 l 0,0 c 0.243904,-0.035 0.488248,-0.069 0.735589,-0.061 0.571173,0 1.143971,0 1.711901,0.073 0.639138,0.098 1.244248,0.2742 1.794211,0.6279 0.629666,0.3509 1.274245,0.6803 1.872008,1.0845 0.787336,0.543 1.537858,1.1356 2.270414,1.7503 0.735202,0.6768 1.376475,1.4324 1.792875,2.3521 0.441089,1.0799 0.859019,2.176 1.054253,3.3317 0.01181,0.05 0.237009,0.9883 0.248319,1.0589 0.08598,0.536 0.0043,1.0862 0.03197,1.6252 0.0079,0.753 0.01735,1.5061 -0.01277,2.2589 -0.03798,0.8285 -0.102977,1.6593 -0.30113,2.4673 -0.09996,0.4608 -0.214484,0.9188 -0.272246,1.3874 -0.02204,0.1788 -0.05259,0.662 -0.08196,0.8431 -0.01786,0.1101 -0.05135,0.2171 -0.07702,0.3256 -0.934746,1.8512 -3.335448,2.6039 -5.056328,3.4515 -0.850493,0.3518 -1.724574,0.5187 -2.638107,0.6193 -0.722405,0.05 -1.447138,0.023 -2.170968,0.033 -0.689246,0.01 -1.379724,0.012 -2.067899,-0.032 -0.708292,-0.06 -1.412486,-0.1674 -2.032923,-0.5409 -0.662945,-0.4159 -1.299438,-0.8693 -1.86443,-1.4142 -0.605978,-0.6349 -1.20369,-1.2899 -1.692591,-2.0206 -0.410421,-0.6511 -0.794373,-1.3108 -1.088768,-2.0242 -0.03279,-0.067 -0.315585,-0.6471 -0.338308,-0.7043 -0.184477,-0.4643 -0.257203,-0.9734 -0.496613,-1.4185 -0.30086,-0.7613 -0.430777,-1.5693 -0.584204,-2.371 -0.106474,-0.7372 -0.04095,-1.4853 -0.04932,-2.2285 0.01646,-0.7249 0.04515,-1.4533 0.232698,-2.1584 0.238688,-0.735 0.504589,-1.4666 0.842566,-2.1615 0.317051,-0.7204 0.763501,-1.3662 1.167733,-2.0397 0.161564,-0.1745 0.305984,-0.3655 0.478611,-0.529 0.09125,-0.087 0.186739,-0.171 0.294843,-0.2352 1.520135,-0.902 3.028132,-2.1236 4.78937,-2.586 0.888563,-0.1269 1.782736,-0.062 2.677076,-0.1116 0,0 -3.558374,2.5853 -3.558374,2.5853 z"
       inkscape:connector-curvature="0" />
    <path
       style="fill:#ffffff;fill-opacity:1;fill-rule:nonzero;stroke:none"
       id="path3926"
       d="m 59.493939,1023.6591 c -0.692913,-0.086 -1.328134,0.1749 -1.945259,0.4609 -0.368719,0.1874 -0.777661,0.2613 -1.158161,0.4181 -0.12215,0.05 -0.241906,0.1069 -0.358474,0.1691 -0.119031,0.063 -0.46469,0.2743 -0.347483,0.2075 1.123565,-0.6404 2.244414,-1.2855 3.366621,-1.9283 -0.536139,0.3863 -1.124398,0.7851 -1.531804,1.317 -0.09092,0.1187 -0.160743,0.2522 -0.241115,0.3783 -0.463171,0.8563 -0.696225,1.7944 -0.818024,2.7529 -0.07557,0.8478 -0.08649,1.7003 -0.07957,2.551 0.01065,0.84 3.53e-4,1.6799 0.0035,2.52 -0.05283,0.8175 0.0978,1.6169 0.210586,2.4214 0.121361,0.6907 0.349792,1.3547 0.513083,2.035 0.232697,0.6746 0.529007,1.3241 0.872221,1.949 0.424142,0.6734 0.829935,1.2075 1.549508,1.5737 0.575062,0.2609 1.176238,0.4738 1.794637,0.6043 0.784626,0.1446 1.583847,0.1624 2.379148,0.1784 0.722252,0 1.444509,0 2.166758,0 0.769618,0.024 1.538959,-0.099 2.282683,-0.2929 1.714644,-0.5023 4.957214,-2.5545 -1.610829,1.1987 0.772528,-0.4973 0.950949,-1.3891 1.087162,-2.2363 0.12978,-0.9816 0.114582,-1.9738 0.105474,-2.9616 -0.06425,-1.0024 -0.348604,-1.9769 -0.570353,-2.9536 -0.313356,-1.2504 -0.727286,-2.4707 -1.083047,-3.7088 -0.2664,-0.9714 -0.733043,-1.8665 -1.18666,-2.7601 -0.348225,-0.7673 -0.883953,-1.4217 -1.402056,-2.0779 -0.358893,-0.4389 -0.702787,-0.9115 -1.186216,-1.2251 -0.225721,-0.1464 -0.373627,-0.187 -0.621075,-0.2797 -0.686915,-0.178 -1.402429,-0.1694 -2.10685,-0.172 -0.764428,-0.029 -1.509633,0.2204 -2.192629,0.5448 -0.472756,0.2027 -0.236675,0.094 -0.707888,0.3262 0,0 3.38479,-2.6937 3.38479,-2.6937 l 0,0 c 0.489255,-0.2189 0.247948,-0.1151 0.723574,-0.3123 0.747297,-0.2639 1.503579,-0.4772 2.305991,-0.4109 0.74593,0.017 1.506251,0.036 2.210339,0.3123 0.282921,0.1418 0.416042,0.1927 0.673975,0.3902 0.475836,0.3643 0.836381,0.8561 1.218233,1.3104 0.537532,0.6795 1.103553,1.3538 1.453475,2.1549 0.439488,0.9341 0.914095,1.8567 1.153401,2.8692 0.329918,1.2468 0.782105,2.4554 1.135936,3.6955 0.126734,0.4928 0.219507,0.9888 0.333138,1.4846 0.02384,0.104 0.23025,0.9676 0.247252,1.0644 0.02814,0.1603 0.03756,0.3233 0.05635,0.485 -0.0081,1.0067 -0.01104,2.0152 -0.08164,3.0198 -0.118483,0.8963 -0.253509,1.8767 -0.898233,2.5595 -1.961203,1.1385 -3.692583,2.4547 -5.875475,2.9911 -0.777914,0.1535 -1.56135,0.2714 -2.357237,0.2284 -0.722824,0 -1.445941,0.01 -2.168515,-0.015 -0.812569,-0.026 -1.627987,-0.078 -2.424802,-0.2491 -0.654502,-0.1545 -1.297515,-0.3619 -1.880511,-0.7048 -0.700933,-0.4485 -1.229758,-1.071 -1.658438,-1.7821 -0.367189,-0.6574 -0.691592,-1.3353 -0.957288,-2.0407 -0.153167,-0.6975 -0.361043,-1.3823 -0.508021,-2.0817 -0.111098,-0.8244 -0.280841,-1.6442 -0.223003,-2.4806 -5.9e-5,-0.839 -0.01651,-1.6779 -0.01123,-2.5169 0.0069,-0.8684 -0.01254,-1.7384 0.07393,-2.6039 0.03206,-0.3047 0.06309,-0.6592 0.120151,-0.9605 0.126816,-0.6696 0.376457,-1.3075 0.628013,-1.9378 0.161364,-0.3621 0.195429,-0.5118 0.451561,-0.8123 0.08892,-0.1043 0.198993,-0.1886 0.299687,-0.2816 0.297037,-0.2744 0.582961,-0.5633 0.912387,-0.7996 1.465067,-0.852 2.856994,-1.8526 4.4114,-2.5281 0.496819,-0.2158 1.02767,-0.3467 1.517704,-0.5804 0.69082,-0.2525 1.37743,-0.4171 2.119438,-0.3783 0,0 -3.570221,2.5939 -3.570221,2.5939 z"
       inkscape:connector-curvature="0" />
    <path
       style="fill:#ffffff;fill-opacity:1;fill-rule:nonzero;stroke:none"
       id="path3928"
       d="m 37.827489,1031.6009 c 1.115895,0.05 2.233536,0.054 3.350314,0.073 1.996969,0.036 3.994111,0.016 5.991147,0 1.546984,0.087 3.078495,0.3206 4.624744,0.4266 1.564464,0.091 3.131975,0.099 4.698499,0.086 0,0 -3.437471,2.494 -3.437471,2.494 l 0,0 c -1.55444,-0.034 -3.10958,-0.058 -4.662254,-0.144 -0.673756,-0.045 -0.946109,-0.058 -1.61209,-0.125 -0.720099,-0.073 -1.43553,-0.198 -2.157364,-0.2529 -0.272875,-0.021 -0.5467,-0.026 -0.82005,-0.039 -1.998399,-0.015 -3.996885,-0.034 -5.995225,0 -1.183513,0.019 -2.367716,0.024 -3.550471,0.073 0,0 3.570221,-2.5939 3.570221,-2.5939 z"
       inkscape:connector-curvature="0" />
    <path
       style="fill:#ffffff;fill-opacity:1;fill-rule:nonzero;stroke:none"
       id="path3930"
       d="m 64.459498,1007.0917 c -0.03954,0.8643 -0.04777,1.7305 -0.05034,2.5957 -5.56e-4,0.9191 0.01246,1.838 0.01676,2.7571 -0.01871,0.9392 -0.01187,1.8785 -0.0042,2.8178 0.0062,0.7854 0.01109,1.5708 0.0084,2.3563 1.32e-4,0.6916 0.008,1.3832 0.01073,2.0749 -0.0052,0.6198 0.07181,1.2359 0.124269,1.8525 0.01088,0.096 0.02176,0.1918 0.03264,0.2878 0,0 -3.860353,2.0292 -3.860353,2.0292 l 0,0 c -0.01456,-0.1029 -0.02912,-0.2059 -0.04368,-0.3088 -0.03805,-0.6284 -0.129646,-1.254 -0.134544,-1.8829 0.0028,-0.6953 0.01057,-1.3906 0.01073,-2.0859 -0.0028,-0.7882 0.0022,-1.5765 0.0084,-2.3647 0.0076,-0.9379 0.01466,-1.8758 -0.0042,-2.8136 0.0043,-0.9247 0.01728,-1.8494 0.01676,-2.7742 -0.0025,-0.8481 -0.01009,-1.6973 -0.05034,-2.5443 0,0 3.918997,-1.9969 3.918997,-1.9969 z"
       inkscape:connector-curvature="0" />
    <path
       style="fill:#ffffff;fill-opacity:1;fill-rule:nonzero;stroke:none"
       id="path3932"
       d="m 60.725541,1009.7284 c -1.041144,-0.045 -2.083914,-0.047 -3.125934,-0.053 -1.433903,0.1231 -2.871076,0.205 -4.304916,0.3282 -0.859944,0.1814 -1.733978,0.3109 -2.582376,0.5412 0,0 3.424233,-2.6147 3.424233,-2.6147 l 0,0 c 0.846159,-0.1817 1.69991,-0.3388 2.559656,-0.4398 1.440302,-0.1079 2.881628,-0.2097 4.322995,-0.2993 1.090278,-0.01 2.18113,-0.01 3.270639,-0.053 0,0 -3.564297,2.5896 -3.564297,2.5896 z"
       inkscape:connector-curvature="0" />
    <path
       style="fill:#ffffff;fill-opacity:1;fill-rule:nonzero;stroke:none"
       id="path3936"
       d="m 42.326426,992.91551 c -0.141015,1.66997 -0.147141,3.34786 -0.165487,5.02258 -0.02134,2.65901 -0.02657,5.31831 -0.0179,7.97741 0.006,2.6238 0.0043,5.2477 4.1e-4,7.8715 -0.0087,2.5879 0.0074,5.1758 0.01453,7.7636 0.0027,2.3554 0.003,4.711 0.01778,7.0663 0.0334,1.2505 -0.01312,2.5041 0.07581,3.7527 0.01986,0.279 0.111234,1.1378 0.142115,1.4349 0.122633,0.9438 0.196441,1.8926 0.234944,2.8432 0.0253,0.717 0.01893,1.4345 0.02596,2.1518 0.0055,0.4 0.0039,0.2011 0.0051,0.5966 0,0 -3.887745,1.9802 -3.887745,1.9802 l 0,0 c 0.0023,-0.3982 1.24e-4,-0.1975 0.0067,-0.6022 0.0079,-0.7165 0.0046,-1.4331 -0.0023,-2.1495 -0.01641,-0.9573 -0.05966,-1.9135 -0.132277,-2.8683 -0.05534,-0.7826 -0.124129,-1.5701 -0.138134,-2.3548 -0.01743,-0.9766 0.04731,-1.9546 0.03259,-2.9313 0.01472,-2.3614 0.01512,-4.723 0.01778,-7.0844 0.0071,-2.5928 0.02318,-5.1856 0.01453,-7.7784 -0.0039,-2.624 -0.0056,-5.248 4.11e-4,-7.872 0.0086,-2.653 0.0036,-5.3062 -0.0179,-7.95919 -0.01793,-1.6184 -0.02021,-3.24068 -0.165487,-4.8539 0,0 3.938567,-2.0068 3.938567,-2.0068 z"
       inkscape:connector-curvature="0" />
    <path
       style="fill:#ffffff;fill-opacity:1;fill-rule:nonzero;stroke:none"
       id="path3938"
       d="m 43.76492,1021.2775 c 0.0242,0.098 0.03963,0.1983 0.07261,0.2936 0.339411,0.9801 0.855292,1.9024 1.253549,2.8588 0.654919,1.6176 1.212004,3.2707 1.779311,4.9203 0.542112,1.553 1.174824,3.0706 1.91652,4.5382 0.558493,0.9224 1.124539,1.8411 1.713897,2.7443 0.493255,0.7711 0.94865,1.5647 1.425289,2.3455 0.08593,0.127 0.17185,0.254 0.257775,0.381 0,0 -3.71128,2.1779 -3.71128,2.1779 l 0,0 c -0.08963,-0.1326 -0.179252,-0.2653 -0.268878,-0.398 -0.473802,-0.7785 -0.946673,-1.558 -1.411788,-2.3412 -0.586254,-0.9244 -1.160924,-1.8578 -1.682846,-2.82 -0.709226,-1.5041 -1.297675,-3.0601 -1.868065,-4.6217 -0.581844,-1.6317 -1.128017,-3.2769 -1.818075,-4.8674 -0.460329,-1.0579 -1.017425,-2.0689 -1.530991,-3.1001 0,0 3.872971,-2.1112 3.872971,-2.1112 z"
       inkscape:connector-curvature="0" />
    <path
       style="fill:#ffffff;fill-opacity:1;fill-rule:nonzero;stroke:none"
       id="path3942"
       d="m 44.25606,1002.6723 c 1.348778,0.1054 2.669458,0.446 3.964864,0.8214 1.74699,0.5422 3.505886,1.0424 5.252479,1.5857 0.520041,0.1588 1.058134,0.2653 1.557362,0.4875 0.266559,0.1186 0.517699,0.2693 0.776811,0.4034 0,0 -3.61847,2.3694 -3.61847,2.3694 l 0,0 c -0.719768,-0.3875 -1.4284,-0.6541 -2.213684,-0.8869 -1.698495,-0.6058 -3.421729,-1.1348 -5.158551,-1.6202 -1.347656,-0.3355 -2.732211,-0.6537 -4.131032,-0.5663 0,0 3.570221,-2.594 3.570221,-2.594 z"
       inkscape:connector-curvature="0" />
    <path
       style="fill:#ffffff;fill-opacity:1;fill-rule:nonzero;stroke:none"
       id="path3950"
       d="m 44.151097,1007.3101 c 0.946173,0.6072 2.038915,0.9023 3.058397,1.3588 1.071439,0.445 2.114591,0.9522 3.174936,1.4223 0.137347,0.071 0.274695,0.1417 0.412042,0.2125 0,0 -3.601438,2.3651 -3.601438,2.3651 l 0,0 c -0.132311,-0.067 -0.264622,-0.1339 -0.396933,-0.2009 -1.03674,-0.4931 -2.054478,-1.03 -3.124955,-1.4487 -1.053493,-0.4627 -2.155653,-0.7981 -3.196765,-1.2912 0,0 3.674716,-2.4179 3.674716,-2.4179 z"
       inkscape:connector-curvature="0" />
    <path
       style="fill:#ffffff;fill-opacity:1;fill-rule:nonzero;stroke:none"
       id="path3954"
       d="m 38.921428,977.58341 c -0.849534,-0.0184 -1.709106,-0.0863 -2.552404,0.0349 -0.442159,0.04 -0.876206,0.19002 -1.27318,0.3873 -0.155732,0.0774 -0.602796,0.3471 -0.450883,0.26246 3.236314,-1.8032 4.100779,-2.45547 2.589183,-1.36769 -0.935737,0.61825 -1.772691,1.34188 -2.509764,2.18485 -0.605429,0.74569 -1.114714,1.5597 -1.627101,2.37004 -0.471618,0.83613 -0.936452,1.68 -1.314615,2.56317 -0.303976,0.80439 -0.354553,1.66744 -0.387626,2.51791 -0.01792,0.78464 -0.04361,1.5672 0.09075,2.34249 0.168065,0.52355 0.421062,1.06563 0.860179,1.42141 0.103702,0.084 0.717159,0.43703 0.814613,0.49411 0.678843,0.36893 1.422019,0.54657 2.161335,0.74165 0.359192,0.0948 0.714938,0.20226 1.073796,0.29829 0.629836,0.17466 1.279377,0.25201 1.930076,0.29312 0.17855,0.0113 0.358395,0.004 0.536151,0.0247 0.199379,0.0227 0.395305,0.0693 0.592957,0.10401 1.089109,0.21627 2.191934,0.33997 3.299354,0.40649 0.983013,0.0333 1.967198,0.0888 2.948108,0.005 0.196073,-0.0216 0.394312,-0.0285 0.588219,-0.0647 0.185616,-0.0346 0.365332,-0.0957 0.547008,-0.14718 0.626487,-0.17743 1.242288,-0.38016 1.823136,-0.67442 0.129829,-0.0712 0.517966,-0.28731 0.389489,-0.21367 -6.253243,3.584 -3.689865,2.35514 -2.62486,1.33357 0.30822,-0.29564 0.338291,-0.35631 0.595614,-0.68309 0.547442,-0.67553 0.815601,-1.46341 0.960916,-2.30701 0.118861,-0.90249 0.120684,-1.81471 0.111411,-2.72327 -0.03903,-0.55239 -0.124293,-1.11748 -0.336319,-1.63313 -0.02618,-0.0637 -0.393403,-0.83368 -0.406605,-0.86145 -0.508588,-1.01514 -1.231438,-1.90257 -1.979894,-2.74896 -0.45107,-0.57997 -0.847318,-1.21386 -1.351837,-1.75139 -0.100585,-0.10716 -0.582665,-0.53606 -0.695229,-0.63716 -0.555548,-0.57821 -1.257539,-0.93864 -1.949374,-1.31975 -0.532297,-0.3064 -1.120246,-0.42224 -1.723885,-0.47086 -0.591027,-0.0255 -1.182858,-0.0212 -1.774328,-0.0306 0,0 3.499647,-2.54374 3.499647,-2.54374 l 0,0 c 0.613,-0.0116 1.228812,-0.0295 1.838691,0.0485 0.634432,0.0977 1.238775,0.29099 1.789063,0.63038 0.718357,0.39899 1.412061,0.8159 1.98057,1.42319 0.214528,0.20404 0.513617,0.48023 0.7075,0.70013 0.485091,0.55017 0.890003,1.16743 1.342398,1.74332 0.750095,0.89031 1.487352,1.81073 2.044743,2.83611 0.04276,0.083 0.409898,0.79192 0.452772,0.88896 0.246451,0.55776 0.335242,1.17037 0.397107,1.77217 -0.0085,0.92443 0.02455,1.85263 -0.06276,2.77387 -0.125996,0.89335 -0.341662,1.76243 -0.886781,2.50251 -0.204687,0.29248 -0.329455,0.4891 -0.570378,0.75707 -1.358423,1.51089 -3.330609,2.29447 -5.124351,3.19316 -0.962307,0.38343 -1.969376,0.67992 -3.009451,0.7345 -1.006228,0.0548 -2.017083,0.0518 -3.022161,-0.0284 -1.099256,-0.10369 -2.19021,-0.26983 -3.27858,-0.45475 -1.042104,-0.11228 -2.108434,-0.11228 -3.110963,-0.45534 -1.11477,-0.32959 -2.2706,-0.57808 -3.302479,-1.13021 -0.258339,-0.15607 -0.667066,-0.3886 -0.895116,-0.58607 -0.487109,-0.4218 -0.765834,-1.0394 -0.9874,-1.62783 -0.06206,-0.29201 -0.13107,-0.56727 -0.153617,-0.86608 -0.03903,-0.51725 0.02955,-1.04268 0.0122,-1.56046 0.02882,-0.89391 0.0881,-1.78996 0.325066,-2.65715 0.360315,-0.91879 0.867063,-1.76742 1.321142,-2.64168 0.492049,-0.8329 1.002876,-1.65393 1.589688,-2.42312 0.724919,-0.902 1.541586,-1.67332 2.519145,-2.30115 1.772984,-1.30877 0.727859,-0.56367 4.691122,-2.87318 0.562476,-0.32777 1.210116,-0.48009 1.851557,-0.54019 0.881119,-0.0478 1.764211,-6.7e-4 2.645611,-0.0506 0,0 -3.558374,2.58531 -3.558374,2.58531 z"
       inkscape:connector-curvature="0" />
  </g>
</svg>
