<?xml version="1.0" encoding="UTF-8" standalone="no"?>
<!-- Created with Inkscape (http://www.inkscape.org/) -->

<svg
   xmlns:dc="http://purl.org/dc/elements/1.1/"
   xmlns:cc="http://creativecommons.org/ns#"
   xmlns:rdf="http://www.w3.org/1999/02/22-rdf-syntax-ns#"
   xmlns:svg="http://www.w3.org/2000/svg"
   xmlns="http://www.w3.org/2000/svg"
   xmlns:sodipodi="http://sodipodi.sourceforge.net/DTD/sodipodi-0.dtd"
   xmlns:inkscape="http://www.inkscape.org/namespaces/inkscape"
   width="86"
   height="86"
   id="svg3268"
   version="1.1"
   inkscape:version="0.48.5 r10040"
   sodipodi:docname="driving.svg">
  <defs
     id="defs3270" />
  <sodipodi:namedview
     id="base"
     pagecolor="#000000"
     bordercolor="#666666"
     borderopacity="1.0"
     inkscape:pageopacity="0"
     inkscape:pageshadow="2"
     inkscape:zoom="5.6"
     inkscape:cx="67.447691"
     inkscape:cy="43.004767"
     inkscape:document-units="px"
     inkscape:current-layer="layer1"
     showgrid="false"
     inkscape:showpageshadow="false"
     inkscape:window-width="1278"
     inkscape:window-height="780"
     inkscape:window-x="0"
     inkscape:window-y="0"
     inkscape:window-maximized="1" />
  <metadata
     id="metadata3273">
    <rdf:RDF>
      <cc:Work
         rdf:about="">
        <dc:format>image/svg+xml</dc:format>
        <dc:type
           rdf:resource="http://purl.org/dc/dcmitype/StillImage" />
        <dc:title></dc:title>
      </cc:Work>
    </rdf:RDF>
  </metadata>
  <g
     inkscape:label="Layer 1"
     inkscape:groupmode="layer"
     id="layer1"
     transform="translate(0,-966.36218)">
    <path
       style="fill:#ffffff;fill-opacity:1;fill-rule:nonzero;stroke:none"
       id="path3986"
       d="m 76.894294,66.793217 c 0.07281,-0.03634 0.141636,-0.0821 0.218428,-0.109025 0.438715,-0.153809 0.918014,-0.196647 1.371348,-0.285602 0.32395,-0.06357 0.645809,-0.137481 0.969696,-0.201372 0.824672,-0.134951 1.607011,-0.461923 2.396015,-0.732377 1.451938,-0.506217 3.516004,-1.773055 -2.641801,1.620358 -0.09061,0.04993 0.172228,-0.11569 0.250075,-0.183833 0.203455,-0.178093 0.206614,-0.226009 0.343851,-0.457742 0.318139,-0.935085 0.2749,-1.955624 0.289772,-2.93175 -0.07875,-1.402754 -0.2828,-2.79361 -0.553112,-4.17101 -0.313843,-1.282993 -0.394651,-2.601332 -0.53638,-3.909083 -0.199542,-1.254929 -0.275748,-2.522653 -0.312266,-3.791243 -0.02552,-1.39486 -0.04253,-2.789965 -0.04472,-4.185068 0.03116,-0.801824 -0.03953,-1.605731 -0.0189,-2.407281 0.0099,-0.386591 0.05338,-0.711175 0.09515,-1.095511 0.05621,-0.83989 0.32521,-1.738786 -0.0094,-2.547716 -0.270164,-0.39402 -0.761736,-0.376121 -1.193353,-0.391474 -0.727335,-0.0183 -1.455032,-0.0047 -2.182449,0.002 -1.587917,-0.235026 -3.173727,-0.485534 -4.756358,-0.756099 -2.485061,-0.325337 -4.960918,-0.72488 -7.452036,-1.004506 -1.31096,-0.148023 -2.629533,-0.198629 -3.947874,-0.208824 -0.404715,-0.0271 -0.782705,0.01285 -1.144759,0.202729 -0.08933,0.04685 -0.386189,0.273649 -0.517958,0.275163 -0.08955,0.001 -0.16707,-0.06458 -0.250605,-0.09687 -0.07261,-0.103655 -0.162046,-0.197366 -0.217824,-0.310966 -0.06348,-0.129279 -0.09259,-0.272778 -0.136194,-0.41004 -0.251994,-0.793242 -0.331069,-1.594689 -0.403141,-2.420877 -0.119881,-1.933631 -0.122985,-3.87202 -0.128537,-5.808606 -0.09294,-1.762878 -0.158705,-3.531713 -0.472158,-5.271456 -0.127498,-0.676045 -0.205194,-1.362911 -0.35474,-2.034931 -0.12167,-0.546751 -0.305456,-1.080856 -0.467828,-1.616285 -0.227944,-0.702343 -0.552409,-1.371696 -0.991518,-1.966689 -0.101776,-0.137907 -0.196318,-0.283915 -0.320372,-0.402183 -0.135424,-0.129108 -0.300947,-0.222409 -0.451421,-0.333614 -0.225686,-0.09267 -0.444624,-0.203867 -0.677057,-0.278007 -0.373596,-0.119166 -1.77948,-0.424122 -2.077423,-0.481184 -1.7827,-0.341421 -3.572903,-0.503598 -5.379171,-0.661462 -4.691118,-0.323916 -9.396467,-0.35086 -14.096685,-0.329035 -2.441162,0.01181 -4.881788,0.07209 -7.321952,0.139378 -0.820308,-0.0072 -1.641826,0.04258 -2.436975,0.259899 -0.4922,0.134519 -0.899179,0.30956 -1.373954,0.495949 -0.232592,0.127896 -0.927532,0.516616 -0.697777,0.383689 5.651545,-3.269749 2.823562,-1.738078 1.732752,-0.846092 -0.455999,0.372883 -0.505806,0.476406 -0.881939,0.927432 -0.634375,0.912203 -1.24898,1.833175 -2.010205,2.645445 -1.556424,1.480919 -3.588913,2.344458 -5.521954,3.244768 6.107951,-3.489231 3.7994,-2.349779 2.622846,-1.369822 -0.382139,0.318285 -0.743795,0.659281 -1.107308,0.998312 -0.828253,0.790593 -1.308902,1.832054 -1.655736,2.904697 -0.363232,1.387897 -0.523858,2.81383 -0.744291,4.227932 -0.215368,1.469121 -0.435304,2.937701 -0.637053,4.408814 -0.189496,1.396468 -0.474897,2.775388 -0.633163,4.176432 -0.219787,1.400505 -0.372559,2.807056 -0.4405994,4.222882 -0.060269,1.174203 -0.050892,2.349893 -0.037358,3.525024 0.00403,0.855058 0.010329,1.71005 0.013641,2.565105 -2.308e-4,0.746071 -0.021633,1.487595 0.092396,2.226337 0.21367,0.975791 0.437702,1.952094 0.749926,2.901523 0.209993,0.699941 0.458422,1.370171 0.842659,1.992741 0.398973,0.482095 0.727941,1.013203 1.072526,1.533829 0.247352,0.279506 0.116614,0.15233 0.389953,0.383843 0,0 -3.7132519,2.296364 -3.7132519,2.296364 l 0,0 C 9.0952624,61.048901 9.2406025,61.207319 8.9614907,60.869358 8.6066658,60.34782 8.2787853,59.80885 7.8832272,59.315786 7.4829385,58.645099 7.2238237,57.96667 7.0361866,57.2073 6.7386876,56.236034 6.5200459,55.240989 6.220814,54.269469 6.1929758,54.106176 6.1147775,53.670679 6.103473,53.508677 c -0.035474,-0.508364 0.031115,-1.023796 0.00399,-1.532732 0.00114,-0.859421 0.00317,-1.718801 0.00834,-2.578214 0.019816,-1.192884 0.04438,-2.385971 0.092828,-3.578042 0.08756,-1.418461 0.1872722,-2.836939 0.4254058,-4.239875 0.1436339,-1.411773 0.4484343,-2.79128 0.6481798,-4.19449 0.1827257,-1.482186 0.4257827,-2.957346 0.6604795,-4.431909 0.2194228,-1.41571 0.3175791,-2.848643 0.6512282,-4.246321 0.3040527,-1.112254 0.7608074,-2.223575 1.5341116,-3.094654 0.470779,-0.455767 0.950521,-0.899838 1.443766,-1.331239 0.110511,-0.09665 0.205873,-0.214242 0.331923,-0.289515 1.340567,-0.80054 2.707552,-1.555988 4.061329,-2.333982 0.226798,-0.108177 0.456304,-0.210828 0.6806,-0.324102 0.08958,-0.04524 0.351544,-0.193721 0.264984,-0.142934 -6.174825,3.622881 -4.015767,2.464036 -2.79407,1.572968 0.806762,-0.790527 1.518013,-1.658131 2.10058,-2.630078 0.294395,-0.408574 0.471462,-0.700493 0.850427,-1.040576 0.08472,-0.07603 1.11787,-0.8277 1.190006,-0.870554 3.79846,-2.256558 2.908489,-1.806256 5.012365,-2.816995 0.586419,-0.210197 0.833284,-0.318456 1.437491,-0.458131 0.817219,-0.188916 1.657375,-0.224837 2.492774,-0.199251 2.310017,0.05635 4.620068,0.114235 6.930528,0.149368 4.698485,0.08505 9.398938,0.132352 14.093281,0.36306 1.893681,0.120037 3.781959,0.23609 5.660005,0.519604 0.548252,0.08277 1.681015,0.281261 2.24884,0.46534 0.270457,0.08768 0.523173,0.222771 0.78476,0.334157 0.178321,0.137223 0.373475,0.254984 0.534963,0.411669 0.130392,0.126514 0.227842,0.283299 0.333581,0.431039 0.454322,0.634789 0.776673,1.351471 1.049798,2.079673 0.167683,0.551978 0.353977,1.111988 0.468098,1.678179 0.136758,0.678496 0.191454,1.375542 0.32054,2.05563 0.05577,0.383167 0.186305,1.248404 0.219502,1.615092 0.112999,1.248178 0.113294,2.507647 0.198319,3.757645 0.01483,1.910691 0.01716,3.825588 0.191632,5.729912 0.07691,0.629805 0.147778,1.253954 0.331946,1.863685 0.0054,0.01782 0.195767,0.647889 0.287798,0.668783 0.532872,-0.362436 1.193339,-0.380515 1.814879,-0.347099 1.280764,0.05042 2.556385,0.173243 3.825772,0.352141 2.459671,0.377165 4.914014,0.784049 7.387999,1.059799 1.646195,0.223516 3.298627,0.436347 4.957916,0.529292 0.745658,-0.0058 1.492005,-0.02266 2.237308,0.0064 0.597062,0.0731 1.140516,0.241164 1.439189,0.811885 0.04304,0.113792 0.09946,0.223386 0.129111,0.341374 0.200456,0.797562 -0.04159,1.629605 -0.09409,2.428163 -0.01,0.09205 -0.103727,0.944998 -0.109827,1.051614 -0.04618,0.807191 -0.0012,1.619821 -0.02233,2.427544 -5.43e-4,1.391992 -0.01762,2.784336 0.03073,4.175836 0.05208,1.254725 0.131065,2.507996 0.314587,3.751556 0.160865,1.299377 0.187295,2.616615 0.484122,3.898514 0.279595,1.398199 0.517495,2.806747 0.621227,4.230316 0.0084,1.010538 0.07787,2.040845 -0.111989,3.038171 -0.09353,0.301385 -0.211043,0.706864 -0.507436,0.885979 -1.825065,1.102923 -3.020972,2.018403 -4.806258,2.602949 -0.793154,0.273268 -1.583077,0.571132 -2.420663,0.677296 -0.49078,0.0968 -0.987225,0.182089 -1.472846,0.30279 -0.752478,0.187027 -0.221932,0.07171 -0.882886,0.27629 -0.100649,0.03115 -0.204185,0.05207 -0.306277,0.07811 0,0 3.532265,-2.656559 3.532265,-2.656559 z"
       inkscape:connector-curvature="0"
       transform="translate(0,966.36218)" />
    <path
       style="fill:#ffffff;fill-opacity:1;fill-rule:nonzero;stroke:none"
       id="path3988"
       d="m 60.405195,1024.0185 c -0.610829,-0.028 -1.222604,-0.02 -1.833885,-0.023 -0.697884,0 -1.381704,0.2042 -2.061883,0.347 -0.116393,0.02 -0.232418,0.042 -0.349179,0.059 -0.337787,0.05 -0.368284,0.023 -0.691147,0.1401 -0.336784,0.1225 -0.656266,0.294 -0.993291,0.4194 -0.108613,0.042 -0.216531,0.086 -0.325838,0.1262 -0.246042,0.091 -0.37359,0.1349 -0.629036,0.1908 -0.302946,0.066 -0.339639,0.033 -0.627114,0.1602 -0.100098,0.044 -0.191241,0.1064 -0.286862,0.1595 -1.474398,0.9383 0.410645,-0.2681 3.049398,-1.7256 0.116256,-0.064 -0.215883,0.1553 -0.316501,0.242 -0.294898,0.2541 -0.543383,0.5582 -0.790378,0.8569 -0.360151,0.4423 -0.494159,0.9888 -0.674233,1.5157 -0.109043,0.319 -0.208204,0.559 -0.331642,0.8706 -0.301188,0.6979 -0.435883,1.4379 -0.503813,2.1897 -0.06285,0.8674 -0.06131,1.7369 -0.05529,2.6059 -0.004,1.0665 -0.0151,2.133 -0.01133,3.1994 0.0392,0.6492 -0.05331,1.314 0.05293,1.9592 0.05064,0.3076 0.115729,0.4456 0.221069,0.7366 0.05764,0.1065 0.105127,0.2191 0.172905,0.3195 0.09716,0.1438 0.337845,0.3777 0.450223,0.5043 0.232412,0.2617 0.458239,0.5266 0.69647,0.7835 0.408649,0.3116 0.806259,0.6512 1.290549,0.8411 0.359462,0.1409 0.557043,0.1653 0.939752,0.2465 1.317587,0.1997 2.655381,0.2034 3.985083,0.2062 1.403009,0.077 2.761232,-0.2228 4.080862,-0.6698 1.415533,-0.5372 2.833832,-1.0773 4.228381,-1.6677 0.184349,-0.092 0.368697,-0.1844 0.553045,-0.2765 -1.058604,0.5945 -2.09762,1.2253 -3.175813,1.7836 -0.168382,0.087 0.30012,-0.2331 0.436153,-0.3652 0.379761,-0.3688 0.610212,-0.7825 0.831253,-1.2549 0.438287,-1.0519 0.581219,-2.1773 0.664599,-3.3035 0.04782,-0.9518 0.05128,-1.9046 0.04332,-2.8572 0.0097,-0.6878 0.02078,-1.3768 -0.07947,-2.0597 -0.03114,-0.2121 -0.180056,-0.8995 -0.219753,-1.0876 -0.28272,-1.0801 -0.882,-2.0256 -1.456866,-2.9684 -0.460305,-0.7646 -1.016501,-1.3645 -1.817976,-1.7622 -0.53482,-0.2242 -1.107116,-0.3289 -1.651083,-0.5242 -0.316848,-0.1138 -0.625963,-0.2481 -0.940565,-0.368 -0.510777,-0.1988 -1.043075,-0.3104 -1.5826,-0.3927 0,0 3.555001,-2.4846 3.555001,-2.4846 l 0,0 c 0.544259,0.1185 1.078951,0.2653 1.594042,0.4814 0.281601,0.1097 0.632094,0.2509 0.919628,0.3436 0.579307,0.1866 1.189507,0.2889 1.731745,0.5795 0.823872,0.4969 1.41292,1.1451 1.898786,1.9773 0.589049,0.9853 1.191541,1.9835 1.500742,3.0983 0.265269,1.0522 0.43197,2.12 0.389999,3.2093 -0.006,0.9678 0.006,1.9372 -0.0638,2.9031 -0.08303,1.1585 -0.200944,2.3157 -0.592239,3.4182 -0.05997,0.1687 -0.106069,0.3429 -0.179906,0.506 -0.961492,2.1231 -3.794496,3.1235 -5.685642,4.025 -1.403363,0.5526 -2.798029,1.1311 -4.22441,1.6219 -1.364423,0.4078 -2.750927,0.6736 -4.183405,0.579 -1.361279,-0.024 -2.732597,-0.02 -4.078251,-0.2535 -0.44331,-0.1101 -0.612103,-0.1305 -1.024489,-0.3136 -0.517694,-0.2298 -0.965212,-0.5937 -1.395187,-0.9548 -0.513274,-0.5426 -1.050509,-1.0979 -1.392913,-1.7656 -0.114681,-0.3088 -0.204981,-0.5104 -0.263183,-0.8386 -0.117881,-0.6649 0.0049,-1.3465 -0.03412,-2.0155 0.0019,-1.0606 -0.01224,-2.1212 -0.0224,-3.1818 0.0028,-0.8743 -0.01628,-1.7492 0.0113,-2.623 0.05463,-0.7934 0.163636,-1.5823 0.474344,-2.322 0.116559,-0.282 0.251127,-0.5567 0.35616,-0.8431 0.200284,-0.5461 0.244311,-1.1475 0.581342,-1.64 1.349444,-1.8965 3.205066,-2.7731 5.446552,-3.7862 0.622001,-0.2179 1.276928,-0.3358 1.878615,-0.6162 0.673702,-0.2713 1.351467,-0.474 2.075424,-0.5631 0.695077,-0.1504 1.398809,-0.3014 2.114361,-0.2724 0.632532,0 1.26547,0 1.897599,-0.023 0,0 -3.576144,2.5983 -3.576144,2.5983 z"
       inkscape:connector-curvature="0" />
    <path
       style="fill:#ffffff;fill-opacity:1;fill-rule:nonzero;stroke:none"
       id="path3992"
       d="m 27.905195,1023.8399 c -0.894537,-0.044 -1.791013,-0.041 -2.686478,-0.048 -1.240033,0 -2.480121,-0.01 -3.720139,0 -0.494607,0 -0.989205,0.01 -1.483809,0.012 -0.242035,0 -0.608557,-0.01 -0.851008,0.033 -0.119219,0.021 -0.2322,0.069 -0.348301,0.1029 -1.310047,0.6249 -3.673705,1.91 2.823549,-1.6365 0.110714,-0.06 -0.200363,0.1535 -0.295697,0.2361 -0.250019,0.2166 -0.26614,0.2526 -0.477493,0.4973 -0.401301,0.5827 -0.71082,1.2101 -0.900099,1.8909 -0.157956,0.6866 -0.168794,1.3938 -0.179486,2.0947 -0.07254,0.7551 -0.213008,1.5002 -0.285053,2.2557 -0.06512,0.8615 -0.08411,1.7253 -0.08617,2.5889 0.002,0.8386 0.01231,1.6772 0.012,2.5158 1.22e-4,0.7467 -0.0216,1.4873 0.09038,2.227 0.106779,0.923 0.404871,1.78 0.847696,2.5913 0.435097,0.7105 1.022399,1.351 1.75363,1.7672 0.147647,0.084 0.306769,0.146 0.460154,0.219 1.12584,0.4159 2.321218,0.5254 3.50923,0.5987 1.033065,0.049 2.06739,0.029 3.101091,0.028 1.120985,0 2.243428,0.043 3.362831,-0.028 0.423085,-0.096 0.85907,-0.1553 1.252085,-0.3515 0.11643,-0.058 0.446287,-0.2677 0.33279,-0.2041 -3.408041,1.9113 -4.394374,2.7075 -3.037713,1.6483 0.767218,-0.6521 1.341925,-1.4632 1.810574,-2.3462 0.573033,-1.1708 0.924947,-2.421 1.23851,-3.6801 0.310669,-1.2831 0.483498,-2.5936 0.729862,-3.8903 0.222587,-1.1775 0.311296,-2.3732 0.33646,-3.5695 0.0089,-0.6125 -0.03445,-1.2227 -0.220248,-1.81 -0.05545,-0.1753 -0.2321,-0.5813 -0.303929,-0.7509 -0.277727,-0.8242 -0.777338,-1.5002 -1.373208,-2.119 -0.689274,-0.6476 -1.514356,-1.0606 -2.398557,-1.3698 -1.31322,-0.3326 -2.653585,-0.5443 -4.00086,-0.6795 -1.248935,-0.16 -2.501255,-0.3838 -3.763401,-0.4139 -0.264163,-0.01 -0.528344,0.012 -0.792516,0.018 -0.238681,0.024 -0.477362,0.049 -0.716043,0.073 0,0 3.394756,-2.5053 3.394756,-2.5053 l 0,0 c 0.23687,-0.011 0.47374,-0.022 0.71061,-0.033 1.54395,0.021 3.072289,0.1941 4.598733,0.4224 1.381095,0.1539 2.7665,0.3518 4.105902,0.73 0.941739,0.3463 1.827003,0.784 2.534557,1.5158 0.633517,0.6545 1.164343,1.3813 1.472758,2.2483 0.369304,0.9119 0.634805,1.7407 0.57397,2.7434 -0.06251,1.2198 -0.115033,2.4425 -0.344129,3.6455 -0.08153,0.4281 -0.177132,0.8534 -0.257568,1.2817 -0.164568,0.8762 -0.217559,1.772 -0.457438,2.6343 -0.530494,1.9088 0.192834,-0.7366 -0.322005,1.2965 -0.213122,0.8416 -0.558574,1.6408 -0.86475,2.4509 -0.426459,0.9593 -0.943758,1.7459 -1.685896,2.4915 -1.471616,1.2957 -0.409447,0.3953 -4.348351,2.674 -0.49382,0.2856 -1.111067,0.3142 -1.660183,0.3819 -1.130615,0.024 -2.261928,-3e-4 -3.392634,0.028 -1.023809,0 -2.048002,-0.021 -3.069846,-0.088 -1.234014,-0.093 -2.481377,-0.2398 -3.633071,-0.7215 -0.164982,-0.089 -0.335986,-0.1675 -0.494946,-0.2667 -0.774761,-0.4839 -1.383953,-1.1612 -1.858219,-1.9352 -0.462489,-0.8422 -0.828119,-1.739 -0.96216,-2.697 -0.02781,-0.167 -0.105642,-0.6107 -0.117091,-0.7764 -0.03472,-0.5021 0.02339,-1.0116 0.002,-1.5144 -0.0019,-0.8433 0.0052,-1.6867 0.011,-2.53 0.0052,-0.8686 -0.01873,-1.7383 0.04088,-2.6055 0.05737,-0.7471 0.167999,-1.4852 0.292814,-2.2236 0.0058,-0.7295 0.01042,-1.4633 0.136273,-2.1841 0.08017,-0.373 0.169422,-0.7299 0.32487,-1.0804 0.230086,-0.5186 0.09251,-0.1549 0.348138,-0.6416 0.05584,-0.1063 0.10065,-0.218 0.150975,-0.327 0.176595,-0.2683 0.445906,-0.6739 0.724783,-0.8459 1.341209,-0.8267 2.958572,-2.161 4.673545,-2.589 0.889445,-0.099 1.785652,-0.03 2.678761,-0.039 1.236541,0.01 2.473155,0.01 3.709713,0 0.93958,-0.01 1.879948,-0.01 2.818726,-0.048 0,0 -3.576145,2.5982 -3.576145,2.5982 z"
       inkscape:connector-curvature="0" />
    <path
       style="fill:#ffffff;fill-opacity:1;fill-rule:nonzero;stroke:none"
       id="path4002"
       d="m 40.863203,69.703041 c 0.780441,0.03843 1.562703,0.03165 2.343901,0.02692 0.795649,5.86e-4 1.591294,-0.0026 2.386941,-0.0042 0.733051,3.01e-4 1.466077,-0.0011 2.199129,-0.0021 0.448005,0.0012 0.895979,-9.98e-4 1.34396,-0.0052 0,0 -3.527893,2.563164 -3.527893,2.563164 l 0,0 c -0.443189,-0.0043 -0.886372,-0.0065 -1.329585,-0.0052 -0.73113,-9.62e-4 -1.462233,-0.0024 -2.193363,-0.0021 -0.79177,-0.0016 -1.58354,-0.0048 -2.375314,-0.0042 -0.805937,-0.005 -1.612719,-0.0098 -2.417997,0.02692 0,0 3.570221,-2.593918 3.570221,-2.593918 z"
       inkscape:connector-curvature="0"
       transform="translate(0,966.36218)" />
    <path
       style="fill:#ffffff;fill-opacity:1;fill-rule:nonzero;stroke:none"
       id="path4006"
       d="m 12.888856,59.101032 c 0.552893,0.613136 1.013016,1.299234 1.501704,1.962502 0.483804,0.727317 1.106255,1.344755 1.734481,1.945932 0.502397,0.502637 1.043508,0.991323 1.666809,1.339848 0,0 -3.674655,2.366499 -3.674655,2.366499 l 0,0 C 13.513876,66.295107 12.96951,65.793143 12.45256,65.271466 11.804115,64.652754 11.183134,64.006557 10.685598,63.2565 10.203697,62.594272 9.7346447,61.908023 9.1104606,61.369576 c 0,0 3.7783954,-2.268544 3.7783954,-2.268544 z"
       inkscape:connector-curvature="0"
       transform="translate(0,966.36218)" />
    <path
       style="fill:#ffffff;fill-opacity:1;fill-rule:nonzero;stroke:none"
       id="path4018"
       d="m 26.254998,27.981904 c -0.08744,1.213029 -0.10061,2.429731 -0.118703,3.645287 -0.02875,2.116658 -0.03529,4.233693 -0.02213,6.350498 0.0057,1.441782 0.0528,2.882891 0.08411,4.32423 0.02382,0.218638 -0.0016,0.494062 0.194986,0.659422 0.208425,0.175356 0.83644,0.289365 1.015834,0.320652 0.797201,0.139035 1.35865,0.159524 2.184024,0.223392 3.089763,0.164248 6.185342,0.140336 9.277576,0.07934 1.413843,-0.03169 2.827324,-0.07783 4.241346,-0.101216 0.195609,-0.0023 0.550059,0.006 0.749935,-0.0419 0.09426,-0.02258 0.179226,-0.07389 0.268838,-0.110829 -1.180221,0.654801 -2.348857,1.330932 -3.540662,1.964402 -0.07751,0.0412 0.138988,-0.111138 0.189288,-0.183076 0.06238,-0.08921 0.09583,-0.195489 0.143749,-0.293234 0.213402,-0.696098 0.180386,-1.430052 0.233693,-2.147175 0.03393,-0.456507 0.126153,-1.188787 0.179002,-1.63454 0.159353,-1.37365 0.514143,-2.711609 0.782113,-4.065198 0.131894,-0.666233 0.248175,-1.335471 0.376559,-2.002389 0.07522,-1.09278 0.679402,-2.29124 0.589747,-3.387223 -0.012,-0.146704 -0.05771,-0.288675 -0.08657,-0.433013 -0.09851,-0.09907 -0.184109,-0.212917 -0.29553,-0.297202 -0.379953,-0.287418 -0.819976,-0.458705 -1.264437,-0.618177 -1.16912,-0.419476 -2.356788,-0.624439 -3.578231,-0.824904 -2.972132,-0.494767 -5.983281,-0.671477 -8.991507,-0.745018 -1.064881,-0.02062 -2.129797,-0.02639 -3.194807,-0.01773 -0.374547,0.003 -1.053401,-0.002 -1.44473,0.04724 -0.169513,0.02132 -0.334304,0.07069 -0.501456,0.106039 0,0 3.435618,-2.57281 3.435618,-2.57281 l 0,0 c 1.647668,-0.129244 3.306616,0.07402 4.955109,0.09566 3.007836,0.164583 6.019436,0.332606 8.999646,0.797149 1.278578,0.196455 2.545328,0.389774 3.778557,0.795557 0.518759,0.170693 1.044324,0.354451 1.46761,0.716381 0.163226,0.139566 0.280437,0.325333 0.420655,0.487999 0.03878,0.175418 0.09871,0.347468 0.116352,0.526255 0.119973,1.216156 -0.562254,2.341379 -0.696692,3.525861 -0.423761,2.010176 0.0078,-0.07208 -0.40173,2.017207 -0.260212,1.327638 -0.598783,2.642839 -0.72814,3.993011 -0.01368,0.147545 -0.13087,1.382354 -0.138894,1.574405 -0.03079,0.736929 0.03598,1.481361 -0.0832,2.214332 -0.02591,0.128775 -0.04031,0.260412 -0.07773,0.386325 -0.580967,1.95483 -3.250105,2.738135 -5.15239,2.664148 -1.336299,-0.01407 -2.672326,-0.04449 -4.008466,-0.06864 -3.098371,-0.0504 -6.1972,-0.03457 -9.295274,-0.0989 -0.732471,-0.0363 -1.634056,-0.05427 -2.36994,-0.18295 -0.48101,-0.08411 -0.957418,-0.181873 -1.310258,-0.550233 -0.268891,-0.280719 -0.232385,-0.519913 -0.264719,-0.869404 0.03123,-1.469912 0.07797,-2.939603 0.08411,-4.409941 0.01303,-2.109288 0.0069,-4.218811 -0.02213,-6.327949 -0.01776,-1.175225 -0.02903,-2.35184 -0.118703,-3.524323 0,0 3.938567,-2.0068 3.938567,-2.0068 z"
       inkscape:connector-curvature="0"
       transform="translate(0,966.36218)" />
  </g>
</svg>
