<?xml version="1.0" encoding="UTF-8" standalone="no"?>
<!-- Created with Inkscape (http://www.inkscape.org/) -->

<svg
   xmlns:dc="http://purl.org/dc/elements/1.1/"
   xmlns:cc="http://creativecommons.org/ns#"
   xmlns:rdf="http://www.w3.org/1999/02/22-rdf-syntax-ns#"
   xmlns:svg="http://www.w3.org/2000/svg"
   xmlns="http://www.w3.org/2000/svg"
   xmlns:sodipodi="http://sodipodi.sourceforge.net/DTD/sodipodi-0.dtd"
   xmlns:inkscape="http://www.inkscape.org/namespaces/inkscape"
   width="86"
   height="86"
   id="svg3268"
   version="1.1"
   inkscape:version="0.48.5 r10040"
   sodipodi:docname="riding.svg">
  <defs
     id="defs3270" />
  <sodipodi:namedview
     id="base"
     pagecolor="#000000"
     bordercolor="#666666"
     borderopacity="1.0"
     inkscape:pageopacity="0"
     inkscape:pageshadow="2"
     inkscape:zoom="5.6"
     inkscape:cx="67.447691"
     inkscape:cy="43.004767"
     inkscape:document-units="px"
     inkscape:current-layer="layer1"
     showgrid="false"
     inkscape:showpageshadow="false"
     inkscape:window-width="1278"
     inkscape:window-height="780"
     inkscape:window-x="0"
     inkscape:window-y="0"
     inkscape:window-maximized="1" />
  <metadata
     id="metadata3273">
    <rdf:RDF>
      <cc:Work
         rdf:about="">
        <dc:format>image/svg+xml</dc:format>
        <dc:type
           rdf:resource="http://purl.org/dc/dcmitype/StillImage" />
        <dc:title />
      </cc:Work>
    </rdf:RDF>
  </metadata>
  <g
     inkscape:label="Layer 1"
     inkscape:groupmode="layer"
     id="layer1"
     transform="translate(0,-966.36218)">
    <path
       style="fill:#ffffff;fill-opacity:1;fill-rule:nonzero;stroke:none"
       id="path5409"
       d="m 18.990911,1018.7546 c 0.187029,0.012 0.373729,0.031 0.561088,0.036 0.367133,0.01 2.392607,-0.01 2.534853,-0.01 2.279414,-0.017 4.555466,-0.087 6.833979,-0.1529 5.502275,-0.1112 10.990532,-0.5518 16.48166,-0.8918 4.120355,-0.353 8.24444,-0.6557 12.37054,-0.9322 0,0 -3.038581,2.2327 -3.038581,2.2327 l 0,0 c -4.05788,0.1634 -8.108011,0.4454 -12.15544,0.7784 -5.508319,0.3589 -11.014909,0.7612 -16.534001,0.9196 -3.532923,0.1735 -7.066185,0.3459 -10.594704,0.5934 0,0 3.540606,-2.5724 3.540606,-2.5724 z"
       inkscape:connector-curvature="0" />
    <path
       style="fill:#ffffff;fill-opacity:1;fill-rule:nonzero;stroke:none"
       id="path5411"
       d="m 21.61214,1019.8798 c -0.369331,1.5738 -1.010913,3.079 -1.650636,4.5594 -1.139413,2.4976 -2.45544,4.9074 -3.522353,7.438 -0.614815,1.6569 -1.119591,3.3587 -1.456871,5.0941 -0.113244,0.606 -0.15912,1.2202 -0.189587,1.8348 0,0 -3.863716,1.9426 -3.863716,1.9426 l 0,0 c 0.03746,-0.6471 0.09461,-1.2933 0.231929,-1.9283 0.398364,-1.7918 0.975145,-3.544 1.618522,-5.2613 1.091529,-2.5118 2.396245,-4.9202 3.501716,-7.4257 0.565346,-1.3814 1.098337,-2.7782 1.392429,-4.2468 0,0 3.938567,-2.0068 3.938567,-2.0068 z"
       inkscape:connector-curvature="0" />
    <path
       style="fill:#ffffff;fill-opacity:1;fill-rule:nonzero;stroke:none"
       id="path5413"
       d="m 22.024176,1019.7229 c 0.799164,1.4389 1.917575,2.6716 2.904455,3.9807 0.311275,0.4129 0.606649,0.8376 0.909973,1.2564 1.976002,2.7961 3.520971,5.8731 4.958732,8.9724 1.06266,2.2622 2.028345,4.5687 2.985915,6.8769 0.09957,0.2231 0.199138,0.4462 0.298707,0.6693 0,0 -3.673786,2.0565 -3.673786,2.0565 l 0,0 c -0.08865,-0.2339 -0.177302,-0.4677 -0.265954,-0.7016 -0.810499,-2.3656 -1.690593,-4.7124 -2.745501,-6.981 -1.385039,-3.0931 -2.887207,-6.1724 -4.941254,-8.8841 -0.316359,-0.4047 -0.624918,-0.8156 -0.949078,-1.2141 -1.063857,-1.3079 -2.227494,-2.5324 -3.274239,-3.8543 0,0 3.79203,-2.1771 3.79203,-2.1771 z"
       inkscape:connector-curvature="0" />
    <path
       style="fill:#ffffff;fill-opacity:1;fill-rule:nonzero;stroke:none"
       id="path5415"
       d="m 57.316641,1017.4489 c -0.05137,0.9459 -0.282704,1.8715 -0.466952,2.7971 -0.501071,2.5171 0.07148,-0.2039 -0.518939,2.5509 -0.771205,3.0894 -1.65386,6.1497 -2.432939,9.237 -0.526756,2.0066 -0.820122,4.0609 -1.298241,6.0782 -0.12323,0.4886 -0.227205,0.9814 -0.316611,1.4772 0,0 -3.904289,1.8755 -3.904289,1.8755 l 0,0 c 0.14985,-0.5105 0.266907,-1.0288 0.420248,-1.5385 0.106815,-0.3659 0.358833,-1.2161 0.442344,-1.5612 0.373305,-1.5427 0.616898,-3.1181 1.103325,-4.6338 0.826447,-3.0557 1.672827,-6.1076 2.391301,-9.1911 0.370039,-2.0077 0.131442,-0.6188 0.413658,-2.4927 0.112373,-0.7461 0.256031,-1.5055 0.272311,-2.2633 0.0024,-0.1131 -0.01614,-0.2257 -0.02421,-0.3385 0,0 3.918997,-1.9968 3.918997,-1.9968 z"
       inkscape:connector-curvature="0" />
    <path
       style="fill:#ffffff;fill-opacity:1;fill-rule:nonzero;stroke:none"
       id="path5417"
       d="m 58.960284,1017.6061 c 0.768263,1.2875 1.475257,2.6094 2.215423,3.9134 1.526711,2.6314 2.857386,5.3733 4.124447,8.1376 1.033524,2.2227 1.87061,4.536 3.014761,6.7059 0.409681,0.7632 0.895676,1.4822 1.264378,2.2665 0,0 -3.77501,2.1021 -3.77501,2.1021 l 0,0 c -0.246336,-0.8232 -0.71107,-1.548 -1.081959,-2.3191 -0.143686,-0.2907 -0.299974,-0.5755 -0.431057,-0.8721 -0.139951,-0.3167 -0.25369,-0.6443 -0.381342,-0.9661 -0.661615,-1.668 -1.312894,-3.3409 -2.037043,-4.9832 -1.234837,-2.7595 -2.56024,-5.4958 -4.203247,-8.0385 -0.796168,-1.2448 -1.550679,-2.5328 -2.487746,-3.678 0,0 3.778395,-2.2685 3.778395,-2.2685 z"
       inkscape:connector-curvature="0" />
    <path
       style="fill:#ffffff;fill-opacity:1;fill-rule:nonzero;stroke:none"
       id="path5419"
       d="m 54.874451,1016.8343 c 0.796019,-1.6543 1.672954,-3.2685 2.579207,-4.8645 1.23508,-2.1339 2.610359,-4.1808 3.936111,-6.2582 0.670663,-1.046 1.203958,-2.1698 1.729509,-3.2931 0.06222,-0.1284 0.124431,-0.2569 0.186647,-0.3854 0,0 3.934741,-1.778 3.934741,-1.778 l 0,0 c -0.06633,0.1257 -0.132653,0.2514 -0.19898,0.3771 -0.555863,1.1802 -1.176162,2.336 -1.889002,3.429 -1.380497,2.0621 -2.787345,4.1088 -4.019169,6.2655 -0.553962,0.9921 -1.073983,1.9904 -1.563755,3.0158 -0.162579,0.3403 -0.433537,0.9051 -0.577454,1.2789 -0.04837,0.1256 -0.08297,0.2562 -0.124447,0.3842 0,0 -3.993408,1.8287 -3.993408,1.8287 z"
       inkscape:connector-curvature="0" />
    <path
       style="fill:#ffffff;fill-opacity:1;fill-rule:nonzero;stroke:none"
       id="path5435"
       d="m 15.922511,1020.6234 c -0.07844,0 -0.15703,-0.016 -0.235309,-0.01 -0.109158,0.01 -0.215683,0.038 -0.324156,0.053 -0.668329,0.091 -1.3235,0.1709 -1.977526,0.3413 -0.468186,0.1851 -0.955952,0.3212 -1.418207,0.5218 -0.143649,0.062 -0.285111,0.1303 -0.422547,0.2054 -0.124339,0.068 -0.485301,0.2925 -0.361799,0.2231 1.121469,-0.6305 2.237314,-1.2709 3.355972,-1.9063 -0.585372,0.4211 -0.866499,1.0504 -1.044593,1.7264 -0.108471,0.6867 -0.321266,1.1836 -0.743209,1.7327 -0.531038,0.6128 -1.236838,1.0457 -1.917027,1.475 -0.827601,0.4646 -1.5865239,1.0359 -2.30466,1.6536 0,0 -3.9896363,1.6245 -3.9896363,1.6245 l 0,0 c 0.7040205,-0.6426 1.4528723,-1.2408 2.2714697,-1.7323 0.4858905,-0.2588 0.921229,-0.5782 1.3717954,-0.892 0.098487,-0.069 0.2080391,-0.1208 0.3045752,-0.1921 0.09315,-0.069 0.1752545,-0.1514 0.2628817,-0.2272 0.1321863,-0.159 0.2790269,-0.3061 0.402996,-0.4716 0.236755,-0.3161 0.3424913,-0.703 0.4237134,-1.0827 0.140766,-0.7392 0.3926666,-1.4835 0.9452229,-2.0187 2.22854,-1.331 3.876405,-2.6163 6.272901,-3.2368 0.889065,-0.1783 1.790634,-0.338 2.697363,-0.3808 0,0 -3.570221,2.5939 -3.570221,2.5939 z"
       inkscape:connector-curvature="0" />
    <path
       style="fill:#ffffff;fill-opacity:1;fill-rule:nonzero;stroke:none"
       id="path5451"
       d="m 42.791564,994.52899 c -0.711108,2.0018 -1.204222,4.07714 -1.640764,6.15371 -0.782336,3.7973 -1.201224,7.652 -1.623612,11.5015 -0.438545,3.4997 -0.871372,7.0012 -1.095092,10.5221 -0.110878,1.4052 -0.357819,2.794 -0.511751,4.1942 -0.04637,0.4138 -0.06004,0.8301 -0.09472,1.2449 0,0 -3.907917,1.9408 -3.907917,1.9408 l 0,0 c 0.05273,-0.4245 0.0599,-0.8526 0.125159,-1.2761 0.23471,-1.4444 0.591093,-2.8658 0.799917,-4.3149 0.404392,-3.5541 0.885805,-7.0979 1.331102,-10.6469 0.393738,-3.8227 0.779451,-7.6496 1.426035,-11.4398 0.08394,-0.4913 0.157827,-0.9845 0.251826,-1.4741 0.292733,-1.52447 0.700746,-3.02638 0.971524,-4.55482 0,0 3.968296,-1.85059 3.968296,-1.85059 z"
       inkscape:connector-curvature="0" />
    <path
       style="fill:#ffffff;fill-opacity:1;fill-rule:nonzero;stroke:none"
       id="path5455"
       d="m 41.618398,981.33556 c -1.071631,-0.0486 -2.145149,-0.0486 -3.217723,-0.0546 -0.702441,0.0117 -1.40851,-0.0415 -2.107595,0.0564 -0.565874,0.0793 -1.108785,0.27159 -1.652054,0.43968 -0.141035,0.0639 -0.28207,0.12776 -0.423105,0.19164 -0.137068,0.0552 -0.276449,0.10493 -0.411204,0.16554 -0.131187,0.059 -0.510458,0.26508 -0.385968,0.19301 6.052651,-3.50396 3.807279,-2.35322 2.644054,-1.38406 -0.785719,0.73098 -1.10913,1.70855 -1.316498,2.72992 -0.170098,1.1202 -0.174842,2.25721 -0.170203,3.38772 0.0075,0.93926 0.344861,1.77271 0.866381,2.53712 0.2389,0.29524 0.315429,0.43746 0.637849,0.64823 0.758266,0.49568 1.767067,0.52417 2.63389,0.61726 2.146856,0.14205 4.302516,0.16744 6.452922,0.1089 1.060809,-0.0686 2.152156,-0.0172 3.179652,-0.33888 0.462033,-0.14464 0.581762,-0.23534 0.996851,-0.46174 -5.904142,3.30479 -3.275356,2.27805 -2.480546,0.94022 0.319634,-0.538 0.436811,-1.12346 0.558548,-1.72747 0.13766,-0.88509 0.183176,-1.78075 -0.0032,-2.66269 -0.131563,-0.62265 -0.21892,-0.79133 -0.438386,-1.37947 -0.477694,-1.08332 -1.162009,-2.06517 -2.025608,-2.87389 -0.7296,-0.58069 -1.666171,-0.59737 -2.556609,-0.64256 -0.196187,0.004 -0.392374,0.008 -0.588561,0.012 0,0 3.442387,-2.50553 3.442387,-2.50553 l 0,0 c 0.205672,5.7e-4 0.411345,10e-4 0.617017,0.002 0.996546,0.062 1.994928,0.15836 2.749076,0.88919 0.851664,0.90327 1.565574,1.92538 2.048689,3.07421 0.171446,0.4735 0.359096,0.95445 0.480347,1.44446 0.228595,0.92383 0.206874,1.84688 0.08115,2.78381 -0.119083,0.83603 -0.259424,1.67334 -0.750069,2.38612 -0.978476,1.42148 -3.673128,2.4407 -4.48318,2.92994 -0.451111,0.18849 -0.544517,0.25082 -1.033688,0.35698 -1.017827,0.22088 -2.067407,0.14021 -3.099492,0.18523 -2.176051,0.0264 -4.355559,0.0237 -6.528038,-0.11715 -1.465439,-0.14621 -2.678372,-0.2098 -3.60198,-1.48981 -0.566206,-0.83532 -0.947484,-1.74776 -0.97853,-2.7706 0.01608,-1.15632 0.03097,-2.31411 0.163043,-3.46452 0.158311,-1.06811 0.429495,-2.1319 1.164458,-2.96117 1.555985,-1.67923 3.815706,-2.64445 5.955268,-3.42081 0.363204,-0.0977 0.669874,-0.18887 1.043565,-0.25211 0.904681,-0.15312 1.82087,-0.0974 2.73345,-0.10727 1.122666,-0.006 2.246072,-0.008 3.367911,-0.0546 0,0 -3.564297,2.58961 -3.564297,2.58961 z"
       inkscape:connector-curvature="0" />
    <path
       style="fill:#ffffff;fill-opacity:1;fill-rule:nonzero;stroke:none"
       id="path5467"
       d="m 65.731324,994.90728 c 0.271666,0.31636 0.359668,0.43738 0.729972,0.74483 0.230837,0.19165 0.47944,0.36085 0.72116,0.53858 1.10289,0.81092 2.233945,1.57738 3.36785,2.344 2.311579,1.60281 4.677164,3.14661 6.811535,4.98711 0.392513,0.3384 0.767725,0.6965 1.151588,1.0447 1.153049,1.0271 2.154542,2.2048 3.099106,3.4215 0,0 -3.576837,2.1159 -3.576837,2.1159 l 0,0 c -0.846165,-1.2429 -1.782149,-2.4225 -2.869305,-3.4667 -0.373238,-0.347 -0.73731,-0.7042 -1.119714,-1.0411 -2.106302,-1.8557 -4.453592,-3.409 -6.797596,-4.9425 -1.791307,-1.12231 -3.640623,-2.17851 -5.309526,-3.48005 0,0 3.791767,-2.26627 3.791767,-2.26627 z"
       inkscape:connector-curvature="0" />
    <path
       style="fill:#ffffff;fill-opacity:1;fill-rule:nonzero;stroke:none"
       id="path5473"
       d="m 43.633768,1000.1831 c 2.423785,0.08 4.833858,0.3552 7.247365,0.577 1.748071,0.1993 3.498087,0.3778 5.250688,0.5318 0,0 -3.351047,2.3796 -3.351047,2.3796 l 0,0 c -1.69518,-0.2218 -3.388305,-0.4606 -5.089055,-0.6375 -2.525567,-0.2219 -5.061686,-0.4831 -7.598556,-0.2785 0,0 3.540605,-2.5724 3.540605,-2.5724 z"
       inkscape:connector-curvature="0" />
    <path
       style="fill:#ffffff;fill-opacity:1;fill-rule:nonzero;stroke:none"
       id="path5475"
       d="m 44.095888,1000.7102 c 0.1114,0.027 0.226098,0.044 0.3342,0.082 0.703228,0.2498 1.375467,0.6355 2.033363,0.9798 1.080028,0.5653 0.961948,0.5064 2.075116,1.1076 2.226299,1.2663 4.556846,2.335 6.899148,3.3658 0.315128,0.1209 0.630256,0.2417 0.945384,0.3625 0,0 -3.422592,2.2904 -3.422592,2.2904 l 0,0 c -0.308466,-0.1324 -0.616933,-0.2647 -0.925399,-0.397 -2.310377,-1.0967 -4.615314,-2.2075 -6.874337,-3.4072 -1.093181,-0.5486 -1.068925,-0.5511 -2.152117,-1.0399 -0.779143,-0.3516 -1.601593,-0.7691 -2.477064,-0.7545 0,0 3.564298,-2.5897 3.564298,-2.5897 z"
       inkscape:connector-curvature="0" />
  </g>
</svg>
