<?xml version="1.0" encoding="UTF-8" standalone="no"?>
<!-- Created with Inkscape (http://www.inkscape.org/) -->

<svg
   xmlns:dc="http://purl.org/dc/elements/1.1/"
   xmlns:cc="http://creativecommons.org/ns#"
   xmlns:rdf="http://www.w3.org/1999/02/22-rdf-syntax-ns#"
   xmlns:svg="http://www.w3.org/2000/svg"
   xmlns="http://www.w3.org/2000/svg"
   xmlns:sodipodi="http://sodipodi.sourceforge.net/DTD/sodipodi-0.dtd"
   xmlns:inkscape="http://www.inkscape.org/namespaces/inkscape"
   width="86"
   height="86"
   id="svg3268"
   version="1.1"
   inkscape:version="0.48.5 r10040"
   sodipodi:docname="running.svg">
  <defs
     id="defs3270" />
  <sodipodi:namedview
     id="base"
     pagecolor="#000000"
     bordercolor="#666666"
     borderopacity="1.0"
     inkscape:pageopacity="0"
     inkscape:pageshadow="2"
     inkscape:zoom="5.6"
     inkscape:cx="67.447691"
     inkscape:cy="43.004767"
     inkscape:document-units="px"
     inkscape:current-layer="layer1"
     showgrid="false"
     inkscape:showpageshadow="false"
     inkscape:window-width="1278"
     inkscape:window-height="780"
     inkscape:window-x="0"
     inkscape:window-y="0"
     inkscape:window-maximized="1" />
  <metadata
     id="metadata3273">
    <rdf:RDF>
      <cc:Work
         rdf:about="">
        <dc:format>image/svg+xml</dc:format>
        <dc:type
           rdf:resource="http://purl.org/dc/dcmitype/StillImage" />
        <dc:title></dc:title>
      </cc:Work>
    </rdf:RDF>
  </metadata>
  <g
     inkscape:label="Layer 1"
     inkscape:groupmode="layer"
     id="layer1"
     transform="translate(0,-966.36218)">
    <path
       style="fill:#ffffff;fill-opacity:1;fill-rule:nonzero;stroke:none"
       id="path3586"
       d="m 40.888335,981.47038 c -0.688431,-0.10675 -1.387153,-0.12495 -2.082445,-0.14311 -0.69965,-0.0114 -1.39952,-0.0109 -2.099247,-0.008 -0.646565,0.002 -1.293127,-10e-4 -1.93968,9.1e-4 -0.725458,-0.0401 -1.300419,0.0501 -1.987722,0.2721 -0.628618,0.34734 -1.30977,0.56511 -1.929888,0.92848 6.902615,-3.66738 3.543001,-2.39128 2.51181,-1.22633 -0.07338,0.0829 -0.135827,0.17487 -0.20374,0.2623 -0.411029,0.61469 -0.917313,1.15877 -1.318044,1.77956 -0.376355,0.5883 -0.583253,1.25671 -0.868515,1.8892 -0.275932,0.55009 -0.372638,1.15004 -0.42913,1.75553 -0.03769,0.61851 -0.03885,1.23905 -0.03392,1.85853 0.01057,0.51136 -0.0069,1.02476 0.03014,1.53518 0.06717,0.51587 0.314486,0.99098 0.542096,1.45236 0.308044,0.69137 0.749187,1.30066 1.218678,1.88939 0.508277,0.58031 1.120148,1.04909 1.766101,1.46362 0.723456,0.3683 1.529067,0.47161 2.327642,0.53111 0.774875,0.0317 1.551055,0.0377 2.326545,0.0349 0.788235,-0.004 1.576394,-0.0157 2.364646,-0.0149 0.471589,-0.0344 0.952086,0.0386 1.422869,-10e-4 0.02505,-0.002 0.700536,-0.12478 0.717676,-0.12787 0.440747,-0.10281 0.914358,-0.14035 1.323379,-0.34753 0.07581,-0.0384 0.528716,-0.32171 0.594196,-0.36234 -6.231802,3.58792 -3.542816,2.24772 -2.37821,1.13811 0.221914,-0.21143 0.321037,-0.33403 0.524682,-0.56481 0.543348,-0.56612 0.915459,-1.2492 1.265445,-1.94327 0.379811,-0.65938 0.496348,-1.39929 0.641845,-2.13226 0.200039,-0.80815 0.305794,-1.6306 0.350298,-2.46066 0.04079,-0.87006 0.03293,-1.7414 0.02879,-2.61213 -0.01203,-0.72792 0.01018,-1.45658 -0.02339,-2.18393 -0.06419,-0.79672 -0.41909,-1.47812 -0.954032,-2.05594 -0.469993,-0.48607 -0.986948,-0.88929 -1.626002,-1.11666 -0.605797,-0.10768 -1.184167,-0.31363 -1.788505,-0.43041 -0.376568,-0.052 -0.183642,-0.0298 -0.578912,-0.0654 0,0 3.551864,-2.52176 3.551864,-2.52176 l 0,0 c 0.422491,0.0541 0.217941,0.0206 0.614003,0.0981 0.610259,0.1509 1.218774,0.31664 1.819134,0.50088 0.662694,0.30605 1.225261,0.75281 1.713592,1.29621 0.602068,0.71162 0.948097,1.37129 1.105127,2.30049 0.05478,0.73618 0.01672,1.47539 0.02477,2.21313 -0.0054,0.88149 -0.01559,1.76301 -0.04436,2.6441 -0.04009,0.84286 -0.05985,1.68954 -0.293985,2.5075 -0.165646,0.75557 -0.21733,1.54241 -0.596139,2.23734 -0.361405,0.7056 -0.670286,1.4504 -1.223308,2.03615 -0.0848,0.10301 -0.419565,0.51274 -0.510004,0.61025 -1.34281,1.44784 -3.485078,2.23278 -4.997043,3.23501 -0.638561,0.33587 -1.29563,0.4928 -2.010142,0.58314 -0.724744,0.10013 -1.452528,0.0806 -2.182849,0.0764 -0.780678,0.004 -1.561342,-0.002 -2.342029,-10e-4 -0.791757,2.6e-4 -1.585908,0.0294 -2.374907,-0.0549 -0.844962,-0.10758 -1.687245,-0.28105 -2.438103,-0.7031 -0.680772,-0.4399 -1.292258,-0.97717 -1.823365,-1.59067 -0.494664,-0.60573 -0.972094,-1.2298 -1.289661,-1.94995 -0.266519,-0.49745 -0.558704,-1.01527 -0.660087,-1.57413 -0.06626,-0.52601 0.0011,-1.05935 -0.02165,-1.58838 0.0021,-0.62965 -0.009,-1.25953 0.01955,-1.88882 0.03693,-0.64659 0.109992,-1.29837 0.367633,-1.89962 0.09585,-0.20132 0.202828,-0.39749 0.291244,-0.60218 0.190627,-0.44132 0.288003,-0.92362 0.56785,-1.32504 0.345285,-0.66892 0.879399,-1.19197 1.296183,-1.81563 0.12055,-0.18478 0.21815,-0.38646 0.360185,-0.55527 0.06532,-0.0776 0.149409,-0.13732 0.225569,-0.20434 1.325967,-1.16695 2.89976,-1.88162 4.491584,-2.73853 0.640463,-0.31042 1.300638,-0.58862 1.966097,-0.83875 0.684201,-0.16983 1.373438,-0.22019 2.078219,-0.18989 0.646913,10e-4 1.293831,-0.003 1.940754,-6.8e-4 0.695178,0.004 1.390329,0.009 2.085179,0.0342 0.724245,0.0256 1.447844,0.0628 2.169493,0.13113 0,0 -3.595853,2.54483 -3.595853,2.54483 z"
       inkscape:connector-curvature="0" />
    <path
       style="fill:#ffffff;fill-opacity:1;fill-rule:nonzero;stroke:none"
       id="path3596"
       d="m 38.020308,1006.3276 c 3.555616,-0.3509 7.078812,-0.9516 10.589037,-1.6066 3.313848,-0.651 6.587385,-1.4994 9.7931,-2.5623 1.634727,-0.5419 2.186484,-0.768 3.74772,-1.359 1.811063,-0.7633 0.959892,-0.3833 2.558156,-1.12936 0,0 -3.176134,2.51846 -3.176134,2.51846 l 0,0 c -1.503023,0.6425 -0.700351,0.3131 -2.411771,0.9791 -4.368592,1.546 -8.821952,2.8458 -13.377608,3.7199 -2.30905,0.4539 -2.602599,0.5239 -4.869595,0.9229 -2.099696,0.3695 -4.212431,0.6738 -6.296118,1.1294 0,0 3.443213,-2.6125 3.443213,-2.6125 z"
       inkscape:connector-curvature="0" />
    <path
       style="fill:#ffffff;fill-opacity:1;fill-rule:nonzero;stroke:none"
       id="path3598"
       d="m 39.20628,1009.2946 c 2.773106,0.1415 5.551639,0.1549 8.327759,0.1822 4.870074,0.067 9.740712,0.075 14.610591,-0.01 0.576932,-0.013 1.153864,-0.025 1.730796,-0.038 0,0 -3.146171,2.2859 -3.146171,2.2859 l 0,0 c -0.54223,-0.013 -1.084459,-0.025 -1.626689,-0.038 -4.864901,-0.084 -9.730623,-0.069 -14.595761,-0.01 -2.943366,0.028 -5.888506,0.047 -8.829284,0.1822 0,0 3.528759,-2.5638 3.528759,-2.5638 z"
       inkscape:connector-curvature="0" />
    <path
       style="fill:#ffffff;fill-opacity:1;fill-rule:nonzero;stroke:none"
       id="path3606"
       d="m 37.462956,996.28048 c -0.466,1.6335 -0.920481,3.26994 -1.392288,4.90212 -0.653939,2.2419 -1.397554,4.4553 -2.146208,6.6669 -0.811888,2.3344 -1.548028,4.6937 -2.290899,7.0507 -0.846727,2.5239 -1.650137,5.0608 -2.399942,7.6151 -0.724313,2.5721 -1.515217,5.1261 -2.178748,7.7148 -0.625552,2.2251 -1.112143,4.4837 -1.620867,6.7371 -0.240066,1.274 -0.527157,2.5323 -0.863743,3.7835 -0.126892,0.5303 -0.07017,0.269 -0.171398,0.7837 0,0 -3.892973,1.8916 -3.892973,1.8916 l 0,0 c 0.101841,-0.545 0.04288,-0.2691 0.178448,-0.8275 0.150321,-0.5147 0.334574,-1.0211 0.477196,-1.5377 0.21091,-0.764 0.335202,-1.5501 0.56268,-2.31 0.552696,-2.2618 1.076046,-4.5307 1.684565,-6.7784 0.686012,-2.5952 1.508746,-5.1527 2.21144,-7.7436 0.743621,-2.5529 1.521558,-5.0951 2.378821,-7.6125 0.720376,-2.3558 1.449339,-4.7089 2.244691,-7.0408 0.75062,-2.2017 1.496125,-4.4048 2.144339,-6.6393 0.409895,-1.5719 0.851463,-3.13533 1.134962,-4.73668 0,0 3.939924,-1.91904 3.939924,-1.91904 z"
       inkscape:connector-curvature="0" />
    <path
       style="fill:#ffffff;fill-opacity:1;fill-rule:nonzero;stroke:none"
       id="path3608"
       d="m 30.759062,1017.8889 c 0.772481,1.2587 1.992615,2.1209 3.162674,2.9769 2.075561,1.4857 4.303129,2.748 6.524756,3.9993 4.211258,2.3496 8.526192,4.5013 12.85403,6.6255 0.770444,0.371 1.540327,0.7432 2.311332,1.1131 1.807008,0.8669 2.640324,1.2793 4.457808,2.0713 1.761161,0.7675 3.546411,1.4653 5.349122,2.1273 0,0 -3.254199,2.1799 -3.254199,2.1799 l 0,0 c -3.994689,-1.7413 -7.946873,-3.575 -11.842636,-5.5288 -4.373855,-2.149 -8.747278,-4.2989 -13.108526,-6.4734 -1.343532,-0.6798 -2.704187,-1.3453 -4.006049,-2.1042 -0.565134,-0.3294 -1.295278,-0.819 -1.836825,-1.1827 -0.306931,-0.2061 -0.61176,-0.4153 -0.91764,-0.623 -1.256811,-0.8847 -2.530078,-1.7809 -3.498368,-2.993 0,0 3.804521,-2.1882 3.804521,-2.1882 z"
       inkscape:connector-curvature="0" />
  </g>
</svg>
