<?xml version="1.0" encoding="UTF-8" standalone="no"?>
<!-- Created with Inkscape (http://www.inkscape.org/) -->

<svg
   xmlns:dc="http://purl.org/dc/elements/1.1/"
   xmlns:cc="http://creativecommons.org/ns#"
   xmlns:rdf="http://www.w3.org/1999/02/22-rdf-syntax-ns#"
   xmlns:svg="http://www.w3.org/2000/svg"
   xmlns="http://www.w3.org/2000/svg"
   xmlns:sodipodi="http://sodipodi.sourceforge.net/DTD/sodipodi-0.dtd"
   xmlns:inkscape="http://www.inkscape.org/namespaces/inkscape"
   width="86"
   height="86"
   id="svg3268"
   version="1.1"
   inkscape:version="0.48.5 r10040"
   sodipodi:docname="skating.svg">
  <defs
     id="defs3270" />
  <sodipodi:namedview
     id="base"
     pagecolor="#000000"
     bordercolor="#666666"
     borderopacity="1.0"
     inkscape:pageopacity="0"
     inkscape:pageshadow="2"
     inkscape:zoom="5.6"
     inkscape:cx="67.447691"
     inkscape:cy="43.004767"
     inkscape:document-units="px"
     inkscape:current-layer="layer1"
     showgrid="false"
     inkscape:showpageshadow="false"
     inkscape:window-width="1278"
     inkscape:window-height="780"
     inkscape:window-x="0"
     inkscape:window-y="0"
     inkscape:window-maximized="1" />
  <metadata
     id="metadata3273">
    <rdf:RDF>
      <cc:Work
         rdf:about="">
        <dc:format>image/svg+xml</dc:format>
        <dc:type
           rdf:resource="http://purl.org/dc/dcmitype/StillImage" />
        <dc:title />
      </cc:Work>
    </rdf:RDF>
  </metadata>
  <g
     inkscape:label="Layer 1"
     inkscape:groupmode="layer"
     id="layer1"
     transform="translate(0,-966.36218)">
    <path
       style="fill:#ffffff;fill-opacity:1;fill-rule:nonzero;stroke:none"
       id="path3808"
       d="m 30.506061,1036.6009 c 0.09738,-0.015 0.194769,-0.031 0.292153,-0.046 0.176657,-0.011 0.35464,-0.01 0.52997,-0.032 0.543606,-0.075 1.077964,-0.2075 1.62043,-0.2902 0.730815,-0.1115 1.463683,-0.2091 2.194802,-0.3185 1.721523,-0.3174 3.444716,-0.6343 5.187297,-0.811 1.120715,-0.092 2.24559,-0.072 3.36881,-0.075 0.509992,0.037 1.011812,-0.057 1.513524,-0.13 0,0 -3.449767,2.5716 -3.449767,2.5716 l 0,0 c -0.503835,0.051 -1.008428,0.094 -1.515681,0.067 -1.113318,6e-4 -2.228237,0.013 -3.338498,0.1027 -1.682017,0.1547 -3.349653,0.4167 -5.012558,0.7114 -0.326769,0.054 -1.887634,0.3082 -2.252378,0.3753 -0.900589,0.1657 -1.79262,0.3969 -2.708325,0.4685 0,0 3.570221,-2.594 3.570221,-2.594 z"
       inkscape:connector-curvature="0" />
    <path
       style="fill:#ffffff;fill-opacity:1;fill-rule:nonzero;stroke:none"
       id="path3810"
       d="m 32.175054,1039.3364 c 0.5063,0.3633 1.074736,0.6212 1.599264,0.9569 0.343511,0.2796 0.717294,0.5158 1.076943,0.773 0,0 -3.667769,2.3368 -3.667769,2.3368 l 0,0 c -0.360786,-0.247 -0.715951,-0.5017 -1.075162,-0.7509 -0.546733,-0.344 -1.129159,-0.6254 -1.669919,-0.9792 0,0 3.736643,-2.3366 3.736643,-2.3366 z"
       inkscape:connector-curvature="0" />
    <path
       style="fill:#ffffff;fill-opacity:1;fill-rule:nonzero;stroke:none"
       id="path3814"
       d="m 41.084288,1038.0585 c 0.384321,0.284 0.782517,0.553 1.192762,0.7985 0.281273,0.1663 0.536783,0.3695 0.787905,0.5772 0,0 -3.711848,2.3293 -3.711848,2.3293 l 0,0 c -0.243502,-0.1914 -0.493017,-0.3744 -0.758557,-0.5346 -0.416674,-0.2741 -0.836185,-0.5438 -1.250949,-0.8208 0,0 3.740687,-2.3496 3.740687,-2.3496 z"
       inkscape:connector-curvature="0" />
    <path
       style="fill:#ffffff;fill-opacity:1;fill-rule:nonzero;stroke:none"
       id="path3828"
       d="m 41.023376,1007.6702 c 1.790576,0.1146 3.587433,0.1059 5.381019,0.1154 2.31111,0.043 4.6125,0.2433 6.895791,0.5962 1.046405,0.1842 2.118452,0.3664 3.114189,0.7508 0,0 -3.609257,2.4256 -3.609257,2.4256 l 0,0 c -0.942872,-0.3584 -1.932742,-0.5907 -2.92105,-0.7829 -2.221556,-0.429 -4.475881,-0.6031 -6.73806,-0.6223 -1.899657,0.01 -3.801644,0.01 -5.698776,0.1154 0,0 3.576144,-2.5982 3.576144,-2.5982 z"
       inkscape:connector-curvature="0" />
    <path
       style="fill:#ffffff;fill-opacity:1;fill-rule:nonzero;stroke:none"
       id="path3832"
       d="m 42.422776,1010.7595 c 1.772037,0.8266 3.669145,1.3568 5.552838,1.863 1.960407,0.5576 3.941953,1.0355 5.908541,1.5699 0.599807,0.1274 1.168426,0.3471 1.734842,0.5749 0,0 -3.623967,2.4147 -3.623967,2.4147 l 0,0 c -0.517347,-0.2372 -1.045231,-0.4473 -1.591173,-0.611 -1.900391,-0.6124 -3.836246,-1.1053 -5.752035,-1.6662 -1.974137,-0.5456 -3.960838,-1.065 -5.890387,-1.755 0,0 3.661341,-2.3903 3.661341,-2.3903 z"
       inkscape:connector-curvature="0" />
    <path
       style="fill:#ffffff;fill-opacity:1;fill-rule:nonzero;stroke:none"
       id="path3836"
       d="m 36.817427,1020.6418 c 0.962988,1.1597 2.168086,2.0498 3.34924,2.9691 1.436422,1.0914 3.035709,1.9242 4.62457,2.7641 1.175504,0.7681 2.384552,1.4772 3.627993,2.1301 0.624924,0.3197 0.324332,0.1536 0.903086,0.4961 0,0 -3.610539,2.3352 -3.610539,2.3352 l 0,0 c -0.548287,-0.3365 -0.261745,-0.1676 -0.860904,-0.5045 -0.566693,-0.3296 -1.142312,-0.6465 -1.704825,-0.9829 -1.003585,-0.6002 -0.207516,-0.1497 -1.209175,-0.7848 -0.216086,-0.137 -0.438947,-0.263 -0.658421,-0.3945 -1.574962,-0.875 -3.159628,-1.7427 -4.572795,-2.8724 -0.564431,-0.4173 -1.143516,-0.8149 -1.699299,-1.2436 -0.676313,-0.5217 -1.297514,-1.1135 -1.967326,-1.6434 0,0 3.778395,-2.2685 3.778395,-2.2685 z"
       inkscape:connector-curvature="0" />
    <path
       style="fill:#ffffff;fill-opacity:1;fill-rule:nonzero;stroke:none"
       id="path3878"
       d="m 52.68347,1031.873 c 0.337074,0.1609 0.702541,0.2556 1.032537,0.4336 0.190726,0.1029 0.368924,0.2275 0.554789,0.3389 0.315763,0.1848 0.662129,0.2718 1.017414,0.3383 0,0 -3.597283,2.4865 -3.597283,2.4865 l 0,0 c -0.378462,-0.1093 -0.744975,-0.2442 -1.080181,-0.4563 -0.488717,-0.2926 -1.009827,-0.5187 -1.566601,-0.6486 0,0 3.639325,-2.4924 3.639325,-2.4924 z"
       inkscape:connector-curvature="0" />
    <path
       style="fill:#ffffff;fill-opacity:1;fill-rule:nonzero;stroke:none"
       id="path3880"
       d="m 59.613204,1027.3153 c 0.633325,0.094 1.255954,0.2581 1.866775,0.4519 0.416557,0.1772 0.841815,0.3349 1.275048,0.4658 0,0 -3.617341,2.4586 -3.617341,2.4586 l 0,0 c -0.422881,-0.1462 -0.838567,-0.3094 -1.256322,-0.469 -0.598449,-0.1739 -1.208129,-0.3507 -1.838381,-0.3134 0,0 3.570221,-2.5939 3.570221,-2.5939 z"
       inkscape:connector-curvature="0" />
    <path
       style="fill:#ffffff;fill-opacity:1;fill-rule:nonzero;stroke:none"
       id="path3886"
       d="m 41.06338,30.752564 c -0.249803,1.818324 -0.764331,3.58206 -1.225228,5.354269 -0.554873,2.088948 -0.963927,4.212295 -1.476415,6.311298 -0.09409,0.385386 -0.857308,3.348757 -0.950004,3.709274 -0.601832,2.475649 -1.237382,4.944896 -1.765731,7.437752 -0.436681,2.160185 -0.218122,1.106894 -0.65417,3.160186 -0.400882,2.012423 -0.822442,4.018929 -1.26607,6.022182 -0.290191,1.099551 -0.485393,2.219707 -0.745448,3.325951 -0.171032,0.74719 -0.398352,1.478065 -0.5726,2.224819 -0.07801,0.350875 -0.238937,0.665768 -0.405966,0.97997 0,0 -3.976358,1.757099 -3.976358,1.757099 l 0,0 c 0.191996,-0.268719 0.355269,-0.543607 0.466419,-0.857395 0.08981,-0.359177 0.158733,-0.725787 0.262239,-1.081314 0.173488,-0.595907 0.07134,-0.136354 0.244081,-0.751075 0.03806,-0.135448 0.06694,-0.273312 0.100409,-0.409968 0.283898,-1.120892 0.531189,-2.24996 0.836721,-3.365722 0.210285,-0.84651 0.4624,-1.681819 0.66181,-2.531035 0.282338,-1.202379 0.532865,-2.412644 0.850883,-3.606857 0.798351,-3.273516 -0.06109,0.30872 0.733213,-3.198519 0.565373,-2.496394 1.229274,-4.969901 1.801732,-7.464728 0.131498,-0.528172 0.780303,-3.124275 0.908649,-3.678263 0.480741,-2.075035 0.824606,-4.178918 1.328431,-6.248892 0.187106,-0.804402 0.400179,-1.602889 0.572064,-2.41068 0.192909,-0.906592 0.15532,-0.895687 0.258308,-1.74867 0.104089,-0.862109 0.05696,-0.269364 0.100557,-0.936177 0,0 3.912474,-1.993505 3.912474,-1.993505 z"
       inkscape:connector-curvature="0"
       transform="translate(0,966.36218)" />
    <path
       style="fill:#ffffff;fill-opacity:1;fill-rule:nonzero;stroke:none"
       id="path3910"
       d="m 49.251392,981.60816 c -1.110914,-0.44026 -2.326864,-0.51345 -3.506513,-0.60095 -1.896412,-0.10508 -3.796926,-0.12339 -5.695833,-0.11064 -0.973483,0.0821 -1.971016,0.11108 -2.920139,0.36864 -0.129237,0.0351 -1.056589,0.36157 -1.180828,0.40497 -0.181134,0.083 -0.365893,0.1585 -0.543404,0.24898 -0.168741,0.086 -0.659635,0.37261 -0.4944,0.28004 1.063573,-0.59586 2.106957,-1.22909 3.189418,-1.7899 0.153278,-0.0794 -0.263026,0.22375 -0.390719,0.33992 -0.360471,0.32793 -0.448262,0.42746 -0.78334,0.77024 -0.667291,0.68087 -1.189971,1.47185 -1.519925,2.36438 -0.336496,0.98648 -0.49455,2.01306 -0.585588,3.04713 -0.06659,1.20087 -0.09136,2.40363 -0.0555,3.60578 0.08303,1.16427 0.454369,2.2455 1.060631,3.23471 0.552446,0.86398 1.302422,1.54282 2.155963,2.09833 1.048541,0.66286 2.281846,0.79499 3.48875,0.90206 1.640973,0.0929 3.28539,0.122 4.927848,0.0608 0.733003,-0.0201 1.425713,-0.22535 2.119912,-0.43504 0.629613,-0.19018 1.130087,-0.36731 1.724523,-0.65308 1.344275,-0.71334 2.260018,-1.20623 -2.676455,1.55228 -0.145642,0.0814 0.281221,-0.17979 0.417744,-0.27569 0.409729,-0.28782 0.780346,-0.61655 1.15344,-0.94908 1.024192,-0.89181 1.370224,-1.91363 1.634035,-3.2034 0.241082,-1.54551 0.219859,-3.11554 0.241565,-4.6752 -0.0058,-0.28442 -0.0097,-0.5689 -0.01729,-0.85328 -0.02093,-0.77934 -0.01479,-0.93825 -0.119516,-1.70625 -0.101195,-0.74214 -0.27798,-1.46702 -0.45832,-2.19271 -0.23534,-0.72611 -0.48314,-1.4801 -1.025958,-2.04191 -0.146084,-0.15119 -0.549823,-0.47011 -0.709849,-0.59984 -0.331649,-0.25637 -0.718056,-0.41239 -1.098851,-0.57713 0,0 3.604898,-2.38813 3.604898,-2.38813 l 0,0 c 0.399473,0.19547 0.796697,0.39425 1.138412,0.6851 0.214731,0.1821 0.574182,0.47357 0.756838,0.68477 0.544716,0.62984 0.794924,1.45807 1.037716,2.23532 0.119242,0.48086 0.254382,0.99049 0.339855,1.47887 0.195555,1.11739 0.259417,2.24866 0.272047,3.38127 0.01197,1.57339 0.009,3.15147 -0.158,4.71788 -0.208682,1.25759 -0.517799,2.51125 -1.463589,3.43251 -0.246464,0.22493 -0.484265,0.45957 -0.737347,0.67704 -1.613597,1.38648 -3.56149,2.33372 -5.465867,3.26029 -1.240491,0.50849 -2.538537,0.87319 -3.887397,0.91282 -1.66048,0.0251 -3.326268,0.0253 -4.983711,-0.0814 -1.283962,-0.12121 -2.569372,-0.3222 -3.6752,-1.03645 -0.878624,-0.62517 -1.658211,-1.34535 -2.238105,-2.26551 -0.652368,-1.11248 -0.995622,-2.14822 -1.142912,-3.43545 -0.04692,-1.21186 -0.02454,-2.42769 0.02274,-3.63934 0.0571,-1.06065 0.19259,-2.10271 0.512317,-3.12063 0.04045,-0.1588 0.06835,-0.32135 0.12136,-0.47641 0.266092,-0.77835 0.820186,-1.45812 1.339861,-2.07661 0.782169,-0.85557 -0.05458,0.0408 0.773615,-0.78854 0.129788,-0.12996 0.224069,-0.30136 0.379065,-0.39992 1.666174,-1.05942 3.317531,-2.21112 5.172549,-2.91703 0.471317,-0.15316 0.720109,-0.24805 1.204359,-0.35024 0.951013,-0.20068 1.926648,-0.22866 2.894628,-0.24963 1.916838,0.0256 3.835282,0.004 5.750303,0.10689 1.250898,0.0886 2.494792,0.22125 3.712902,0.53237 0,0 -3.612732,2.50597 -3.612732,2.50597 z"
       inkscape:connector-curvature="0" />
    <path
       style="fill:#ffffff;fill-opacity:1;fill-rule:nonzero;stroke:none"
       id="path5073"
       d="m 45.288873,1034.1517 c 0.06515,-0.064 0.125506,-0.1329 0.195449,-0.1914 0.128269,-0.1073 0.480879,-0.3453 0.608411,-0.4408 0.39685,-0.2973 0.771621,-0.6242 1.152656,-0.9411 0.760892,-0.6302 1.583414,-1.1842 2.402706,-1.7354 2.498226,-1.6634 5.050655,-3.2907 7.800395,-4.5023 1.114657,-0.3848 2.172596,-0.9074 3.262952,-1.3522 0.585922,-0.2608 0.305135,-0.1269 0.843565,-0.3991 0,0 -4.729995,3.7642 -4.729995,3.7642 l 0,0 c -0.526743,0.2276 -0.253992,0.1122 -0.818604,0.3454 -1.077033,0.4578 -2.157865,0.9064 -3.23484,1.3639 -1.893001,0.9454 -4.775574,2.7196 3.675346,-2.1871 0.136669,-0.079 -0.279035,0.1494 -0.410981,0.2364 -0.132518,0.087 -0.251943,0.1932 -0.380949,0.2856 -0.125548,0.09 -0.255021,0.1744 -0.382532,0.2616 -0.855841,0.5039 -1.648747,1.1078 -2.468458,1.6674 -0.129518,0.1138 -0.259036,0.2276 -0.388553,0.3414 -0.121245,0.101 -0.244739,0.1993 -0.363733,0.303 -0.336012,0.2926 -0.645635,0.6235 -1.055549,0.8164 0,0 -5.707286,2.3641 -5.707286,2.3641 z"
       inkscape:connector-curvature="0" />
  </g>
</svg>
