<?xml version="1.0" encoding="UTF-8" standalone="no"?>
<!-- Created with Inkscape (http://www.inkscape.org/) -->

<svg
   xmlns:dc="http://purl.org/dc/elements/1.1/"
   xmlns:cc="http://creativecommons.org/ns#"
   xmlns:rdf="http://www.w3.org/1999/02/22-rdf-syntax-ns#"
   xmlns:svg="http://www.w3.org/2000/svg"
   xmlns="http://www.w3.org/2000/svg"
   xmlns:sodipodi="http://sodipodi.sourceforge.net/DTD/sodipodi-0.dtd"
   xmlns:inkscape="http://www.inkscape.org/namespaces/inkscape"
   width="86"
   height="86"
   id="svg3268"
   version="1.1"
   inkscape:version="0.48.5 r10040"
   sodipodi:docname="skiing.svg">
  <defs
     id="defs3270" />
  <sodipodi:namedview
     id="base"
     pagecolor="#000000"
     bordercolor="#666666"
     borderopacity="1.0"
     inkscape:pageopacity="1"
     inkscape:pageshadow="2"
     inkscape:zoom="5.6"
     inkscape:cx="67.447691"
     inkscape:cy="43.004767"
     inkscape:document-units="px"
     inkscape:current-layer="layer1"
     showgrid="false"
     inkscape:showpageshadow="false"
     inkscape:window-width="1278"
     inkscape:window-height="780"
     inkscape:window-x="0"
     inkscape:window-y="0"
     inkscape:window-maximized="1" />
  <metadata
     id="metadata3273">
    <rdf:RDF>
      <cc:Work
         rdf:about="">
        <dc:format>image/svg+xml</dc:format>
        <dc:type
           rdf:resource="http://purl.org/dc/dcmitype/StillImage" />
        <dc:title />
      </cc:Work>
    </rdf:RDF>
  </metadata>
  <g
     inkscape:label="Layer 1"
     inkscape:groupmode="layer"
     id="layer1"
     transform="translate(0,-966.36218)">
    <path
       style="fill:#ffffff;fill-opacity:1;fill-rule:nonzero;stroke:none"
       id="path5140"
       d="m 36.430462,982.78071 c -0.784511,-0.2183 -1.608322,-0.19659 -2.408595,-0.32283 -0.574837,-0.0663 -1.149068,-0.23496 -1.730486,-0.24636 -0.165372,-0.003 -0.582192,0.0522 -0.746165,0.0717 -0.471627,0.0881 -0.960142,0.0731 -1.427614,0.18517 -0.295099,0.0707 -0.426944,0.13334 -0.710031,0.24357 -1.205835,0.58545 -0.928317,0.46061 2.232,-1.30036 0.133243,-0.0742 -0.260608,0.15889 -0.386221,0.24542 -0.390838,0.26923 -0.739862,0.59033 -1.094849,0.9036 -0.367847,0.35542 -0.764945,0.6834 -1.095807,1.07574 -0.277158,0.32867 -0.494424,0.70392 -0.723146,1.06617 -0.423434,0.61947 -0.676549,1.24087 -0.806884,1.97638 -0.102167,0.76462 -0.100561,1.53773 -0.10216,2.30762 -0.0014,0.7543 0.0041,1.50857 0.0051,2.26288 -0.0088,0.85706 0.306142,1.36773 0.862663,1.98228 0.559595,0.45125 1.171052,0.87925 1.846662,1.13923 0.173938,0.0669 0.354308,0.11578 0.531462,0.17366 1.538178,0.39382 3.146912,0.38526 4.724699,0.41399 1.529191,0.0232 3.058299,-0.006 4.58735,-0.0228 0.590595,-0.0595 1.21074,0.0738 1.793523,-0.0731 0.3145,-0.0792 0.510258,-0.20684 0.7938,-0.35835 -4.788794,2.72057 -2.620678,1.81498 -1.933244,0.76706 0.33261,-0.50704 0.475707,-1.05845 0.621713,-1.63826 0.21366,-1.15865 0.282486,-2.34237 0.22689,-3.51806 -0.142754,-1.25182 -0.50533,-2.49795 -1.040779,-3.63861 -0.403134,-0.64807 -0.904094,-1.2985 -1.575294,-1.691 -0.121254,-0.0709 -0.252952,-0.12221 -0.379427,-0.18332 -0.725752,-0.46811 -1.569879,-0.64033 -2.373294,-0.91756 -0.398013,-0.18232 -0.800394,-0.35464 -1.200103,-0.53317 0,0 2.878611,-1.91182 2.878611,-1.91182 l 0,0 c 0.389376,0.17443 0.777274,0.35302 1.175986,0.50555 0.829305,0.255 1.657778,0.50856 2.404386,0.96603 0.135127,0.0758 0.275975,0.1422 0.405381,0.2274 0.694862,0.45749 1.233877,1.14462 1.636739,1.86061 0.25753,0.5919 0.45163,1.18121 0.637269,1.79922 0.121902,0.40583 0.287416,0.90604 0.370264,1.32384 0.04106,0.20704 0.05801,0.41814 0.08701,0.62721 0.09,1.20433 0.0042,2.41949 -0.197119,3.60987 -0.566877,2.90088 -1.448338,2.81294 -4.442723,4.49057 -0.385386,0.155 -0.458277,0.21088 -0.870193,0.27217 -0.588273,0.0875 -1.191446,-0.006 -1.782191,0.0222 -1.501603,-0.008 -3.003157,-0.0281 -4.504652,-0.0465 -1.624755,-0.0339 -3.294627,0.0106 -4.870135,-0.43817 -0.919109,-0.32207 -1.802092,-0.75323 -2.510892,-1.43666 -0.562673,-0.63031 -0.999081,-1.32265 -0.993644,-2.19858 -0.0025,-0.75457 -0.004,-1.50911 -0.0073,-2.26367 0.0025,-0.78612 0.0045,-1.57401 0.08538,-2.35684 0.03146,-0.24387 0.06364,-0.55133 0.12373,-0.79145 0.119418,-0.47717 0.375232,-0.90078 0.626969,-1.31715 0.238879,-0.37314 0.456313,-0.77181 0.723131,-1.12586 0.303218,-0.40235 0.345443,-0.39639 0.707966,-0.74603 0.124966,-0.12053 0.24673,-0.24433 0.370095,-0.3665 0.352569,-0.31567 0.692532,-0.65405 1.067742,-0.94331 1.243911,-0.95895 2.639055,-1.74903 4.097466,-2.33156 0.714269,-0.22118 1.447681,-0.29664 2.190925,-0.36188 0.846002,-0.0506 1.667893,0.11018 2.499143,0.25556 0.836488,0.10207 1.688262,0.11168 2.510337,0.31109 0,0 -2.911461,1.99393 -2.911461,1.99393 z"
       inkscape:connector-curvature="0" />
    <path
       style="fill:#ffffff;fill-opacity:1;fill-rule:nonzero;stroke:none"
       id="path5142"
       d="m 34.011922,995.57297 c -0.436719,1.16397 -0.864122,2.33351 -1.27987,3.50609 -0.551944,1.49774 -1.119066,2.98904 -1.643105,4.49684 -0.563898,1.4551 -1.143453,2.9017 -1.641221,4.3812 -0.523583,1.576 -0.953523,3.1799 -1.414342,4.7746 -0.412671,1.5019 -0.771637,3.019 -1.24784,4.5024 -0.599952,1.508 -1.110234,3.0465 -1.636576,4.5807 -0.490653,1.3801 -0.841673,2.8019 -1.266834,4.2026 -0.339298,1.1262 -0.49293,2.292 -0.802238,3.4249 -0.282811,0.7464 -0.409681,1.535 -0.620933,2.2998 -0.112672,0.322 -0.218859,0.6454 -0.315696,0.9724 0,0 -3.141278,1.4945 -3.141278,1.4945 l 0,0 c 0.08742,-0.3341 0.180512,-0.6661 0.316701,-0.9846 0.122146,-0.3473 0.170529,-0.6898 0.260168,-1.0461 0.08273,-0.3288 0.140179,-0.4835 0.247484,-0.8094 0.04996,-0.1516 0.100002,-0.3033 0.150004,-0.455 0.08745,-0.2797 0.229881,-0.7173 0.293982,-0.9989 0.185551,-0.8155 0.293136,-1.6511 0.548631,-2.451 0.139143,-0.4406 0.293379,-0.8765 0.425123,-1.3194 0.289275,-0.9724 0.476547,-1.9769 0.880327,-2.9137 0.532225,-1.5211 0.997661,-3.065 1.604732,-4.5596 0.49684,-1.4828 0.895265,-2.9961 1.289692,-4.5088 0.459805,-1.5955 0.877388,-3.203 1.398323,-4.7804 0.475715,-1.4873 1.044705,-2.9393 1.634696,-4.3849 0.525873,-1.5052 1.080151,-2.9993 1.635144,-4.4941 0.399941,-1.14776 0.844832,-2.28426 1.1302,-3.46722 0,0 3.194726,-1.46291 3.194726,-1.46291 z"
       inkscape:connector-curvature="0" />
    <path
       style="fill:#ffffff;fill-opacity:1;fill-rule:nonzero;stroke:none"
       id="path5144"
       d="m 19.047535,1034.8145 c 2.954673,-0.4753 5.939751,-0.733 8.91672,-1.0261 0.883883,-0.092 1.767869,-0.1831 2.651649,-0.2761 2.54138,-0.2675 3.342227,-0.3712 5.922754,-0.588 3.138852,-0.2639 6.280878,-0.4314 9.426721,-0.5815 2.528079,-0.1386 5.060395,-0.1798 7.589514,-0.2908 1.51335,-0.066 3.024698,-0.1806 4.535679,-0.286 1.537736,-0.025 3.051579,-0.2866 4.576135,-0.4511 1.104197,-0.023 2.16752,-0.3215 3.248573,-0.5092 0.581967,-0.082 0.29837,-0.027 0.851322,-0.1639 0,0 -2.751192,2.0906 -2.751192,2.0906 l 0,0 c -0.561172,0.1062 -0.278163,0.058 -0.849085,0.1447 -1.074874,0.1921 -2.143268,0.4268 -3.238516,0.4736 -1.478805,0.1633 -2.955006,0.3323 -4.445936,0.3324 -3.902588,0.1517 -7.807126,0.1346 -11.710301,0.2693 -2.615187,0.1194 -3.623398,0.1486 -6.246918,0.337 -3.07029,0.2205 -6.124549,0.5544 -9.181121,0.9125 -0.90363,0.1059 -1.807161,0.2126 -2.710742,0.3189 -2.318489,0.2702 -2.386163,0.2679 -4.609043,0.564 -1.60284,0.2135 -3.215997,0.4271 -4.77224,0.8825 0,0 2.796027,-2.1528 2.796027,-2.1528 z"
       inkscape:connector-curvature="0" />
    <path
       style="fill:#ffffff;fill-opacity:1;fill-rule:nonzero;stroke:none"
       id="path5146"
       d="m 20.18658,1033.5788 c 1.166681,-0.6441 2.308111,-1.3362 3.500044,-1.9322 0.301589,-0.1508 0.642277,-0.2058 0.965772,-0.3009 0.479239,-0.141 0.960523,-0.2749 1.44222,-0.4072 2.109165,-0.5792 4.234593,-1.0829 6.362172,-1.5892 2.73584,-0.6605 5.462074,-1.3598 8.193848,-2.0367 2.61795,-0.6487 3.348773,-0.7916 5.957004,-1.5432 0.991875,-0.2858 1.974987,-0.6011 2.962481,-0.9017 0.942055,-0.3155 1.890102,-0.6136 2.826164,-0.9464 0.877782,-0.3121 1.744559,-0.6544 2.614375,-0.988 2.15511,-0.8267 4.298203,-1.6796 6.388401,-2.6612 0.551799,-0.2591 1.094541,-0.5371 1.641812,-0.8057 1.590333,-0.7637 3.090324,-1.7078 4.700979,-2.4299 0.608916,-0.273 0.87939,-0.361 1.487246,-0.5836 0.504715,-0.1969 1.034647,-0.2987 1.56469,-0.3962 0,0 -2.750577,2.0795 -2.750577,2.0795 l 0,0 c -0.498839,0.1008 -0.994524,0.2144 -1.472023,0.3952 -0.579408,0.2155 -0.826361,0.297 -1.406434,0.5589 -1.543452,0.6967 -2.995643,1.5788 -4.529763,2.2952 -0.533954,0.2538 -1.063621,0.5168 -1.601863,0.7613 -2.042484,0.9279 -4.135915,1.7347 -6.236713,2.5192 -0.857883,0.3203 -1.713543,0.6472 -2.578723,0.9472 -0.928874,0.3222 -1.868406,0.6127 -2.802609,0.9191 -0.986672,0.2968 -1.969567,0.6064 -2.960015,0.8903 -2.677395,0.7675 -3.313747,0.8915 -5.99716,1.5674 -2.769915,0.6977 -5.534608,1.4158 -8.303462,2.1177 -2.193791,0.5476 -4.386031,1.0871 -6.547751,1.7531 -0.515768,0.1589 -1.03051,0.3218 -1.539909,0.5001 -0.354985,0.1243 -1.352961,0.633 -1.05229,0.4071 0.756487,-0.5684 1.626943,-0.9668 2.440415,-1.4501 0,0 -3.268331,1.2609 -3.268331,1.2609 z"
       inkscape:connector-curvature="0" />
    <path
       style="fill:#ffffff;fill-opacity:1;fill-rule:nonzero;stroke:none"
       id="path5148"
       d="m 29.30145,1005.0096 c 0.354239,0.4415 0.547947,0.9723 0.811348,1.4661 0.236769,0.4439 0.318834,0.5531 0.591331,0.9781 0.61126,0.8927 1.295495,1.7311 1.985382,2.5633 0.639109,0.8002 1.312798,1.5717 1.978311,2.3497 0.435852,0.4758 0.897418,0.9269 1.361883,1.3744 0,0 -2.935234,1.8026 -2.935234,1.8026 l 0,0 c -0.46224,-0.4619 -0.931783,-0.9174 -1.365416,-1.4068 -0.66903,-0.7776 -1.339763,-1.5534 -1.977022,-2.3575 -0.697444,-0.8432 -1.384309,-1.6954 -1.99362,-2.6058 -0.317053,-0.49 -0.328673,-0.4944 -0.618865,-0.9963 -0.272679,-0.4716 -0.481163,-0.9844 -0.870253,-1.3779 0,0 3.032155,-1.7899 3.032155,-1.7899 z"
       inkscape:connector-curvature="0" />
    <path
       style="fill:#ffffff;fill-opacity:1;fill-rule:nonzero;stroke:none"
       id="path5150"
       d="m 33.006181,1002.5746 c 1.595181,0.077 3.193034,0.069 4.789634,0.078 2.061207,-0.048 4.112581,0.093 6.162707,0.282 1.160808,0.1424 2.289809,0.4583 3.435094,0.6868 0,0 -2.80725,1.95 -2.80725,1.95 l 0,0 c -1.11131,-0.2571 -2.211166,-0.5831 -3.350126,-0.6993 -0.88668,-0.093 -1.776111,-0.205 -2.666698,-0.2524 -1.136782,-0.06 -2.277563,-0.046 -3.415286,-0.048 -1.668176,0.01 -3.337325,0 -5.004251,0.078 0,0 2.856176,-2.0751 2.856176,-2.0751 z"
       inkscape:connector-curvature="0" />
    <path
       style="fill:#ffffff;fill-opacity:1;fill-rule:nonzero;stroke:none"
       id="path5170"
       d="m 47.432294,1004.8105 c -1.336857,1.6334 -2.45353,3.432 -3.544535,5.2341 -1.135442,1.9433 -2.287992,3.8792 -3.32069,5.88 -0.450283,0.8724 -0.876588,1.757 -1.316245,2.6348 -0.664681,1.4587 -1.299569,2.9296 -2.113722,4.3126 0,0 -3.102098,1.3666 -3.102098,1.3666 l 0,0 c 0.923981,-1.3731 1.625194,-2.8721 2.319461,-4.3713 0.457817,-0.8859 0.900448,-1.7796 1.362893,-2.6631 1.044558,-1.9957 2.196796,-3.932 3.309742,-5.8896 1.003069,-1.7356 2.040482,-3.4492 3.155438,-5.1157 0,0 3.249756,-1.3884 3.249756,-1.3884 z"
       inkscape:connector-curvature="0" />
    <path
       style="fill:#ffffff;fill-opacity:1;fill-rule:nonzero;stroke:none"
       id="path5176"
       d="m 35.803591,1015.2363 c -0.08876,0.1871 -0.170383,0.3778 -0.26629,0.5614 -0.581582,1.1131 -1.264952,2.1719 -1.87342,3.2703 -0.482565,0.871 -1.39721,2.615 -1.83987,3.4532 -2.314432,4.2747 -4.611466,8.5585 -6.873945,12.8609 -1.357717,2.6493 -2.918079,5.1848 -4.332229,7.8031 0,0 -2.924316,1.3066 -2.924316,1.3066 l 0,0 c 1.529159,-2.64 3.164233,-5.2182 4.596894,-7.9135 2.264215,-4.2742 4.577008,-8.5228 6.794933,-12.8215 0.385115,-0.773 1.284152,-2.5842 1.703,-3.401 2.176261,-4.2438 -0.558591,1.1179 1.256553,-2.3586 0.303225,-0.5807 0.360707,-0.7268 0.594775,-1.2535 0,0 3.163915,-1.5074 3.163915,-1.5074 z"
       inkscape:connector-curvature="0" />
  </g>
</svg>
