<?xml version="1.0" encoding="UTF-8" standalone="no"?>
<!-- Created with Inkscape (http://www.inkscape.org/) -->

<svg
   xmlns:dc="http://purl.org/dc/elements/1.1/"
   xmlns:cc="http://creativecommons.org/ns#"
   xmlns:rdf="http://www.w3.org/1999/02/22-rdf-syntax-ns#"
   xmlns:svg="http://www.w3.org/2000/svg"
   xmlns="http://www.w3.org/2000/svg"
   xmlns:sodipodi="http://sodipodi.sourceforge.net/DTD/sodipodi-0.dtd"
   xmlns:inkscape="http://www.inkscape.org/namespaces/inkscape"
   width="86"
   height="86"
   id="svg2"
   version="1.1"
   inkscape:version="0.48.5 r10040"
   sodipodi:docname="standing.svg">
  <defs
     id="defs4" />
  <sodipodi:namedview
     id="base"
     pagecolor="#000000"
     bordercolor="#666666"
     borderopacity="1.0"
     inkscape:pageopacity="0"
     inkscape:pageshadow="2"
     inkscape:zoom="5.6"
     inkscape:cx="63.675389"
     inkscape:cy="36.104089"
     inkscape:document-units="px"
     inkscape:current-layer="layer1"
     showgrid="false"
     inkscape:window-width="1278"
     inkscape:window-height="780"
     inkscape:window-x="0"
     inkscape:window-y="0"
     inkscape:window-maximized="1" />
  <metadata
     id="metadata7">
    <rdf:RDF>
      <cc:Work
         rdf:about="">
        <dc:format>image/svg+xml</dc:format>
        <dc:type
           rdf:resource="http://purl.org/dc/dcmitype/StillImage" />
        <dc:title></dc:title>
      </cc:Work>
    </rdf:RDF>
  </metadata>
  <g
     inkscape:label="Layer 1"
     inkscape:groupmode="layer"
     id="layer1"
     transform="translate(0,-966.36218)">
    <path
       style="fill:#ffffff;fill-opacity:1;fill-rule:nonzero;stroke:none"
       id="path3071"
       d="m 44.992857,979.36912 c -0.837318,-0.0312 -1.67566,-0.0323 -2.513471,-0.0274 -0.853591,0.005 -1.722568,0.006 -2.560294,0.18175 -1.093615,0.23979 -2.044214,0.84805 -3.056612,1.29964 -1.330842,0.6949 -3.81496,2.00308 2.191612,-1.2933 0.167297,-0.0918 -0.320264,0.20893 -0.468103,0.3296 -0.421142,0.34375 -0.4466,0.43449 -0.776318,0.87328 -0.563708,1.06118 -0.942451,2.21963 -1.193389,3.39282 -0.204272,1.17589 -0.285865,2.37715 -0.220094,3.56879 0.07004,0.91362 0.425981,1.68694 1.14199,2.27231 0.165637,0.13542 0.349468,0.24691 0.524202,0.37037 1.374825,0.73459 2.918144,1.05475 4.446184,1.28657 1.544092,0.19677 3.102767,0.22034 4.657148,0.22194 1.373672,-0.0716 2.714031,-0.4005 3.979692,-0.92929 0.191698,-0.10441 0.764385,-0.42193 0.575095,-0.31321 -7.706203,4.42574 -3.326083,1.98968 -2.594972,1.42275 0.501045,-0.38853 0.877297,-0.8776 1.27775,-1.36263 0.891769,-1.1041 1.186891,-2.4492 1.363005,-3.82139 0.116096,-1.29291 0.15094,-2.59844 0.06217,-3.8941 -0.105132,-0.64691 -0.326318,-1.28771 -0.752142,-1.79901 -0.185613,-0.22287 -0.517554,-0.47379 -0.738673,-0.6534 -0.821495,-0.50063 -1.66949,-0.97162 -2.596669,-1.23863 -1.191339,-0.40133 -2.445562,-0.51448 -3.691879,-0.59466 -0.850277,-0.0363 -0.429195,-0.0228 -1.26323,-0.0412 0,0 3.448474,-2.48875 3.448474,-2.48875 l 0,0 c 0.831911,0.0346 0.409768,0.0147 1.266407,0.0604 1.277794,0.10422 2.555409,0.26364 3.783578,0.64844 0.964056,0.31561 1.848704,0.81139 2.685511,1.38252 0.305791,0.25988 0.549481,0.44236 0.803294,0.75875 0.461846,0.57571 0.732171,1.27437 0.844875,1.99757 0.114276,1.32642 -0.01817,2.66293 -0.06941,3.99033 -0.152195,1.42009 -0.404281,2.83304 -1.242587,4.02914 -0.389775,0.48808 -0.755226,1.04497 -1.221756,1.46515 -0.152788,0.13761 -0.319621,0.26113 -0.496208,0.36648 -3.803819,2.26923 -2.795108,1.77767 -4.775217,2.70005 -1.307321,0.46666 -2.667344,0.78498 -4.063159,0.79083 -1.556248,-0.0331 -3.118428,-0.0556 -4.659766,-0.29753 -1.580577,-0.27427 -3.201312,-0.59631 -4.600914,-1.41616 -0.189376,-0.13754 -0.388039,-0.26313 -0.568129,-0.41262 -0.794986,-0.65993 -1.238889,-1.51185 -1.313079,-2.54196 -0.07933,-1.2235 0.0041,-2.45817 0.172819,-3.67157 0.08764,-0.43285 0.14839,-0.77323 0.268423,-1.20007 0.225269,-0.80106 0.562319,-1.57171 0.864885,-2.34471 0.107685,-0.1817 0.20091,-0.37279 0.323054,-0.5451 0.196819,-0.27765 0.531985,-0.63733 0.828031,-0.81657 1.675121,-1.01417 3.35434,-2.07027 5.135314,-2.90394 1.028387,-0.48538 2.030723,-1.05706 3.169485,-1.24134 0.860882,-0.10286 1.725445,-0.14423 2.592507,-0.11882 0.862982,0.005 1.726395,0.002 2.588935,-0.0274 0,0 -3.558374,2.58531 -3.558374,2.58531 z"
       inkscape:connector-curvature="0" />
    <path
       style="fill:#ffffff;fill-opacity:1;fill-rule:nonzero;stroke:none"
       id="path3101"
       d="m 45.540712,25.839047 c -0.129662,1.866895 -0.215687,3.737077 -0.293515,5.606861 -0.181376,4.007128 -0.291601,8.018283 -0.501033,12.023966 -0.238645,3.330266 -0.44264,6.661791 -0.544653,9.999169 -0.05038,1.38252 -0.03553,2.765542 -0.01684,4.148378 0,0 -3.725216,1.892865 -3.725216,1.892865 l 0,0 c 0.04963,-1.413051 0.10899,-2.825764 0.166134,-4.23853 0.18662,-3.379685 0.504281,-6.749041 0.779978,-10.122266 0.116016,-2.106098 0.174157,-4.209554 0.234139,-6.317891 0.02024,-0.711422 0.09155,-3.131201 0.09941,-3.881339 0.006,-0.574276 -0.0035,-1.14861 -0.0052,-1.722914 -0.0052,-1.793741 0.02869,-3.592985 -0.131783,-5.381499 0,0 3.938567,-2.0068 3.938567,-2.0068 z"
       inkscape:connector-curvature="0"
       transform="translate(0,966.36218)" />
    <path
       style="fill:#ffffff;fill-opacity:1;fill-rule:nonzero;stroke:none"
       id="path3117"
       d="m 44.343266,1022.9715 c 1.628345,1.5471 3.280139,3.069 4.940473,4.5818 2.981543,2.6345 5.976947,5.2524 8.842232,8.0139 1.478992,1.4683 2.984443,2.91 4.494609,4.3463 0,0 -3.449513,2.1119 -3.449513,2.1119 l 0,0 c -1.408848,-1.506 -2.802595,-3.027 -4.275198,-4.4719 -2.848838,-2.779 -5.831031,-5.4137 -8.885525,-7.9647 -1.763324,-1.4885 -3.529267,-2.9859 -5.411709,-4.3226 0,0 3.744631,-2.2947 3.744631,-2.2947 z"
       inkscape:connector-curvature="0" />
    <path
       inkscape:connector-curvature="0"
       d="m 40.661663,1023.1501 c -1.628345,1.5471 -3.280139,3.069 -4.940473,4.5818 -2.981543,2.6345 -5.976947,5.2524 -8.842232,8.0139 -1.478992,1.4683 -2.984443,2.91 -4.494609,4.3463 0,0 3.449513,2.1119 3.449513,2.1119 l 0,0 c 1.408848,-1.506 2.802595,-3.027 4.275198,-4.4719 2.848838,-2.779 5.831031,-5.4137 8.885525,-7.9647 1.763324,-1.4885 3.529267,-2.9859 5.411709,-4.3226 0,0 -3.744631,-2.2947 -3.744631,-2.2947 z"
       id="path3130"
       style="fill:#ffffff;fill-opacity:1;fill-rule:nonzero;stroke:none" />
    <path
       style="fill:#ffffff;fill-opacity:1;fill-rule:nonzero;stroke:none"
       id="path3165"
       d="m 44.892435,1002.4772 c 0.567955,0.2982 0.520749,0.2849 1.232869,0.5886 0.372864,0.159 0.752987,0.3007 1.12526,0.461 1.719661,0.7409 3.396923,1.5671 5.073291,2.3997 3.389497,1.7375 6.712965,3.5947 9.982262,5.5476 0,0 -3.366098,2.1644 -3.366098,2.1644 l 0,0 c -0.894326,-0.6126 -1.49932,-1.0386 -2.436697,-1.6268 -2.351726,-1.4756 -4.809274,-2.7782 -7.283843,-4.0331 -0.664005,-0.2997 -1.322929,-0.611 -1.992016,-0.8992 -1.949751,-0.8398 -3.952992,-1.5304 -5.978408,-2.1613 0,0 3.64338,-2.4409 3.64338,-2.4409 z"
       inkscape:connector-curvature="0" />
    <path
       inkscape:connector-curvature="0"
       d="m 42.055594,1002.2986 c -0.567955,0.2982 -0.520749,0.2849 -1.232869,0.5886 -0.372864,0.159 -0.752987,0.3007 -1.12526,0.461 -1.719661,0.7409 -3.396923,1.5671 -5.073291,2.3997 -3.389497,1.7375 -6.712965,3.5947 -9.982262,5.5476 0,0 3.366098,2.1644 3.366098,2.1644 l 0,0 c 0.894326,-0.6126 1.49932,-1.0386 2.436697,-1.6268 2.351726,-1.4756 4.809274,-2.7782 7.283843,-4.0331 0.664005,-0.2997 1.322929,-0.611 1.992016,-0.8992 1.949751,-0.8398 3.952992,-1.5304 5.978408,-2.1613 0,0 -3.64338,-2.4409 -3.64338,-2.4409 z"
       id="path3167"
       style="fill:#ffffff;fill-opacity:1;fill-rule:nonzero;stroke:none" />
  </g>
</svg>
