<?xml version="1.0" encoding="UTF-8" standalone="no"?>
<!-- Created with Inkscape (http://www.inkscape.org/) -->

<svg
   xmlns:dc="http://purl.org/dc/elements/1.1/"
   xmlns:cc="http://creativecommons.org/ns#"
   xmlns:rdf="http://www.w3.org/1999/02/22-rdf-syntax-ns#"
   xmlns:svg="http://www.w3.org/2000/svg"
   xmlns="http://www.w3.org/2000/svg"
   xmlns:sodipodi="http://sodipodi.sourceforge.net/DTD/sodipodi-0.dtd"
   xmlns:inkscape="http://www.inkscape.org/namespaces/inkscape"
   width="86"
   height="86"
   id="svg3268"
   version="1.1"
   inkscape:version="0.48.5 r10040"
   sodipodi:docname="training.svg">
  <defs
     id="defs3270" />
  <sodipodi:namedview
     id="base"
     pagecolor="#000000"
     bordercolor="#666666"
     borderopacity="1.0"
     inkscape:pageopacity="0"
     inkscape:pageshadow="2"
     inkscape:zoom="5.6"
     inkscape:cx="67.436385"
     inkscape:cy="42.995903"
     inkscape:document-units="px"
     inkscape:current-layer="layer1"
     showgrid="false"
     inkscape:showpageshadow="false"
     inkscape:window-width="1278"
     inkscape:window-height="780"
     inkscape:window-x="0"
     inkscape:window-y="0"
     inkscape:window-maximized="1" />
  <metadata
     id="metadata3273">
    <rdf:RDF>
      <cc:Work
         rdf:about="">
        <dc:format>image/svg+xml</dc:format>
        <dc:type
           rdf:resource="http://purl.org/dc/dcmitype/StillImage" />
        <dc:title />
      </cc:Work>
    </rdf:RDF>
  </metadata>
  <g
     inkscape:label="Layer 1"
     inkscape:groupmode="layer"
     id="layer1"
     transform="translate(0,-966.36218)">
    <path
       style="fill:#ffffff;fill-opacity:1;fill-rule:nonzero;stroke:none"
       id="path4183"
       d="m 45.692594,1032.5778 c -0.279779,-0.5191 -0.823976,-0.8352 -1.352723,-1.0539 -0.526927,-0.1878 -1.088355,-0.1991 -1.641066,-0.209 -0.08519,0.012 -0.172661,0.012 -0.255581,0.035 -0.124789,0.034 -0.402525,0.1829 -0.513811,0.2309 -0.307209,0.1325 -0.585402,0.2497 -0.872568,0.4247 6.357495,-3.4533 3.997539,-2.4927 2.831555,-1.54 -0.303642,0.2481 -0.578987,0.5257 -0.851435,0.8067 -0.400946,0.4601 -0.757544,0.9585 -0.956706,1.5384 -0.118569,0.4152 -0.130138,0.8483 -0.133843,1.277 -0.0048,0.5568 -0.01162,1.1135 0.0021,1.6701 -0.01921,0.8918 0.293657,1.6189 0.727959,2.3737 0.367564,0.6177 0.676912,0.953 1.377795,1.1213 0.559719,0.079 1.127678,0.061 1.691428,0.058 0.657141,-0.01 1.314288,-0.01 1.971423,-0.011 0.699174,-6e-4 1.39836,0 2.097532,0 0.464145,0 0.960763,-0.057 1.387984,-0.2524 0.09978,-0.046 0.383074,-0.2145 0.287697,-0.1602 -1.149598,0.6548 -2.30025,1.3078 -3.450375,1.9616 0.652951,-0.382 0.95478,-0.8769 1.149926,-1.5878 0.142217,-0.7118 0.140421,-1.4427 0.137821,-2.1658 -0.016,-0.3727 0.02632,-0.7487 -0.02764,-1.1199 -0.05727,-0.3939 -0.201419,-0.7764 -0.338584,-1.1474 -0.312364,-0.6989 -0.828351,-1.2596 -1.33736,-1.8186 -0.413627,-0.423 -0.795035,-0.8817 -1.226657,-1.2871 -0.211276,-0.1985 -0.439668,-0.3779 -0.657546,-0.569 -0.297172,-0.2466 -0.634288,-0.3978 -0.991423,-0.5304 0,0 3.605922,-2.404 3.605922,-2.404 l 0,0 c 0.377736,0.18 0.736571,0.3769 1.052401,0.6575 0.667462,0.601 1.309355,1.2275 1.912997,1.8934 0.54394,0.6042 1.108995,1.1974 1.426935,1.9604 0.276978,0.7761 0.518081,1.5595 0.449395,2.3948 -0.0048,0.751 0.0044,1.5045 -0.09204,2.2512 -0.138899,0.741 -0.379967,1.4302 -1.008096,1.9005 -2.366636,1.3633 -3.4126,2.6014 -5.796493,2.5772 -0.700503,0 -1.401037,0 -2.101525,0.01 -0.659395,10e-4 -1.318747,0.01 -1.978122,0.015 -0.596962,0 -1.207216,0.011 -1.784151,-0.164 -0.730431,-0.3003 -1.10712,-0.7379 -1.492952,-1.4227 -0.469419,-0.8147 -0.811749,-1.5726 -0.853093,-2.5311 -0.05739,-0.5573 -0.04153,-1.1174 -0.05552,-1.6772 0.0012,-0.4656 -0.0066,-0.9345 0.09301,-1.3924 0.174318,-0.7088 0.472983,-1.158 0.916941,-1.7343 1.43401,-1.7226 3.383109,-2.6144 5.399691,-3.6727 0.566356,-0.2697 1.156457,-0.5576 1.799401,-0.5194 0.592073,0.033 1.185262,0.1019 1.726445,0.3634 0.60433,0.3154 1.189139,0.7158 1.566711,1.296 0,0 -3.843793,2.1588 -3.843793,2.1588 z"
       inkscape:connector-curvature="0" />
    <path
       style="fill:#ffffff;fill-opacity:1;fill-rule:nonzero;stroke:none"
       id="path4185"
       d="m 62.123351,1032.8062 c -0.61702,-0.2537 -1.28698,-0.3217 -1.945824,-0.376 -0.476544,-0.06 -0.940677,0.057 -1.367073,0.2694 -0.120574,0.06 -0.46881,0.2657 -0.351608,0.1993 1.123255,-0.6366 2.246512,-1.2732 3.369768,-1.9099 -0.647409,0.4732 -1.208825,1.0454 -1.731768,1.6497 -0.430615,0.4518 -0.654946,0.9956 -0.771514,1.5979 -0.07496,0.5285 -0.06545,1.0635 -0.06639,1.5959 -0.02469,0.5875 -0.01622,1.1554 0.172559,1.7158 0.253047,0.5377 0.630756,1.0235 1.091278,1.3985 0.07267,0.044 0.141113,0.096 0.218012,0.1314 0.07762,0.036 0.163257,0.052 0.24298,0.084 0.405132,0.1593 0.812919,0.3447 1.196606,0.5488 0.50722,0.2914 1.092002,0.3523 1.628804,0.5627 0.286757,0.097 0.59891,0.2353 0.910114,0.1837 0.203938,-0.034 0.399873,-0.106 0.602481,-0.147 0.364185,-0.1193 0.74374,-0.1737 1.091837,-0.3414 0.11591,-0.056 0.22212,-0.1299 0.333814,-0.1938 0.117179,-0.067 0.470023,-0.2657 0.352793,-0.1988 -1.108462,0.6327 -2.217662,1.2641 -3.326492,1.8961 0.697812,-0.4737 1.427424,-0.8951 2.111762,-1.3886 0.528128,-0.4707 1.005318,-1.0117 1.349879,-1.6316 0.259647,-0.5489 0.282475,-1.1571 0.297027,-1.7533 0.04099,-0.6819 -0.04619,-1.1853 -0.322506,-1.8039 -0.269547,-0.5168 -0.568767,-1.0121 -0.939058,-1.4623 -0.290759,-0.2712 -0.496153,-0.6316 -0.803434,-0.8861 -0.105296,-0.087 -0.278812,-0.175 -0.39579,-0.2395 -0.07956,-0.03 -0.161774,-0.053 -0.238668,-0.089 -0.103584,-0.049 -0.200972,-0.1096 -0.301459,-0.1643 -0.103689,-0.05 -0.206122,-0.1032 -0.311069,-0.1507 -0.287089,-0.1301 -0.573741,-0.2164 -0.878683,-0.2919 -0.09349,-0.016 -0.186983,-0.031 -0.280474,-0.047 0,0 3.582271,-2.4907 3.582271,-2.4907 l 0,0 c 0.09925,0.025 0.198509,0.05 0.297764,0.075 0.623828,0.2071 1.209519,0.5021 1.80234,0.7836 0.529103,0.3407 0.845457,0.7952 1.258113,1.2598 0.405268,0.4754 0.720204,1.0038 0.99889,1.5627 0.294969,0.6314 0.460616,1.2746 0.411102,1.9791 -0.01267,0.6423 0.01274,1.3013 -0.208998,1.9148 -0.290915,0.7107 -0.807469,1.2623 -1.31201,1.8311 -0.64385,0.5572 -1.39125,0.9542 -2.101211,1.4195 -1.352468,0.7964 -2.701384,1.5989 -4.057404,2.3892 -0.217802,0.127 -0.49599,0.256 -0.73433,0.3406 -0.369729,0.1312 -0.756828,0.2098 -1.137986,0.2983 -0.666703,0.12 -1.062007,0.06 -1.679209,-0.2046 -0.554879,-0.1829 -1.12546,-0.3223 -1.635837,-0.62 -0.579439,-0.2729 -1.212435,-0.4634 -1.725899,-0.852 -0.48559,-0.4538 -0.912728,-0.9864 -1.201147,-1.5878 -0.229876,-0.5966 -0.277057,-1.2072 -0.25257,-1.8435 -0.0054,-0.5534 -0.01227,-1.1085 0.03974,-1.66 0.08114,-0.6666 0.263355,-1.3049 0.696295,-1.8354 0.337482,-0.3752 0.171737,-0.181 0.496483,-0.5832 0.368827,-0.4224 0.808652,-0.7726 1.205706,-1.1667 1.344399,-0.7905 2.680079,-1.596 4.033197,-2.3714 0.569114,-0.3262 1.245428,-0.357 1.879182,-0.2871 0.704071,0.087 1.407773,0.1987 2.076152,0.4467 0,0 -3.66854,2.4448 -3.66854,2.4448 z"
       inkscape:connector-curvature="0" />
    <path
       style="fill:#ffffff;fill-opacity:1;fill-rule:nonzero;stroke:none"
       id="path4249"
       d="m 72.907216,1004.543 c 0.828835,0.1928 1.681259,0.238 2.528474,0.2743 0.713531,0.01 1.420966,0.113 2.132794,0.1576 0.644167,0.073 1.063378,0.5053 1.360147,1.0471 0.349977,1.0683 0.534394,2.1724 0.659516,3.2861 0.129295,1.7781 0.104449,3.563 0.110005,5.3446 0.0434,1.8456 -0.03616,3.6913 -0.225771,5.5273 -0.234248,1.4669 -0.397704,2.9429 -0.633789,4.4093 -0.143351,1.2349 -0.314145,2.4615 -0.535449,3.6849 -0.157419,0.8826 -0.276186,1.7706 -0.541105,2.6285 -0.214005,0.6663 -0.397217,1.3431 -0.524932,2.0314 -0.143698,0.6391 -0.330187,1.2778 -0.630832,1.8619 -0.943665,1.3114 -3.62929,2.2271 -4.31162,2.572 -0.0402,0.02 -0.771035,-0.1417 -0.860948,-0.1584 -0.282274,-0.053 -0.567506,-0.085 -0.852909,-0.1145 0,0 3.561561,-2.5241 3.561561,-2.5241 l 0,0 c 0.288655,0.038 0.576388,0.081 0.863977,0.1265 0.157818,0.02 0.376191,0.058 0.537627,0.037 0.0723,-0.01 0.271963,-0.1003 0.209372,-0.063 -5.775236,3.444 -4.55624,2.5199 -3.157541,1.8796 0.409607,-0.4797 0.556266,-1.1114 0.728206,-1.7061 0.112188,-0.7157 0.31349,-1.4104 0.520212,-2.1038 0.05524,-0.1517 0.222803,-0.5997 0.26115,-0.7543 0.150501,-0.6068 0.198158,-1.2422 0.356653,-1.8482 0.125398,-0.5989 0.276046,-1.1999 0.351281,-1.8079 0.07748,-0.6261 0.08288,-1.2634 0.228063,-1.8814 0.228872,-1.4728 0.446808,-2.9467 0.68984,-4.4174 0.233591,-1.8247 0.327668,-3.6656 0.292277,-5.5051 -0.01103,-1.7519 -0.02264,-3.5075 -0.187011,-5.2532 -0.123257,-1.0515 -0.30771,-2.0851 -0.693255,-3.0762 -0.264248,-0.474 -0.585884,-0.6511 -1.127155,-0.6848 -0.690141,-0.067 -1.377848,-0.1638 -2.071625,-0.1863 -0.883689,-0.053 -1.765624,-0.1222 -2.638727,-0.2742 0,0 3.601514,-2.5095 3.601514,-2.5095 z"
       inkscape:connector-curvature="0" />
    <path
       style="fill:#ffffff;fill-opacity:1;fill-rule:nonzero;stroke:none"
       id="path4253"
       d="m 68.923574,1007.166 c 0.05014,-0.799 0.04227,-1.6003 0.07691,-2.3999 0.08441,-0.8528 0.07236,-1.7128 0.134553,-2.5665 0.03532,-0.485 0.108791,-0.9519 0.176096,-1.4329 0.10213,-0.6789 0.18418,-1.36126 0.245067,-2.04517 0.02314,-0.25986 0.07606,-0.74431 0.01981,-1.01789 -0.02463,-0.11978 -0.09544,-0.22518 -0.143163,-0.33778 -0.119794,-0.0731 -0.229032,-0.1673 -0.35938,-0.2193 -0.472693,-0.18855 -1.199603,-0.2962 -1.671396,-0.35486 -1.207255,-0.1501 -2.424727,-0.17283 -3.639047,-0.20464 -0.264672,-9.1e-4 -1.706747,-0.0215 -2.035246,0.0327 -0.245357,0.0405 -0.472238,0.15605 -0.708357,0.23408 1.036871,-0.55176 2.017713,-1.22503 3.110613,-1.65527 0.226772,-0.0893 -0.314965,0.37807 -0.422181,0.59693 -0.136043,0.2777 -0.200168,0.58518 -0.300253,0.87777 -0.443484,2.28611 -0.676067,4.60764 -0.839437,6.92864 -0.115206,0.7333 0.06385,1.5544 -0.242958,2.2582 -0.0806,0.1849 -0.166851,0.3943 -0.337017,0.5026 -3.938899,2.5066 -2.776164,2.2227 -5.233233,2.5708 -3.077293,0.1959 -6.166568,0.1517 -9.249151,0.1554 -1.817273,0.034 -3.637109,-0.033 -5.454179,0.012 -0.473648,0.012 -1.695501,0.09 -2.181341,0.1189 -1.960475,0.2068 -3.922899,0.448 -5.860058,0.8171 -0.242169,0.06 -0.484337,0.1202 -0.726505,0.1803 0,0 3.353086,-2.5505 3.353086,-2.5505 l 0,0 c 0.235056,-0.046 0.470111,-0.093 0.705167,-0.1393 1.93602,-0.3042 3.879999,-0.5784 5.833966,-0.736 2.500035,-0.1123 4.999661,-0.026 7.501184,-0.01 3.122522,0.017 6.269033,0.098 9.367908,-0.3465 0.321834,-0.087 1.22662,-0.4677 0.965501,-0.2605 -0.909357,0.7216 -1.955809,1.2522 -2.956572,1.8406 -0.157241,0.092 0.313309,-0.2025 0.42079,-0.3499 0.117361,-0.1609 0.185904,-0.3563 0.234992,-0.5493 0.05228,-0.2056 0.177401,-1.5568 0.190607,-1.6896 0.242452,-2.3274 0.468384,-4.6569 0.768699,-6.97771 0.04444,-0.2068 0.253426,-1.48696 0.528135,-1.68345 1.314295,-0.94004 2.741639,-1.71616 4.168715,-2.47412 0.531802,-0.28246 2.092649,-0.0376 2.676809,-0.0756 1.237246,0.0444 2.479836,0.0771 3.711568,0.21229 0.57225,0.0628 1.388282,0.14565 1.932807,0.41938 0.193943,0.0975 0.339157,0.27101 0.508736,0.40652 0.06508,0.15884 0.157718,0.30903 0.195229,0.47654 0.0806,0.35991 0.0076,0.74514 -0.0327,1.10109 -0.07825,0.69097 -0.174546,1.37923 -0.261743,2.0691 -0.03433,0.23833 -0.168433,1.13918 -0.187126,1.38688 -0.06378,0.8449 -0.01703,1.6988 -0.08154,2.5442 -0.03028,0.7746 -0.01358,1.5499 0.03419,2.3234 0,0 -3.938567,2.0068 -3.938567,2.0068 z"
       inkscape:connector-curvature="0" />
    <path
       style="fill:#ffffff;fill-opacity:1;fill-rule:nonzero;stroke:none"
       id="path4255"
       d="m 36.430308,988.83139 c -0.02025,1.27791 0.09502,2.55395 0.174097,3.82862 0.126509,2.3733 0.153962,4.75068 0.191222,7.1267 0.07954,2.17369 -0.180125,4.33839 -0.326468,6.50379 -0.05957,0.9386 -0.08296,1.8785 -0.09971,2.8185 0,0 -3.721393,1.8799 -3.721393,1.8799 l 0,0 c 0.04883,-0.954 0.09319,-1.9082 0.155754,-2.8614 0.142626,-2.1639 0.411489,-4.3235 0.378454,-6.4949 -0.01221,-2.35799 -0.04006,-4.71813 -0.242211,-7.06903 -0.119748,-1.24595 -0.27827,-2.48851 -0.441785,-3.7287 0,0 3.932044,-2.00348 3.932044,-2.00348 z"
       inkscape:connector-curvature="0" />
    <path
       style="fill:#ffffff;fill-opacity:1;fill-rule:nonzero;stroke:none"
       id="path4265"
       d="m 21.605617,993.14013 c -0.161899,1.49326 -0.298874,2.98658 -0.373564,4.48711 -0.05225,1.45511 -0.05814,2.91056 -0.04361,4.36636 0.03588,0.3336 -0.04123,0.8039 0.25797,1.0532 0.271272,0.2261 0.701573,0.2657 1.029523,0.3205 0.167881,0.016 0.335069,0.043 0.503643,0.047 0.259377,0.01 1.036449,-0.05 1.273045,-0.067 0.732854,-0.051 1.465082,-0.1051 2.198459,-0.149 0.639047,-0.099 1.287321,-0.1576 1.922902,-0.279 0.178749,-0.034 0.36124,-0.06 0.531581,-0.1244 0.154135,-0.058 0.577716,-0.3163 0.432803,-0.2381 -1.102819,0.5951 -2.204353,1.1925 -3.306529,1.7888 0.105223,-0.1735 0.23073,-0.3363 0.31567,-0.5206 0.24431,-0.5302 0.368906,-1.1152 0.490489,-1.6807 0.225566,-1.049 0.372908,-2.105 0.507083,-3.16866 0.03227,-0.6705 0.146083,-1.33374 0.194276,-2.00271 0.02787,-0.38683 0.088,-0.9892 -0.09628,-1.37623 -0.211992,-0.44525 -0.569061,-0.48904 -0.989437,-0.67071 -2.733284,-0.52523 -5.530656,-0.1854 -8.263796,0.15922 -0.43284,0.0568 -0.865681,0.11361 -1.298522,0.17041 0,0 3.225166,-2.40344 3.225166,-2.40344 l 0,0 c 0.420697,-0.0471 0.841394,-0.0942 1.262091,-0.14124 2.006879,-0.21864 4.008598,-0.41449 6.030803,-0.37073 0.459372,0.01 0.919982,0.0182 1.376766,0.0679 0.391135,0.0426 0.774537,0.13886 1.161805,0.20828 0.60498,0.30725 0.953773,0.33495 1.235164,0.98437 0.390088,0.90028 -0.196892,2.58799 -0.173417,3.56262 -0.121945,1.06565 -0.273481,2.1182 -0.449538,3.17616 -0.133237,0.8006 -0.251202,1.6049 -0.568204,2.3598 -1.340527,0.8409 -2.662337,1.7123 -4.021581,2.5226 -0.223407,0.1332 -0.774509,0.2165 -1.012325,0.2531 -0.628702,0.097 -1.263596,0.1572 -1.896398,0.2185 -0.738285,0.048 -1.475471,0.1099 -2.213587,0.1601 -0.435336,0.03 -0.922886,0.066 -1.360997,0.04 -0.183327,-0.011 -0.364449,-0.045 -0.546674,-0.068 -0.581346,-0.1435 -1.236905,-0.3345 -1.473377,-0.9626 -0.091,-0.2416 -0.07734,-0.6961 -0.08277,-0.9349 0.03544,-1.4802 0.07207,-2.9609 0.151775,-4.4394 0.03829,-0.90634 0.07547,-1.81263 0.120268,-2.71867 0.0033,-0.0667 0.05854,-1.11022 0.05655,-1.26144 -0.0016,-0.12338 -0.02184,-0.24581 -0.03276,-0.36871 0,0 3.92552,-2.00015 3.92552,-2.00015 z"
       inkscape:connector-curvature="0" />
    <path
       style="fill:#ffffff;fill-opacity:1;fill-rule:nonzero;stroke:none"
       id="path4267"
       d="m 13.576654,989.92734 c 0.192126,1.32673 0.407818,2.64551 0.532196,3.98166 0.152443,2.71475 0.134176,5.43571 0.145265,8.1537 0.01913,2.8572 0.01803,5.7144 0.0337,8.5716 0.01345,2.3148 0.03218,4.6296 0.03812,6.9445 0.0069,1.9089 0.0058,3.8179 0.03841,5.7266 0.02816,1.0767 0.04191,2.1537 0.062,3.2305 0.0032,0.7575 0.0056,1.515 0.0069,2.2725 0.0233,0.7067 -0.0064,1.413 -0.0079,2.1196 0.03644,0.2706 -0.0329,0.6581 0.169487,0.8879 0.196596,0.2232 0.676535,0.2335 0.930349,0.276 0.577613,0.022 1.162441,0.058 1.74018,0.013 0.259323,-0.02 0.855673,-0.1232 1.118364,-0.1663 0,0 -3.423859,2.563 -3.423859,2.563 l 0,0 c -0.982653,0.1212 -1.976078,0.1708 -2.962209,0.049 -0.350347,-0.08 -0.617024,-0.1042 -0.920895,-0.3082 -0.465151,-0.3122 -0.488129,-0.847 -0.50215,-1.3515 -0.0015,-0.7039 -0.03131,-1.4076 -0.0079,-2.1116 0.0013,-0.7598 0.0038,-1.5197 0.0069,-2.2796 0.02008,-1.0978 0.03394,-2.1958 0.06194,-3.2936 0.0323,-1.9218 0.03161,-3.8441 0.03898,-5.7662 0.0069,-2.3289 0.02737,-4.6578 0.04445,-6.9868 0.01963,-2.8656 0.02703,-5.7314 0.02274,-8.5971 -0.02302,-2.6768 -0.04155,-5.35989 -0.304268,-8.02619 -0.157176,-1.30514 -0.370059,-2.6027 -0.7571368,-3.86178 0,0 3.8963018,-2.03989 3.8963018,-2.03989 z"
       inkscape:connector-curvature="0" />
    <path
       style="fill:#ffffff;fill-opacity:1;fill-rule:nonzero;stroke:none"
       id="path4269"
       d="m 28.243939,1027.052 c -0.776048,-0.02 -1.561225,-0.085 -2.330535,0.033 -0.860905,0.135 -1.693661,0.4384 -2.482381,0.8044 -0.147696,0.073 -0.293919,0.1487 -0.443086,0.2184 -1.369322,0.64 -3.632734,1.8923 2.460137,-1.4717 0.137843,-0.076 -0.260312,0.1778 -0.382916,0.2766 -0.11932,0.096 -0.227882,0.2049 -0.341823,0.3074 -0.593906,0.5784 -1.156172,1.1873 -1.606898,1.8846 -0.430115,0.7666 -0.446191,1.6565 -0.490082,2.5121 -0.02914,1.0542 -0.0168,2.1086 -0.0039,3.1629 -0.02464,0.8251 0.08205,1.6306 0.320138,2.4187 0.222264,0.7025 0.601351,1.3406 1.091764,1.8872 0.610456,0.5793 1.478445,0.6379 2.275977,0.7162 1.16533,0.086 2.334645,0.07 3.502079,0.058 0.79486,-0.083 1.567959,-0.2846 2.351409,-0.4302 1.365593,-0.5696 3.373939,-1.7819 -2.705308,1.611 -0.130942,0.073 0.254374,-0.1592 0.376547,-0.2461 0.392535,-0.2794 0.414786,-0.3194 0.765716,-0.6412 0.888347,-0.946 1.33452,-2.1804 1.789142,-3.372 0.400986,-1.122 0.580262,-2.2999 0.657088,-3.4839 0.04772,-0.7862 0.06766,-1.5704 -0.0549,-2.3496 -0.07458,-0.7284 -0.321132,-1.3694 -0.788041,-1.9318 -0.353018,-0.3595 -0.749952,-0.7122 -1.194934,-0.9569 -0.16051,-0.088 -0.651711,-0.2816 -0.799647,-0.3418 -0.99428,-0.3283 -2.018993,-0.5646 -3.052265,-0.7332 0,0 3.526862,-2.464 3.526862,-2.464 l 0,0 c 1.041526,0.2205 2.091329,0.4457 3.093413,0.8082 0.844468,0.3374 1.541289,0.7791 2.152802,1.4623 0.483504,0.632 0.816558,1.3236 0.892648,2.1262 0.03092,0.1813 0.106851,0.5998 0.118487,0.78 0.03594,0.5565 -0.03996,1.1201 -0.044,1.6763 -0.110823,1.2295 -0.301463,2.4513 -0.687069,3.6285 -0.407681,1.1469 -0.07226,0.2393 -0.515281,1.3454 -0.304589,0.7605 -0.604366,1.5209 -1.127183,2.1657 -0.320157,0.3407 -0.667985,0.7323 -1.076296,0.9733 -1.564585,0.9233 -3.023297,2.1187 -4.795616,2.5654 -0.778302,0.1554 -1.56083,0.3158 -2.357314,0.3323 -1.171756,-0.013 -2.344879,-0.024 -3.51429,-0.1044 -0.905662,-0.1014 -1.86366,-0.2404 -2.505478,-0.9542 -0.506164,-0.6088 -0.938703,-1.2799 -1.166028,-2.0455 -0.27619,-0.8241 -0.401817,-1.6757 -0.359536,-2.5468 0.0049,-1.0619 10e-4,-2.1238 0.01448,-3.1856 0.01249,-0.8956 -0.01217,-1.8412 0.34967,-2.6773 0.390584,-0.772 0.992757,-1.3893 1.585578,-2.0112 0.07464,-0.076 0.594299,-0.6123 0.684596,-0.6672 1.780735,-1.0823 3.486252,-2.1475 5.374725,-2.9682 0.829426,-0.3351 1.683079,-0.6336 2.580442,-0.7133 0.809878,-0.043 1.621335,-0.01 2.431363,-0.052 0,0 -3.570221,2.5939 -3.570221,2.5939 z"
       inkscape:connector-curvature="0" />
    <path
       style="fill:#ffffff;fill-opacity:1;fill-rule:nonzero;stroke:none"
       id="path4271"
       d="m 38.024071,1032.8979 c 0.569364,0.036 1.092149,0.2621 1.637019,0.4151 0,0 -3.57223,2.4474 -3.57223,2.4474 l 0,0 c -0.549419,-0.1576 -1.09385,-0.3138 -1.671031,-0.3198 0,0 3.606242,-2.5427 3.606242,-2.5427 z"
       inkscape:connector-curvature="0" />
    <path
       style="fill:#ffffff;fill-opacity:1;fill-rule:nonzero;stroke:none"
       id="path4273"
       d="m 54.828572,1035.3552 c 0.827713,-0.01 1.640805,0.1523 2.45891,0.2589 0,0 -3.541603,2.4978 -3.541603,2.4978 l 0,0 c -0.820823,-0.1257 -1.641934,-0.2597 -2.475682,-0.1714 0,0 3.558375,-2.5853 3.558375,-2.5853 z"
       inkscape:connector-curvature="0" />
    <path
       style="fill:#ffffff;fill-opacity:1;fill-rule:nonzero;stroke:none"
       id="path4279"
       d="m 9.8326836,992.58556 c -0.7137684,-0.004 -1.4204688,-0.14377 -2.1172972,-0.29252 -0.7863118,-0.23594 -1.4452786,-0.71249 -2.06356,-1.23602 -0.5952611,-0.507 -0.8551123,-0.95361 -1.1010502,-1.6803 -0.2080865,-0.82109 -0.2126188,-1.6861 -0.2029302,-2.52925 0.055294,-0.70583 0.2483412,-1.40872 0.681534,-1.98216 0.095271,-0.12612 0.210981,-0.2354 0.3164715,-0.3531 1.5148673,-1.2241 3.3882773,-2.11301 5.0379575,-3.01856 0.176372,-0.0968 0.374264,-0.14802 0.563766,-0.21561 0.439607,-0.15681 0.884588,-0.29815 1.325798,-0.45038 0.870305,-0.23813 1.707532,-0.57353 2.565807,-0.84745 1.021629,-0.32606 0.07441,0.009 1.026679,-0.3391 0.856318,-0.32803 1.746187,-0.44599 2.65502,-0.4822 0.160576,-0.006 0.321668,-0.003 0.481728,-0.0175 0.228196,-0.0201 0.707198,-0.11031 0.935198,-0.13751 0.829126,-0.0989 1.665618,-0.13472 2.498709,-0.17638 4.273587,-0.13725 8.550145,-0.14342 12.825335,-0.19674 2.94309,-0.0267 5.884929,-0.1161 8.827186,-0.18363 0.562114,0.0559 1.153864,0.0264 1.703702,0.18356 0.422998,0.12092 0.809843,0.36466 1.181899,0.59046 0.689117,0.5203 1.272537,1.15554 1.770186,1.85804 0.382784,0.62917 0.721586,1.29078 0.958962,1.98923 0.146865,0.59759 0.291526,1.23078 0.219579,1.85095 -0.0164,0.14139 -0.0533,0.27964 -0.07995,0.41947 -0.208502,0.59289 -0.506154,1.29779 -1.084944,1.63052 -1.338753,0.76962 -2.694974,1.50845 -4.04246,2.26267 -0.894892,0.13419 -1.789915,0.2735 -2.693527,0.34877 -0.944623,0.14754 -1.843466,0.48774 -2.802201,0.53969 -0.697626,0.0188 -1.395241,-0.0155 -2.09268,-0.0298 -0.525975,0.0685 -1.053227,0.11983 -1.583145,0.14277 -0.352476,0.0341 -0.709968,-0.006 -1.062308,0.0203 -0.174541,0.0129 -0.346569,0.0492 -0.520188,0.0713 -0.524438,-0.003 -0.994082,0.19586 -1.486876,0.33962 -0.07868,0.0146 -0.157352,0.0291 -0.236028,0.0437 0,0 3.485774,-2.65792 3.485774,-2.65792 l 0,0 c 0.07424,-0.0215 0.148486,-0.0429 0.22273,-0.0644 0.497858,-0.14908 1.002165,-0.23408 1.521386,-0.26978 0.531409,-0.0528 1.065695,-0.0374 1.598363,-0.0741 0.531638,-0.0398 1.062514,-0.11448 1.596282,-0.10488 0.67597,0.0253 1.354092,0.0611 2.029677,0.009 0.928283,-0.13017 1.826532,-0.41468 2.760663,-0.51174 0.897689,-0.10685 1.817323,-0.2113 2.67708,-0.49635 -1.141812,0.66825 -2.288918,1.32753 -3.425436,2.00475 -0.09695,0.0578 0.209078,-0.0873 0.305595,-0.14573 0.443576,-0.2688 0.730405,-0.71909 0.930472,-1.18478 0.03519,-0.11745 0.08099,-0.23223 0.105559,-0.35234 0.114439,-0.55942 -0.041,-1.1516 -0.147936,-1.69854 -0.209858,-0.6654 -0.546992,-1.27571 -0.881689,-1.88468 -0.462192,-0.65643 -1.005573,-1.25233 -1.676482,-1.70236 -0.272788,-0.15823 -0.390219,-0.24043 -0.689559,-0.35505 -0.621243,-0.23788 -1.301845,-0.24918 -1.955486,-0.30726 -2.796065,-0.0708 -5.592299,-0.14721 -8.38967,-0.1301 -4.377033,0.0217 -8.761851,0.0634 -13.124522,0.45227 -1.37318,0.15939 -2.739178,0.39905 -4.120378,0.47402 -0.882375,0.0844 -1.746953,0.25213 -2.57928,0.56716 -1.176928,0.3809 -2.354574,0.75918 -3.5309188,1.14186 -0.3732444,0.13365 -0.9745512,0.34292 -1.3457101,0.49872 -0.185195,0.0777 -0.7186122,0.35701 -0.5470461,0.25259 1.0393563,-0.63263 2.1038775,-1.22298 3.153217,-1.8389 0.152349,-0.0894 -0.3121694,0.16603 -0.4621685,0.25934 -0.1434033,0.0892 -0.2780671,0.19175 -0.4171007,0.28763 -0.1150851,0.0884 -0.2421751,0.16311 -0.3452553,0.26527 -0.4692035,0.46505 -0.6673815,1.13399 -0.7920637,1.7593 -0.037808,0.79333 -0.00986,1.59992 0.1740929,2.37558 0.1853275,0.59191 0.4651042,1.0928 0.9629531,1.48409 0.5687073,0.48704 1.1979932,0.89054 1.9392572,1.05456 0.701771,0.13142 1.409127,0.24597 2.125525,0.18046 0,0 -3.5642974,2.58961 -3.5642974,2.58961 z"
       inkscape:connector-curvature="0" />
  </g>
</svg>
