<?xml version="1.0" encoding="UTF-8" standalone="no"?>
<!-- Created with Inkscape (http://www.inkscape.org/) -->

<svg
   xmlns:dc="http://purl.org/dc/elements/1.1/"
   xmlns:cc="http://creativecommons.org/ns#"
   xmlns:rdf="http://www.w3.org/1999/02/22-rdf-syntax-ns#"
   xmlns:svg="http://www.w3.org/2000/svg"
   xmlns="http://www.w3.org/2000/svg"
   xmlns:sodipodi="http://sodipodi.sourceforge.net/DTD/sodipodi-0.dtd"
   xmlns:inkscape="http://www.inkscape.org/namespaces/inkscape"
   width="86"
   height="86"
   id="svg3268"
   version="1.1"
   inkscape:version="0.48.5 r10040"
   sodipodi:docname="training.svg">
  <defs
     id="defs3270" />
  <sodipodi:namedview
     id="base"
     pagecolor="#000000"
     bordercolor="#666666"
     borderopacity="1.0"
     inkscape:pageopacity="0"
     inkscape:pageshadow="2"
     inkscape:zoom="5.6"
     inkscape:cx="67.436385"
     inkscape:cy="42.995903"
     inkscape:document-units="px"
     inkscape:current-layer="layer1"
     showgrid="false"
     inkscape:showpageshadow="false"
     inkscape:window-width="1278"
     inkscape:window-height="780"
     inkscape:window-x="0"
     inkscape:window-y="0"
     inkscape:window-maximized="1" />
  <metadata
     id="metadata3273">
    <rdf:RDF>
      <cc:Work
         rdf:about="">
        <dc:format>image/svg+xml</dc:format>
        <dc:type
           rdf:resource="http://purl.org/dc/dcmitype/StillImage" />
        <dc:title />
      </cc:Work>
    </rdf:RDF>
  </metadata>
  <g
     inkscape:label="Layer 1"
     inkscape:groupmode="layer"
     id="layer1"
     transform="translate(0,-966.36218)">
    <path
       style="fill:#ffffff;fill-opacity:1;fill-rule:nonzero;stroke:none"
       id="path4183"
       d="m 45.692594,1030.7921 c -0.279779,-0.5191 -0.823976,-0.8352 -1.352723,-1.0539 -0.526927,-0.1878 -1.088355,-0.1991 -1.641066,-0.209 -0.08519,0.012 -0.172661,0.012 -0.255581,0.035 -0.124789,0.034 -0.402525,0.1829 -0.513811,0.2309 -0.307209,0.1325 -0.585402,0.2497 -0.872568,0.4247 6.357495,-3.4533 3.997539,-2.4927 2.831555,-1.54 -0.303642,0.2481 -0.578987,0.5257 -0.851435,0.8067 -0.400946,0.4601 -0.757544,0.9585 -0.956706,1.5384 -0.118569,0.4152 -0.130138,0.8483 -0.133843,1.277 -0.0048,0.5568 -0.01162,1.1135 0.0021,1.6701 -0.01921,0.8918 0.293657,1.6189 0.727959,2.3737 0.367564,0.6177 0.676912,0.953 1.377795,1.1213 0.559719,0.079 1.127678,0.061 1.691428,0.058 0.657141,-0.01 1.314288,-0.01 1.971423,-0.011 0.699174,-6e-4 1.39836,0 2.097532,0 0.464145,0 0.960763,-0.057 1.387984,-0.2524 0.09978,-0.046 0.383074,-0.2145 0.287697,-0.1602 -1.149598,0.6548 -2.30025,1.3078 -3.450375,1.9616 0.652951,-0.382 0.95478,-0.8769 1.149926,-1.5878 0.142217,-0.7118 0.140421,-1.4427 0.137821,-2.1658 -0.016,-0.3727 0.02632,-0.7487 -0.02764,-1.1199 -0.05727,-0.3939 -0.201419,-0.7764 -0.338584,-1.1474 -0.312364,-0.6989 -0.828351,-1.2596 -1.33736,-1.8186 -0.413627,-0.423 -0.795035,-0.8817 -1.226657,-1.2871 -0.211276,-0.1985 -0.439668,-0.3779 -0.657546,-0.569 -0.297172,-0.2466 -0.634288,-0.3978 -0.991423,-0.5304 0,0 3.605922,-2.404 3.605922,-2.404 l 0,0 c 0.377736,0.18 0.736571,0.3769 1.052401,0.6575 0.667462,0.601 1.309355,1.2275 1.912997,1.8934 0.54394,0.6042 1.108995,1.1974 1.426935,1.9604 0.276978,0.7761 0.518081,1.5595 0.449395,2.3948 -0.0048,0.751 0.0044,1.5045 -0.09204,2.2512 -0.138899,0.741 -0.379967,1.4302 -1.008096,1.9005 -2.366636,1.3633 -3.4126,2.6014 -5.796493,2.5772 -0.700503,0 -1.401037,0 -2.101525,0.01 -0.659395,10e-4 -1.318747,0.01 -1.978122,0.015 -0.596962,0 -1.207216,0.011 -1.784151,-0.164 -0.730431,-0.3003 -1.10712,-0.7379 -1.492952,-1.4227 -0.469419,-0.8147 -0.811749,-1.5726 -0.853093,-2.5311 -0.05739,-0.5573 -0.04153,-1.1174 -0.05552,-1.6772 0.0012,-0.4656 -0.0066,-0.9345 0.09301,-1.3924 0.174318,-0.7088 0.472983,-1.158 0.916941,-1.7343 1.43401,-1.7226 3.383109,-2.6144 5.399691,-3.6727 0.566356,-0.2697 1.156457,-0.5576 1.799401,-0.5194 0.592073,0.033 1.185262,0.1019 1.726445,0.3634 0.60433,0.3154 1.189139,0.7158 1.566711,1.296 0,0 -3.843793,2.1588 -3.843793,2.1588 z"
       inkscape:connector-curvature="0" />
    <path
       style="fill:#ffffff;fill-opacity:1;fill-rule:nonzero;stroke:none"
       id="path4185"
       d="m 62.123351,1031.0205 c -0.61702,-0.2537 -1.28698,-0.3217 -1.945824,-0.376 -0.476544,-0.06 -0.940677,0.057 -1.367073,0.2694 -0.120574,0.06 -0.46881,0.2657 -0.351608,0.1993 1.123255,-0.6366 2.246512,-1.2732 3.369768,-1.9099 -0.647409,0.4732 -1.208825,1.0454 -1.731768,1.6497 -0.430615,0.4518 -0.654946,0.9956 -0.771514,1.5979 -0.07496,0.5285 -0.06545,1.0635 -0.06639,1.5959 -0.02469,0.5875 -0.01622,1.1554 0.172559,1.7158 0.253047,0.5377 0.630756,1.0235 1.091278,1.3985 0.07267,0.044 0.141113,0.096 0.218012,0.1314 0.07762,0.036 0.163257,0.052 0.24298,0.084 0.405132,0.1593 0.812919,0.3447 1.196606,0.5488 0.50722,0.2914 1.092002,0.3523 1.628804,0.5627 0.286757,0.097 0.59891,0.2353 0.910114,0.1837 0.203938,-0.034 0.399873,-0.106 0.602481,-0.147 0.364185,-0.1193 0.74374,-0.1737 1.091837,-0.3414 0.11591,-0.056 0.22212,-0.1299 0.333814,-0.1938 0.117179,-0.067 0.470023,-0.2657 0.352793,-0.1988 -1.108462,0.6327 -2.217662,1.2641 -3.326492,1.8961 0.697812,-0.4737 1.427424,-0.8951 2.111762,-1.3886 0.528128,-0.4707 1.005318,-1.0117 1.349879,-1.6316 0.259647,-0.5489 0.282475,-1.1571 0.297027,-1.7533 0.04099,-0.6819 -0.04619,-1.1853 -0.322506,-1.8039 -0.269547,-0.5168 -0.568767,-1.0121 -0.939058,-1.4623 -0.290759,-0.2712 -0.496153,-0.6316 -0.803434,-0.8861 -0.105296,-0.087 -0.278812,-0.175 -0.39579,-0.2395 -0.07956,-0.03 -0.161774,-0.053 -0.238668,-0.089 -0.103584,-0.049 -0.200972,-0.1096 -0.301459,-0.1643 -0.103689,-0.05 -0.206122,-0.1032 -0.311069,-0.1507 -0.287089,-0.1301 -0.573741,-0.2164 -0.878683,-0.2919 -0.09349,-0.016 -0.186983,-0.031 -0.280474,-0.047 0,0 3.582271,-2.4907 3.582271,-2.4907 l 0,0 c 0.09925,0.025 0.198509,0.05 0.297764,0.075 0.623828,0.2071 1.209519,0.5021 1.80234,0.7836 0.529103,0.3407 0.845457,0.7952 1.258113,1.2598 0.405268,0.4754 0.720204,1.0038 0.99889,1.5627 0.294969,0.6314 0.460616,1.2746 0.411102,1.9791 -0.01267,0.6423 0.01274,1.3013 -0.208998,1.9148 -0.290915,0.7107 -0.807469,1.2623 -1.31201,1.8311 -0.64385,0.5572 -1.39125,0.9542 -2.101211,1.4195 -1.352468,0.7964 -2.701384,1.5989 -4.057404,2.3892 -0.217802,0.127 -0.49599,0.256 -0.73433,0.3406 -0.369729,0.1312 -0.756828,0.2098 -1.137986,0.2983 -0.666703,0.12 -1.062007,0.06 -1.679209,-0.2046 -0.554879,-0.1829 -1.12546,-0.3223 -1.635837,-0.62 -0.579439,-0.2729 -1.212435,-0.4634 -1.725899,-0.852 -0.48559,-0.4538 -0.912728,-0.9864 -1.201147,-1.5878 -0.229876,-0.5966 -0.277057,-1.2072 -0.25257,-1.8435 -0.0054,-0.5534 -0.01227,-1.1085 0.03974,-1.66 0.08114,-0.6666 0.263355,-1.3049 0.696295,-1.8354 0.337482,-0.3752 0.171737,-0.181 0.496483,-0.5832 0.368827,-0.4224 0.808652,-0.7726 1.205706,-1.1667 1.344399,-0.7905 2.680079,-1.596 4.033197,-2.3714 0.569114,-0.3262 1.245428,-0.357 1.879182,-0.2871 0.704071,0.087 1.407773,0.1987 2.076152,0.4467 0,0 -3.66854,2.4448 -3.66854,2.4448 z"
       inkscape:connector-curvature="0" />
    <path
       style="fill:#ffffff;fill-opacity:1;fill-rule:nonzero;stroke:none"
       id="path4249"
       d="m 72.907216,1002.7573 c 0.828835,0.1928 1.681259,0.238 2.528474,0.2743 0.713531,0.01 1.420966,0.113 2.132794,0.1576 0.644167,0.073 1.063378,0.5053 1.360147,1.0471 0.349977,1.0683 0.534394,2.1724 0.659516,3.2861 0.129295,1.7781 0.104449,3.563 0.110005,5.3446 0.0434,1.8456 -0.03616,3.6913 -0.225771,5.5273 -0.234248,1.4669 -0.397704,2.9429 -0.633789,4.4093 -0.143351,1.2349 -0.314145,2.4615 -0.535449,3.6849 -0.157419,0.8826 -0.276186,1.7706 -0.541105,2.6285 -0.214005,0.6663 -0.397217,1.3431 -0.524932,2.0314 -0.143698,0.6391 -0.330187,1.2778 -0.630832,1.8619 -0.943665,1.3114 -3.62929,2.2271 -4.31162,2.572 -0.0402,0.02 -0.771035,-0.1417 -0.860948,-0.1584 -0.282274,-0.053 -0.567506,-0.085 -0.852909,-0.1145 0,0 3.561561,-2.5241 3.561561,-2.5241 l 0,0 c 0.288655,0.038 0.576388,0.081 0.863977,0.1265 0.157818,0.02 0.376191,0.058 0.537627,0.037 0.0723,-0.01 0.271963,-0.1003 0.209372,-0.063 -5.775236,3.444 -4.55624,2.5199 -3.157541,1.8796 0.409607,-0.4797 0.556266,-1.1114 0.728206,-1.7061 0.112188,-0.7157 0.31349,-1.4104 0.520212,-2.1038 0.05524,-0.1517 0.222803,-0.5997 0.26115,-0.7543 0.150501,-0.6068 0.198158,-1.2422 0.356653,-1.8482 0.125398,-0.5989 0.276046,-1.1999 0.351281,-1.8079 0.07748,-0.6261 0.08288,-1.2634 0.228063,-1.8814 0.228872,-1.4728 0.446808,-2.9467 0.68984,-4.4174 0.233591,-1.8247 0.327668,-3.6656 0.292277,-5.5051 -0.01103,-1.7519 -0.02264,-3.5075 -0.187011,-5.2532 -0.123257,-1.0515 -0.30771,-2.0851 -0.693255,-3.0762 -0.264248,-0.474 -0.585884,-0.6511 -1.127155,-0.6848 -0.690141,-0.067 -1.377848,-0.1638 -2.071625,-0.1863 -0.883689,-0.053 -1.765624,-0.1222 -2.638727,-0.2742 0,0 3.601514,-2.5095 3.601514,-2.5095 z"
       inkscape:connector-curvature="0" />
    <path
       style="fill:#ffffff;fill-opacity:1;fill-rule:nonzero;stroke:none"
       id="path4253"
       d="m 68.923574,39.018096 c 0.05014,-0.798987 0.04227,-1.600258 0.07691,-2.399858 0.08441,-0.852838 0.07236,-1.712784 0.134553,-2.566579 0.03532,-0.484944 0.108791,-0.951836 0.176096,-1.432856 0.10213,-0.678939 0.18418,-1.361259 0.245067,-2.045167 0.02314,-0.259856 0.07606,-0.744307 0.01981,-1.017886 -0.02463,-0.119783 -0.09544,-0.225187 -0.143163,-0.337781 -0.119794,-0.0731 -0.229032,-0.167307 -0.35938,-0.219302 -0.472693,-0.188554 -1.199603,-0.296202 -1.671396,-0.354862 -1.207255,-0.150104 -2.424727,-0.172827 -3.639047,-0.204639 -0.264672,-9.08e-4 -1.706747,-0.02153 -2.035246,0.03269 -0.245357,0.0405 -0.472238,0.156052 -0.708357,0.234078 1.036871,-0.551755 2.017713,-1.225029 3.110613,-1.655267 0.226772,-0.08927 -0.314965,0.378065 -0.422181,0.596925 -0.136043,0.277703 -0.200168,0.585183 -0.300253,0.877775 -0.443484,2.286106 -0.676067,4.607612 -0.839437,6.928619 -0.115206,0.733315 0.06385,1.554412 -0.242958,2.258238 -0.0806,0.184897 -0.166851,0.394272 -0.337017,0.502562 -3.938899,2.506636 -2.776164,2.222745 -5.233233,2.570844 -3.077293,0.195923 -6.166568,0.151662 -9.249151,0.15536 -1.817273,0.03382 -3.637109,-0.03263 -5.454179,0.01185 -0.473648,0.01159 -1.695501,0.0895 -2.181341,0.118848 -1.960475,0.206867 -3.922899,0.447972 -5.860058,0.817108 -0.242169,0.06012 -0.484337,0.120229 -0.726505,0.180343 0,0 3.353086,-2.550534 3.353086,-2.550534 l 0,0 c 0.235056,-0.04643 0.470111,-0.09286 0.705167,-0.139288 1.93602,-0.304256 3.879999,-0.578458 5.833966,-0.736023 2.500035,-0.112287 4.999661,-0.02563 7.501184,-0.0054 3.122522,0.01737 6.269033,0.09831 9.367908,-0.34645 0.321834,-0.08685 1.22662,-0.467759 0.965501,-0.260548 -0.909357,0.721619 -1.955809,1.252226 -2.956572,1.84056 -0.157241,0.09244 0.313309,-0.20244 0.42079,-0.34981 0.117361,-0.160918 0.185904,-0.356332 0.234992,-0.549357 0.05228,-0.20559 0.177401,-1.556769 0.190607,-1.689633 0.242452,-2.327376 0.468384,-4.656837 0.768699,-6.977663 0.04444,-0.206793 0.253426,-1.48696 0.528135,-1.683444 1.314295,-0.940042 2.741639,-1.716162 4.168715,-2.474125 0.531802,-0.282456 2.092649,-0.03764 2.676809,-0.07562 1.237246,0.04439 2.479836,0.07714 3.711568,0.212292 0.57225,0.06279 1.388282,0.145647 1.932807,0.419378 0.193943,0.0975 0.339157,0.271013 0.508736,0.40652 0.06508,0.158846 0.157718,0.309027 0.195229,0.476539 0.0806,0.359909 0.0076,0.74514 -0.0327,1.101095 -0.07825,0.690963 -0.174546,1.379232 -0.261743,2.069102 -0.03433,0.238325 -0.168433,1.139192 -0.187126,1.386836 -0.06378,0.844908 -0.01703,1.698863 -0.08154,2.54428 -0.03028,0.774557 -0.01358,1.549832 0.03419,2.323406 0,0 -3.938567,2.0068 -3.938567,2.0068 z"
       inkscape:connector-curvature="0"
       transform="translate(0,966.36218)" />
    <path
       style="fill:#ffffff;fill-opacity:1;fill-rule:nonzero;stroke:none"
       id="path4255"
       d="m 36.430308,20.683498 c -0.02025,1.277907 0.09502,2.553946 0.174097,3.828619 0.126509,2.373298 0.153962,4.75068 0.191222,7.126694 0.07954,2.173701 -0.180125,4.3384 -0.326468,6.503827 -0.05957,0.938535 -0.08296,1.878431 -0.09971,2.818464 0,0 -3.721393,1.87992 -3.721393,1.87992 l 0,0 c 0.04883,-0.953981 0.09319,-1.908241 0.155754,-2.86146 0.142626,-2.163848 0.411489,-4.323475 0.378454,-6.494904 -0.01221,-2.357943 -0.04006,-4.718084 -0.242211,-7.068984 -0.119748,-1.245944 -0.27827,-2.488511 -0.441785,-3.7287 0,0 3.932044,-2.003476 3.932044,-2.003476 z"
       inkscape:connector-curvature="0"
       transform="translate(0,966.36218)" />
    <path
       style="fill:#ffffff;fill-opacity:1;fill-rule:nonzero;stroke:none"
       id="path4265"
       d="m 21.605617,24.992234 c -0.161899,1.493265 -0.298874,2.986584 -0.373564,4.487109 -0.05225,1.455112 -0.05814,2.910578 -0.04361,4.366322 0.03588,0.33369 -0.04123,0.803917 0.25797,1.053255 0.271272,0.226063 0.701573,0.265692 1.029523,0.320497 0.167881,0.01574 0.335069,0.04341 0.503643,0.04723 0.259377,0.0059 1.036449,-0.05029 1.273045,-0.0669 0.732854,-0.05144 1.465082,-0.105111 2.198459,-0.149009 0.639047,-0.09854 1.287321,-0.157656 1.922902,-0.279045 0.178749,-0.03414 0.36124,-0.06035 0.531581,-0.124384 0.154135,-0.05794 0.577716,-0.316352 0.432803,-0.238153 -1.102819,0.595101 -2.204353,1.192579 -3.306529,1.788869 0.105223,-0.173542 0.23073,-0.336306 0.31567,-0.520626 0.24431,-0.530152 0.368906,-1.115242 0.490489,-1.680688 0.225566,-1.049034 0.372908,-2.105012 0.507083,-3.16867 0.03227,-0.670496 0.146083,-1.333737 0.194276,-2.002705 0.02787,-0.386827 0.088,-0.989197 -0.09628,-1.376233 -0.211992,-0.445244 -0.569061,-0.489042 -0.989437,-0.670705 -2.733284,-0.525228 -5.530656,-0.1854 -8.263796,0.159221 -0.43284,0.0568 -0.865681,0.113602 -1.298522,0.170403 0,0 3.225166,-2.403432 3.225166,-2.403432 l 0,0 c 0.420697,-0.04708 0.841394,-0.09416 1.262091,-0.14124 2.006879,-0.21864 4.008598,-0.414493 6.030803,-0.370732 0.459372,0.0099 0.919982,0.01817 1.376766,0.06786 0.391135,0.04255 0.774537,0.138854 1.161805,0.208281 0.60498,0.307251 0.953773,0.334946 1.235164,0.984367 0.390088,0.900284 -0.196892,2.587987 -0.173417,3.562616 -0.121945,1.06565 -0.273481,2.118203 -0.449538,3.176114 -0.133237,0.80061 -0.251202,1.604965 -0.568204,2.359846 -1.340527,0.840871 -2.662337,1.712345 -4.021581,2.522612 -0.223407,0.133177 -0.774509,0.216504 -1.012325,0.253124 -0.628702,0.09681 -1.263596,0.157185 -1.896398,0.218447 -0.738285,0.04841 -1.475471,0.109912 -2.213587,0.160098 -0.435336,0.0296 -0.922886,0.06553 -1.360997,0.04022 -0.183327,-0.01059 -0.364449,-0.04539 -0.546674,-0.06808 -0.581346,-0.14349 -1.236905,-0.334536 -1.473377,-0.96257 -0.091,-0.24169 -0.07734,-0.696186 -0.08277,-0.934989 0.03544,-1.480171 0.07207,-2.960849 0.151775,-4.439363 0.03829,-0.906338 0.07547,-1.812626 0.120268,-2.71867 0.0033,-0.06666 0.05854,-1.110218 0.05655,-1.261435 -0.0016,-0.123377 -0.02184,-0.245808 -0.03276,-0.368712 0,0 3.92552,-2.000153 3.92552,-2.000153 z"
       inkscape:connector-curvature="0"
       transform="translate(0,966.36218)" />
    <path
       style="fill:#ffffff;fill-opacity:1;fill-rule:nonzero;stroke:none"
       id="path4267"
       d="m 13.576654,21.779443 c 0.192126,1.326736 0.407818,2.645513 0.532196,3.981664 0.152443,2.714753 0.134176,5.435707 0.145265,8.153746 0.01913,2.857141 0.01803,5.714362 0.0337,8.571516 0.01345,2.314832 0.03218,4.629632 0.03812,6.944499 0.0069,1.908911 0.0058,3.817981 0.03841,5.726677 0.02816,1.07668 0.04191,2.153611 0.062,3.230428 0.0032,0.757518 0.0056,1.515038 0.0069,2.272561 0.0233,0.706659 -0.0064,1.413011 -0.0079,2.11962 0.03644,0.270569 -0.0329,0.658067 0.169487,0.887854 0.196596,0.223209 0.676535,0.233503 0.930349,0.275967 0.577613,0.02151 1.162441,0.05751 1.74018,0.01268 0.259323,-0.02012 0.855673,-0.123256 1.118364,-0.166327 0,0 -3.423859,2.563011 -3.423859,2.563011 l 0,0 c -0.982653,0.121209 -1.976078,0.170786 -2.962209,0.04858 -0.350347,-0.08008 -0.617024,-0.104217 -0.920895,-0.308171 -0.465151,-0.312202 -0.488129,-0.847057 -0.50215,-1.351542 -0.0015,-0.70392 -0.03131,-1.407576 -0.0079,-2.111554 0.0013,-0.759879 0.0038,-1.519753 0.0069,-2.279627 0.02008,-1.097866 0.03394,-2.195844 0.06194,-3.293579 0.0323,-1.921879 0.03161,-3.844114 0.03898,-5.766201 0.0069,-2.328976 0.02737,-4.657873 0.04445,-6.986793 0.01963,-2.865661 0.02703,-5.73143 0.02274,-8.597154 -0.02302,-2.676819 -0.04155,-5.35988 -0.304268,-8.02618 -0.157176,-1.305138 -0.370059,-2.6027 -0.7571368,-3.861785 0,0 3.8963018,-2.039884 3.8963018,-2.039884 z"
       inkscape:connector-curvature="0"
       transform="translate(0,966.36218)" />
    <path
       style="fill:#ffffff;fill-opacity:1;fill-rule:nonzero;stroke:none"
       id="path4269"
       d="m 28.243939,1025.2663 c -0.776048,-0.02 -1.561225,-0.085 -2.330535,0.033 -0.860905,0.135 -1.693661,0.4384 -2.482381,0.8044 -0.147696,0.073 -0.293919,0.1487 -0.443086,0.2184 -1.369322,0.64 -3.632734,1.8923 2.460137,-1.4717 0.137843,-0.076 -0.260312,0.1778 -0.382916,0.2766 -0.11932,0.096 -0.227882,0.2049 -0.341823,0.3074 -0.593906,0.5784 -1.156172,1.1873 -1.606898,1.8846 -0.430115,0.7666 -0.446191,1.6565 -0.490082,2.5121 -0.02914,1.0542 -0.0168,2.1086 -0.0039,3.1629 -0.02464,0.8251 0.08205,1.6306 0.320138,2.4187 0.222264,0.7025 0.601351,1.3406 1.091764,1.8872 0.610456,0.5793 1.478445,0.6379 2.275977,0.7162 1.16533,0.086 2.334645,0.07 3.502079,0.058 0.79486,-0.083 1.567959,-0.2846 2.351409,-0.4302 1.365593,-0.5696 3.373939,-1.7819 -2.705308,1.611 -0.130942,0.073 0.254374,-0.1592 0.376547,-0.2461 0.392535,-0.2794 0.414786,-0.3194 0.765716,-0.6412 0.888347,-0.946 1.33452,-2.1804 1.789142,-3.372 0.400986,-1.122 0.580262,-2.2999 0.657088,-3.4839 0.04772,-0.7862 0.06766,-1.5704 -0.0549,-2.3496 -0.07458,-0.7284 -0.321132,-1.3694 -0.788041,-1.9318 -0.353018,-0.3595 -0.749952,-0.7122 -1.194934,-0.9569 -0.16051,-0.088 -0.651711,-0.2816 -0.799647,-0.3418 -0.99428,-0.3283 -2.018993,-0.5646 -3.052265,-0.7332 0,0 3.526862,-2.464 3.526862,-2.464 l 0,0 c 1.041526,0.2205 2.091329,0.4457 3.093413,0.8082 0.844468,0.3374 1.541289,0.7791 2.152802,1.4623 0.483504,0.632 0.816558,1.3236 0.892648,2.1262 0.03092,0.1813 0.106851,0.5998 0.118487,0.78 0.03594,0.5565 -0.03996,1.1201 -0.044,1.6763 -0.110823,1.2295 -0.301463,2.4513 -0.687069,3.6285 -0.407681,1.1469 -0.07226,0.2393 -0.515281,1.3454 -0.304589,0.7605 -0.604366,1.5209 -1.127183,2.1657 -0.320157,0.3407 -0.667985,0.7323 -1.076296,0.9733 -1.564585,0.9233 -3.023297,2.1187 -4.795616,2.5654 -0.778302,0.1554 -1.56083,0.3158 -2.357314,0.3323 -1.171756,-0.013 -2.344879,-0.024 -3.51429,-0.1044 -0.905662,-0.1014 -1.86366,-0.2404 -2.505478,-0.9542 -0.506164,-0.6088 -0.938703,-1.2799 -1.166028,-2.0455 -0.27619,-0.8241 -0.401817,-1.6757 -0.359536,-2.5468 0.0049,-1.0619 10e-4,-2.1238 0.01448,-3.1856 0.01249,-0.8956 -0.01217,-1.8412 0.34967,-2.6773 0.390584,-0.772 0.992757,-1.3893 1.585578,-2.0112 0.07464,-0.076 0.594299,-0.6123 0.684596,-0.6672 1.780735,-1.0823 3.486252,-2.1475 5.374725,-2.9682 0.829426,-0.3351 1.683079,-0.6336 2.580442,-0.7133 0.809878,-0.043 1.621335,-0.01 2.431363,-0.052 0,0 -3.570221,2.5939 -3.570221,2.5939 z"
       inkscape:connector-curvature="0" />
    <path
       style="fill:#ffffff;fill-opacity:1;fill-rule:nonzero;stroke:none"
       id="path4271"
       d="m 38.024071,64.750011 c 0.569364,0.03609 1.092149,0.262084 1.637019,0.415126 0,0 -3.57223,2.447342 -3.57223,2.447342 l 0,0 c -0.549419,-0.157607 -1.09385,-0.313807 -1.671031,-0.31977 0,0 3.606242,-2.542698 3.606242,-2.542698 z"
       inkscape:connector-curvature="0"
       transform="translate(0,966.36218)" />
    <path
       style="fill:#ffffff;fill-opacity:1;fill-rule:nonzero;stroke:none"
       id="path4273"
       d="m 54.828572,67.207345 c 0.827713,-0.0053 1.640805,0.152302 2.45891,0.258907 0,0 -3.541603,2.497752 -3.541603,2.497752 l 0,0 c -0.820823,-0.125711 -1.641934,-0.2597 -2.475682,-0.171349 0,0 3.558375,-2.58531 3.558375,-2.58531 z"
       inkscape:connector-curvature="0"
       transform="translate(0,966.36218)" />
    <path
       style="fill:#ffffff;fill-opacity:1;fill-rule:nonzero;stroke:none"
       id="path4279"
       d="M 9.8326836,24.437664 C 9.1189152,24.433694 8.4122148,24.293892 7.7153864,24.145148 6.9290746,23.909208 6.2701078,23.432657 5.6518264,22.909128 5.0565653,22.40213 4.7967141,21.955515 4.5507762,21.228828 4.3426897,20.40774 4.3381574,19.542721 4.347846,18.699576 c 0.055294,-0.70583 0.2483412,-1.408722 0.681534,-1.982162 0.095271,-0.126115 0.210981,-0.2354 0.3164715,-0.3531 1.5148673,-1.224102 3.3882773,-2.113011 5.0379575,-3.018557 0.176372,-0.09682 0.374264,-0.148018 0.563766,-0.215614 0.439607,-0.156808 0.884588,-0.298144 1.325798,-0.450379 0.870305,-0.238132 1.707532,-0.573524 2.565807,-0.847448 1.021629,-0.326061 0.07441,0.0094 1.026679,-0.339101 0.856318,-0.328026 1.746187,-0.445993 2.65502,-0.482199 0.160576,-0.0058 0.321668,-0.0034 0.481728,-0.01751 0.228196,-0.02014 0.707198,-0.110313 0.935198,-0.137506 0.829126,-0.09889 1.665618,-0.134721 2.498709,-0.176382 4.273587,-0.137248 8.550145,-0.143421 12.825335,-0.196747 2.94309,-0.02667 5.884929,-0.116095 8.827186,-0.183625 0.562114,0.05593 1.153864,0.02639 1.703702,0.183564 0.422998,0.120919 0.809843,0.364657 1.181899,0.590458 0.689117,0.520294 1.272537,1.155534 1.770186,1.858033 0.382784,0.629173 0.721586,1.290782 0.958962,1.989239 0.146865,0.597581 0.291526,1.230774 0.219579,1.850949 -0.0164,0.14139 -0.0533,0.279641 -0.07995,0.419462 -0.208502,0.592892 -0.506154,1.297791 -1.084944,1.630525 -1.338753,0.76962 -2.694974,1.508449 -4.04246,2.262673 -0.894892,0.134187 -1.789915,0.273496 -2.693527,0.348767 -0.944623,0.147537 -1.843466,0.487735 -2.802201,0.539693 -0.697626,0.01882 -1.395241,-0.01551 -2.09268,-0.02983 -0.525975,0.06847 -1.053227,0.11983 -1.583145,0.142771 -0.352476,0.03407 -0.709968,-0.0058 -1.062308,0.02027 -0.174541,0.0129 -0.346569,0.04921 -0.520188,0.07129 -0.524438,-0.0033 -0.994082,0.195852 -1.486876,0.339615 -0.07868,0.01456 -0.157352,0.02912 -0.236028,0.04368 0,0 3.485774,-2.657923 3.485774,-2.657923 l 0,0 c 0.07424,-0.02147 0.148486,-0.04294 0.22273,-0.06441 0.497858,-0.149077 1.002165,-0.234078 1.521386,-0.269772 0.531409,-0.05284 1.065695,-0.03739 1.598363,-0.07412 0.531638,-0.03983 1.062514,-0.114481 1.596282,-0.104888 0.67597,0.02526 1.354092,0.06113 2.029677,0.009 0.928283,-0.130168 1.826532,-0.414679 2.760663,-0.511734 0.897689,-0.106852 1.817323,-0.211298 2.67708,-0.496355 -1.141812,0.668251 -2.288918,1.327537 -3.425436,2.004753 -0.09695,0.05777 0.209078,-0.08725 0.305595,-0.145733 0.443576,-0.268794 0.730405,-0.71909 0.930472,-1.184781 0.03519,-0.117447 0.08099,-0.232223 0.105559,-0.35234 0.114439,-0.559418 -0.041,-1.1516 -0.147936,-1.69854 -0.209858,-0.665397 -0.546992,-1.275711 -0.881689,-1.884675 -0.462192,-0.656429 -1.005573,-1.252336 -1.676482,-1.702361 -0.272788,-0.15823 -0.390219,-0.240433 -0.689559,-0.355051 -0.621243,-0.237875 -1.301845,-0.249184 -1.955486,-0.307256 -2.796065,-0.07076 -5.592299,-0.147214 -8.38967,-0.130108 -4.377033,0.02174 -8.761851,0.06339 -13.124522,0.452277 -1.37318,0.159392 -2.739178,0.399043 -4.120378,0.47402 -0.882375,0.08441 -1.746953,0.252124 -2.57928,0.56716 -1.176928,0.380896 -2.354574,0.759177 -3.5309188,1.141857 -0.3732444,0.133649 -0.9745512,0.342921 -1.3457101,0.498716 -0.185195,0.07774 -0.7186122,0.357018 -0.5470461,0.25259 1.0393563,-0.632629 2.1038775,-1.222971 3.153217,-1.838898 0.152349,-0.08942 -0.3121694,0.166033 -0.4621685,0.259343 -0.1434033,0.08921 -0.2780671,0.191751 -0.4171007,0.287627 -0.1150851,0.08843 -0.2421751,0.163109 -0.3452553,0.265276 -0.4692035,0.465047 -0.6673815,1.13399 -0.7920637,1.7593 -0.037808,0.79333 -0.00986,1.599919 0.1740929,2.375581 0.1853275,0.591908 0.4651042,1.092797 0.9629531,1.484083 0.5687073,0.487044 1.1979932,0.890539 1.9392572,1.054559 0.701771,0.131424 1.409127,0.245978 2.125525,0.18046 0,0 -3.5642974,2.589614 -3.5642974,2.589614 z"
       inkscape:connector-curvature="0"
       transform="translate(0,966.36218)" />
  </g>
</svg>
