<?xml version="1.0" encoding="UTF-8" standalone="no"?>
<!-- Created with Inkscape (http://www.inkscape.org/) -->

<svg
   xmlns:dc="http://purl.org/dc/elements/1.1/"
   xmlns:cc="http://creativecommons.org/ns#"
   xmlns:rdf="http://www.w3.org/1999/02/22-rdf-syntax-ns#"
   xmlns:svg="http://www.w3.org/2000/svg"
   xmlns="http://www.w3.org/2000/svg"
   xmlns:sodipodi="http://sodipodi.sourceforge.net/DTD/sodipodi-0.dtd"
   xmlns:inkscape="http://www.inkscape.org/namespaces/inkscape"
   width="86"
   height="86"
   id="svg3268"
   version="1.1"
   inkscape:version="0.48.5 r10040"
   sodipodi:docname="walking.svg">
  <defs
     id="defs3270" />
  <sodipodi:namedview
     id="base"
     pagecolor="#000000"
     bordercolor="#666666"
     borderopacity="1.0"
     inkscape:pageopacity="0"
     inkscape:pageshadow="2"
     inkscape:zoom="5.6"
     inkscape:cx="67.447691"
     inkscape:cy="43.004767"
     inkscape:document-units="px"
     inkscape:current-layer="layer1"
     showgrid="false"
     inkscape:showpageshadow="false"
     inkscape:window-width="1278"
     inkscape:window-height="780"
     inkscape:window-x="0"
     inkscape:window-y="0"
     inkscape:window-maximized="1" />
  <metadata
     id="metadata3273">
    <rdf:RDF>
      <cc:Work
         rdf:about="">
        <dc:format>image/svg+xml</dc:format>
        <dc:type
           rdf:resource="http://purl.org/dc/dcmitype/StillImage" />
        <dc:title></dc:title>
      </cc:Work>
    </rdf:RDF>
  </metadata>
  <g
     inkscape:label="Layer 1"
     inkscape:groupmode="layer"
     id="layer1"
     transform="translate(0,-966.36218)">
    <path
       style="fill:#ffffff;fill-opacity:1;fill-rule:nonzero;stroke:none"
       id="path5238"
       d="m 40.925308,999.12337 c 0.656698,1.91973 0.608364,4.02683 0.668111,6.03183 0.109399,4.0315 0.06689,8.0628 -0.117681,12.0911 -0.193653,3.3112 -0.36007,6.6267 -0.677828,9.9288 -0.144793,1.4052 -0.246627,2.8145 -0.287004,4.2266 -0.02209,0.7063 -0.0016,1.4129 -0.0046,2.1193 0.01097,0.7403 -0.0108,1.4804 -0.01581,2.2206 0.0054,0.8092 0.0058,1.6185 0.0139,2.4276 -0.0024,0.5 -0.0015,1 -9.52e-4,1.5 0,0 -3.863926,1.9688 -3.863926,1.9688 l 0,0 c 5.93e-4,-0.4997 0.0015,-0.9994 -9.17e-4,-1.499 0.0081,-0.8136 0.0084,-1.6272 0.01257,-2.4407 -0.0063,-0.7331 -0.03018,-1.4659 -0.02489,-2.1991 -0.0067,-0.7211 0.01099,-1.4425 0.04397,-2.1628 0.09184,-1.4618 0.285474,-2.9126 0.491575,-4.3622 0.05393,-0.3858 0.314146,-2.2369 0.352349,-2.5563 0.297226,-2.4855 0.477752,-4.9871 0.613672,-7.4857 0.195521,-3.9923 0.24414,-7.9911 -0.01141,-11.9828 -0.0842,-1.1415 -0.114925,-1.8082 -0.262038,-2.918 -0.12351,-0.9317 -0.268372,-1.9086 -0.751653,-2.7315 0,0 3.822591,-2.17653 3.822591,-2.17653 z"
       inkscape:connector-curvature="0" />
    <path
       style="fill:#ffffff;fill-opacity:1;fill-rule:nonzero;stroke:none"
       id="path5240"
       d="m 43.057182,1019.1154 c 0.974519,0.9578 1.541597,2.2205 2.07895,3.454 0.951198,2.5569 1.939788,5.0999 2.95411,7.6325 0.988272,2.4657 1.732683,5.0186 2.462512,7.5697 0.362874,1.1255 0.598413,2.2819 0.797099,3.4453 0,0 -3.723208,1.9653 -3.723208,1.9653 l 0,0 c -0.140478,-1.1699 -0.339148,-2.3306 -0.642749,-3.4708 -0.665478,-2.5595 -1.386105,-5.1119 -2.351245,-7.577 -1.025571,-2.5128 -2.00241,-5.0456 -3.081206,-7.5366 -0.562998,-1.1249 -1.126473,-2.3822 -2.209447,-3.1036 0,0 3.715184,-2.3788 3.715184,-2.3788 z"
       inkscape:connector-curvature="0" />
    <path
       style="fill:#ffffff;fill-opacity:1;fill-rule:nonzero;stroke:none"
       id="path5268"
       d="m 45.048053,980.98272 c -0.950184,-0.0401 -1.901317,-0.0484 -2.852113,-0.0674 -2.141987,-0.11709 -4.256189,0.22999 -6.329953,0.73174 -1.092885,0.29917 -0.984934,0.22949 -2.012433,0.666 -0.293051,0.12449 -1.140805,0.56306 -0.867688,0.3994 5.651483,-3.38659 3.03871,-1.83331 2.219481,-1.09361 -0.178362,0.16104 -0.334384,0.34523 -0.501576,0.51784 -0.939313,1.18426 -1.228051,2.66219 -1.430873,4.12166 -0.10681,0.92282 -0.142463,1.85061 -0.1562,2.77869 -0.0075,0.50706 -0.02129,1.13438 0.02546,1.64196 0.02392,0.25977 0.07507,0.51632 0.112608,0.77448 0.255573,1.21053 0.648865,2.58471 1.552673,3.48868 0.181253,0.18128 0.401952,0.31827 0.602928,0.47741 1.90544,1.02759 4.08076,1.20873 6.199718,1.36685 1.785471,0.0986 3.573774,0.0834 5.360944,0.0669 0.756152,-0.003 1.523287,-0.008 2.267802,-0.16177 0.855241,-0.17647 1.674514,-0.51021 2.478615,-0.83932 2.235976,-1.33774 -1.180985,0.72083 -2.226954,1.16296 -0.228384,0.0965 0.348557,-0.35561 0.492225,-0.55769 0.484017,-0.68083 0.647445,-1.45538 0.821249,-2.2534 0.170752,-1.5945 0.44516,-3.32167 0.04466,-4.9038 -0.08725,-0.34465 -0.228633,-0.67329 -0.342949,-1.00994 -0.882223,-1.96672 -2.331897,-3.59524 -4.184122,-4.70258 -0.364926,-0.21816 -0.754427,-0.39231 -1.131641,-0.58847 -1.641344,-0.77859 -3.414007,-1.09299 -5.212276,-1.18911 -0.993727,-0.0145 -1.993129,-0.045 -2.98385,0.0476 0,0 3.477501,-2.56134 3.477501,-2.56134 l 0,0 c 0.987607,-0.037 1.979428,-0.0287 2.965092,0.0447 1.779573,0.20499 3.524718,0.60649 5.119047,1.45763 0.382415,0.21147 0.778065,0.4006 1.147245,0.63441 1.880416,1.1909 3.409348,2.87737 4.379897,4.87808 0.346285,0.93594 0.481514,1.12346 0.593703,2.11005 0.03872,0.34047 0.03291,0.68474 0.03464,1.0274 0.0049,0.97977 -0.06079,1.96165 -0.162329,2.93549 -0.139087,0.84283 -0.268753,1.66735 -0.703664,2.42085 -1.115527,1.93272 -3.509513,2.582 -5.401639,3.61764 -0.68028,0.25352 -0.994948,0.38907 -1.703452,0.57757 -1.037634,0.2762 -2.11163,0.3569 -3.182295,0.3336 -1.75035,-0.013 -3.502639,-0.042 -5.247665,-0.1896 -2.204218,-0.1871 -4.485871,-0.3835 -6.445681,-1.50216 -0.219658,-0.1843 -0.459844,-0.34659 -0.658974,-0.55289 -0.398011,-0.41236 -0.635412,-0.85064 -0.88691,-1.35787 -0.365434,-0.73702 -0.632062,-1.50683 -0.766456,-2.32041 -0.04287,-0.27225 -0.100938,-0.54254 -0.128622,-0.81675 -0.06053,-0.59956 -0.03545,-1.08071 -0.01503,-1.68178 0.0213,-0.62699 0.04162,-1.25408 0.0723,-1.88069 0.01513,-0.30893 0.03833,-0.61741 0.05749,-0.92612 0.153804,-1.52163 0.394712,-3.05087 1.283004,-4.33951 0.164927,-0.19176 0.316917,-0.39545 0.494783,-0.57526 1.303354,-1.31766 3.738585,-2.39476 4.916617,-3.04925 0.339876,-0.18883 1.495523,-0.59745 1.836039,-0.6994 0.342405,-0.10251 0.692743,-0.17637 1.039114,-0.26455 2.130438,-0.4687 4.290731,-0.78664 6.479081,-0.72578 1.012609,-0.0192 2.02549,-0.0285 3.037572,-0.0674 0,0 -3.576144,2.59822 -3.576144,2.59822 z"
       inkscape:connector-curvature="0" />
    <path
       style="fill:#ffffff;fill-opacity:1;fill-rule:nonzero;stroke:none"
       id="path5489"
       d="m 42.774602,36.899842 c 0.115132,0.01667 0.231511,0.02626 0.345396,0.05 0.684207,0.142606 1.362906,0.312961 2.050941,0.441409 0.98981,0.184785 1.187683,0.193531 2.224732,0.32525 1.974389,0.246674 3.928573,0.624925 5.903905,0.865417 0,0 -3.325842,2.343171 -3.325842,2.343171 l 0,0 c -1.913414,-0.330205 -3.809887,-0.769744 -5.744877,-0.963549 -1.168583,-0.125013 -1.216058,-0.117982 -2.331575,-0.281306 -0.715298,-0.104727 -1.437798,-0.261749 -2.161715,-0.301637 -0.127393,-0.007 -0.255127,0.0049 -0.382691,0.0073 0,0 3.421726,-2.48603 3.421726,-2.48603 z"
       inkscape:connector-curvature="0"
       transform="translate(0,966.36218)" />
    <path
       style="fill:#ffffff;fill-opacity:1;fill-rule:nonzero;stroke:none"
       id="path5497"
       d="m 43.179822,40.738388 c 0.08163,0.07083 0.158007,0.148196 0.244878,0.212483 0.550712,0.407549 1.161364,0.748491 1.736258,1.119207 1.914309,1.234425 -0.265832,-0.149516 1.841843,1.181678 1.026792,0.637241 2.023014,1.326816 3.056283,1.953606 0.891831,0.540992 1.826766,1.0112 2.747611,1.499841 0.929709,0.48329 1.867991,0.948057 2.813579,1.39928 0,0 -3.407389,2.239753 -3.407389,2.239753 l 0,0 c -0.91219,-0.488338 -1.816371,-0.991576 -2.735019,-1.467834 -0.575272,-0.329229 -1.156167,-0.648693 -1.728029,-0.983811 -1.366076,-0.800537 -2.666704,-1.705243 -4.021135,-2.524763 -0.641862,-0.374281 -1.280151,-0.754716 -1.924277,-1.125089 -0.62989,-0.362188 -1.289678,-0.682987 -1.905376,-1.069452 -0.111319,-0.06987 -0.215032,-0.151187 -0.322548,-0.226781 0,0 3.603321,-2.208118 3.603321,-2.208118 z"
       inkscape:connector-curvature="0"
       transform="translate(0,966.36218)" />
  </g>
</svg>
