<?xml version="1.0" encoding="UTF-8" standalone="no"?>
<!-- Created with Inkscape (http://www.inkscape.org/) -->

<svg
   xmlns:dc="http://purl.org/dc/elements/1.1/"
   xmlns:cc="http://creativecommons.org/ns#"
   xmlns:rdf="http://www.w3.org/1999/02/22-rdf-syntax-ns#"
   xmlns:svg="http://www.w3.org/2000/svg"
   xmlns="http://www.w3.org/2000/svg"
   xmlns:sodipodi="http://sodipodi.sourceforge.net/DTD/sodipodi-0.dtd"
   xmlns:inkscape="http://www.inkscape.org/namespaces/inkscape"
   width="86"
   height="86"
   id="svg3268"
   version="1.1"
   inkscape:version="0.48.5 r10040"
   sodipodi:docname="walking.svg">
  <defs
     id="defs3270" />
  <sodipodi:namedview
     id="base"
     pagecolor="#000000"
     bordercolor="#666666"
     borderopacity="1.0"
     inkscape:pageopacity="0"
     inkscape:pageshadow="2"
     inkscape:zoom="5.6"
     inkscape:cx="67.447691"
     inkscape:cy="43.004767"
     inkscape:document-units="px"
     inkscape:current-layer="layer1"
     showgrid="false"
     inkscape:showpageshadow="false"
     inkscape:window-width="1278"
     inkscape:window-height="780"
     inkscape:window-x="0"
     inkscape:window-y="0"
     inkscape:window-maximized="1" />
  <metadata
     id="metadata3273">
    <rdf:RDF>
      <cc:Work
         rdf:about="">
        <dc:format>image/svg+xml</dc:format>
        <dc:type
           rdf:resource="http://purl.org/dc/dcmitype/StillImage" />
        <dc:title></dc:title>
      </cc:Work>
    </rdf:RDF>
  </metadata>
  <g
     inkscape:label="Layer 1"
     inkscape:groupmode="layer"
     id="layer1"
     transform="translate(0,-966.36218)">
    <path
       style="fill:#ffffff;fill-opacity:1;fill-rule:nonzero;stroke:none"
       id="path3309"
       d="m 44.680469,1005.5001 c 0.531656,0.6978 1.103829,1.3673 1.716657,1.995 0.688162,0.6656 1.214037,1.4016 1.966946,2.0008 0.72878,0.5018 1.408401,1.0674 2.084161,1.637 0.678459,0.5215 1.434215,0.9261 2.138195,1.409 0.525055,0.3542 1.050968,0.7043 1.560649,1.0806 0,0 -3.628388,2.3025 -3.628388,2.3025 l 0,0 c -0.513865,-0.3675 -1.040343,-0.7154 -1.572864,-1.0553 -0.719849,-0.4791 -1.476097,-0.9052 -2.150076,-1.4516 -0.683495,-0.5581 -1.363089,-1.1198 -2.083128,-1.6311 -0.121449,-0.1 -0.248827,-0.1922 -0.364346,-0.2985 -0.585696,-0.539 -0.998066,-1.2472 -1.614758,-1.7576 -0.62417,-0.6556 -1.210568,-1.3457 -1.843242,-1.9934 0,0 3.790194,-2.2374 3.790194,-2.2374 z"
       inkscape:connector-curvature="0" />
    <path
       style="fill:#ffffff;fill-opacity:1;fill-rule:nonzero;stroke:none"
       id="path3311"
       d="m 45.017038,1013.8358 c 0.848022,0.5377 1.830152,0.826 2.796663,1.0678 0.685464,0.1984 1.412731,0.1577 2.101114,0.3332 0.06863,0.017 0.777321,0.2541 0.860525,0.2817 0.511468,0.1526 0.26112,0.072 0.751324,0.2397 0,0 -3.590238,2.4312 -3.590238,2.4312 l 0,0 c -0.474207,-0.1638 -0.229931,-0.082 -0.733068,-0.2454 -0.295236,-0.096 -0.509959,-0.1747 -0.814722,-0.241 -0.688035,-0.1497 -1.400908,-0.1811 -2.076795,-0.3932 -0.631918,-0.1821 -1.249363,-0.3772 -1.863983,-0.6117 -0.248867,-0.095 -0.720642,-0.2647 -0.971506,-0.4085 -0.09062,-0.052 -0.167387,-0.125 -0.251081,-0.1875 0,0 3.791767,-2.2663 3.791767,-2.2663 z"
       inkscape:connector-curvature="0" />
    <path
       style="fill:#ffffff;fill-opacity:1;fill-rule:nonzero;stroke:none"
       id="path3626"
       d="m 40.01338,1022.139 c 0.332232,1.3966 1.027848,2.6616 1.648437,3.9438 0.567764,1.0745 1.216709,2.1028 1.82383,3.1545 0.599164,1.038 1.156896,2.0993 1.749722,3.141 0.712969,1.3046 1.515854,2.5563 2.276992,3.8326 0.482511,0.7202 0.862554,1.4968 1.277745,2.2552 0.368113,0.634 0.72738,1.2688 1.137897,1.8768 0.257464,0.4525 0.42616,0.9469 0.618082,1.4289 0,0 -3.779678,2.108 -3.779678,2.108 l 0,0 c -0.177734,-0.4562 -0.349262,-0.9147 -0.59734,-1.3391 -0.397382,-0.6294 -0.756065,-1.2792 -1.13667,-1.9182 -0.408885,-0.7598 -0.763426,-1.5483 -1.234755,-2.2738 -0.688632,-1.3187 -1.446722,-2.6006 -2.101405,-3.9375 -0.556745,-1.0545 -1.098683,-2.1206 -1.698318,-3.1517 -0.615932,-1.0591 -1.283977,-2.0886 -1.904705,-3.145 -0.658343,-1.278 -1.378135,-2.5229 -1.949724,-3.8442 0,0 3.86989,-2.1313 3.86989,-2.1313 z"
       inkscape:connector-curvature="0" />
    <path
       style="fill:#ffffff;fill-opacity:1;fill-rule:nonzero;stroke:none"
       id="path3894"
       d="M 42.495213,32.336685 C 42.320062,34.2488 41.70174,36.09237 41.189364,37.9342 c -0.88845,3.185302 -1.601287,6.415906 -2.145478,9.677073 -0.615113,3.504346 -0.966631,7.046587 -1.362941,10.58024 -0.273336,2.692049 -0.688327,5.366355 -0.953075,8.059166 -0.227507,2.083304 -0.449733,4.166916 -0.669039,6.251122 -0.147983,1.092929 -0.128372,2.198964 -0.226972,3.294861 0,0 -3.879951,1.911187 -3.879951,1.911187 l 0,0 c 0.205239,-1.104422 0.132943,-2.252457 0.364786,-3.357059 0.297749,-2.095533 0.558676,-4.19377 0.781436,-6.298744 0.308951,-2.715045 0.742737,-5.413226 1.070852,-8.125943 0.10622,-0.766974 0.361564,-2.585339 0.449142,-3.325627 0.07155,-0.604852 0.119922,-1.212297 0.191463,-1.817151 0.216718,-1.83226 0.49695,-3.657142 0.779161,-5.480131 0.263505,-1.717505 0.552199,-3.426177 0.926719,-5.123746 0.115203,-0.522175 0.251045,-1.039603 0.371046,-1.560696 0.609029,-2.644649 0.05602,-0.410229 0.706655,-2.967873 0.453318,-1.807927 0.216297,-0.826622 0.611751,-2.535939 0.20942,-0.905201 0.45495,-1.844769 0.371297,-2.781427 0,0 3.918997,-1.996828 3.918997,-1.996828 z"
       inkscape:connector-curvature="0"
       transform="translate(0,966.36218)" />
    <path
       style="fill:#ffffff;fill-opacity:1;fill-rule:nonzero;stroke:none"
       id="path3896"
       d="m 42.172511,984.37342 c -0.80649,-0.0742 -1.596494,0.13283 -2.374542,0.32012 -0.759208,0.23081 -1.541209,0.38281 -2.298587,0.62057 -0.45118,0.14163 -0.624893,0.23312 -1.052771,0.42326 -1.756602,1.03109 1.068725,-0.62972 2.773166,-1.57664 0.150008,-0.0833 -0.28887,0.18574 -0.427073,0.28747 -0.388148,0.28569 -0.723722,0.62424 -1.056546,0.97027 -0.798024,0.84163 -1.316878,1.87245 -1.80632,2.91041 -0.348863,0.76808 -0.658628,1.54261 -0.833604,2.36885 -0.124453,0.73079 -0.128989,1.47411 -0.134374,2.21323 -0.0019,0.47411 -0.03,0.95241 0.115939,1.4112 0.09164,0.28807 0.208243,0.48887 0.345401,0.75959 0.476796,0.83218 1.118693,1.54784 1.860037,2.15035 0.492943,0.38731 1.097667,0.45438 1.691524,0.56446 0.559835,0.10377 0.503818,0.10215 1.053263,0.26036 0.829597,0.27248 1.684285,0.42597 2.552363,0.49709 0.772336,0.035 1.54825,0.078 2.31751,-0.01 1.271946,-0.25888 2.512379,-0.64761 3.723195,-1.11158 1.349641,-0.66115 4.047883,-2.14575 -1.960162,1.18288 -0.15948,0.088 0.310306,-0.1926 0.454892,-0.30367 0.376713,-0.28937 0.514087,-0.4625 0.838291,-0.80624 0.758487,-0.90748 1.522633,-1.81679 2.195918,-2.79002 0.546412,-0.785 0.808117,-1.66568 0.921298,-2.60297 0.03704,-0.66812 0.129721,-1.34916 0.03213,-2.01691 -0.0642,-0.43927 -0.138663,-0.60375 -0.277891,-1.03434 -0.426736,-1.06859 -1.186058,-1.72367 -2.026553,-2.45218 -0.736749,-0.635 -1.542228,-1.19399 -2.364702,-1.71292 -0.696441,-0.4687 -1.32676,-1.02515 -2.015813,-1.50517 -0.408804,-0.23982 -0.861724,-0.3951 -1.311187,-0.53989 0,0 3.580074,-2.42771 3.580074,-2.42771 l 0,0 c 0.484547,0.16936 0.975584,0.33273 1.391093,0.64538 0.660291,0.50151 1.295866,1.03757 1.985087,1.49922 0.818667,0.55495 1.635049,1.12631 2.383891,1.77235 0.851819,0.75579 1.666791,1.59037 2.109179,2.6595 0.142234,0.3822 0.285093,0.71082 0.357397,1.11398 0.122735,0.68436 0.0032,1.39518 0.01463,2.08371 -0.02599,0.2904 -0.05147,0.65314 -0.105271,0.94025 -0.125394,0.6692 -0.419096,1.29829 -0.775975,1.87293 -0.647706,1.00336 -1.419929,1.91083 -2.162397,2.84495 -0.05925,0.0674 -0.728386,0.83191 -0.792502,0.8901 -0.139224,0.12634 -0.294059,0.23632 -0.45564,0.33244 -1.751911,1.04216 -3.457376,2.17541 -5.342636,2.9566 -1.25419,0.4485 -2.533682,0.8633 -3.852974,1.068 -0.797155,0.054 -1.597783,0.039 -2.39334,-0.04 -0.868783,-0.1093 -1.715642,-0.3143 -2.548967,-0.5841 -0.981009,-0.2482 -2.057258,-0.295 -2.868311,-0.96819 -0.757246,-0.664 -1.427063,-1.42415 -1.944393,-2.29187 -0.44013,-0.80045 -0.666988,-1.41563 -0.591878,-2.34229 0.0038,-0.76299 0.0075,-1.52867 0.108222,-2.28639 0.142654,-0.87813 0.452348,-1.6894 0.831526,-2.49218 0.505791,-1.04706 0.987446,-2.11772 1.741514,-3.01626 1.573884,-1.87124 3.83972,-2.95071 6.02702,-3.99137 1.108468,-0.42337 2.266414,-0.68799 3.409894,-0.99933 0.834398,-0.18218 1.672248,-0.32853 2.530174,-0.31352 0,0 -3.570221,2.59391 -3.570221,2.59391 z"
       inkscape:connector-curvature="0" />
  </g>
</svg>
