<?xml version="1.0" encoding="UTF-8" standalone="no"?>
<!-- Created with Inkscape (http://www.inkscape.org/) -->

<svg
   xmlns:dc="http://purl.org/dc/elements/1.1/"
   xmlns:cc="http://creativecommons.org/ns#"
   xmlns:rdf="http://www.w3.org/1999/02/22-rdf-syntax-ns#"
   xmlns:svg="http://www.w3.org/2000/svg"
   xmlns="http://www.w3.org/2000/svg"
   xmlns:sodipodi="http://sodipodi.sourceforge.net/DTD/sodipodi-0.dtd"
   xmlns:inkscape="http://www.inkscape.org/namespaces/inkscape"
   width="86"
   height="86"
   id="svg3135"
   version="1.1"
   inkscape:version="0.48.5 r10040"
   sodipodi:docname="bike.svg">
  <defs
     id="defs3137" />
  <sodipodi:namedview
     id="base"
     pagecolor="#000000"
     bordercolor="#666666"
     borderopacity="1.0"
     inkscape:pageopacity="0"
     inkscape:pageshadow="2"
     inkscape:zoom="5.6"
     inkscape:cx="72.477427"
     inkscape:cy="38.755257"
     inkscape:document-units="px"
     inkscape:current-layer="layer1"
     showgrid="false"
     inkscape:showpageshadow="false"
     inkscape:window-width="1278"
     inkscape:window-height="780"
     inkscape:window-x="0"
     inkscape:window-y="0"
     inkscape:window-maximized="1" />
  <metadata
     id="metadata3140">
    <rdf:RDF>
      <cc:Work
         rdf:about="">
        <dc:format>image/svg+xml</dc:format>
        <dc:type
           rdf:resource="http://purl.org/dc/dcmitype/StillImage" />
        <dc:title></dc:title>
      </cc:Work>
    </rdf:RDF>
  </metadata>
  <g
     inkscape:label="Layer 1"
     inkscape:groupmode="layer"
     id="layer1"
     transform="translate(0,-966.36218)">
    <path
       style="fill:#ffffff;fill-opacity:1;fill-rule:nonzero;stroke:none"
       id="path3143"
       d="m 21.795543,55.169741 c -0.813312,-0.02359 -1.627239,-0.01678 -2.440813,-0.01531 -0.976038,0.09669 -1.919287,0.407751 -2.817018,0.792334 -0.131889,0.06681 -0.523148,0.2753 -0.395666,0.200426 3.584282,-2.105176 1.809862,-1.112549 1.136664,-0.548072 -0.252255,0.211516 -0.372577,0.355287 -0.596998,0.595734 -0.60327,0.742961 -0.996342,1.602051 -1.263918,2.51361 -0.295502,1.204726 -0.329097,2.449785 -0.352472,3.683675 -0.0061,1.035453 0.0036,2.07092 0.0071,3.106377 -0.04252,0.958676 0.2036,1.68063 0.628669,2.522663 0.378781,0.612288 0.804755,1.241774 1.354237,1.71883 0.107353,0.0932 0.22976,0.167502 0.34464,0.251253 0.137507,0.06566 0.270369,0.142098 0.41252,0.196987 0.431082,0.166452 0.542089,0.148467 0.991812,0.256122 0.563045,0.134783 1.119023,0.286 1.685442,0.408048 1.164596,0.200604 2.342227,0.31941 3.521007,0.396744 1.365344,0.07157 2.733047,0.07911 4.099941,0.07892 1.128893,-0.0085 2.261516,0.03412 3.378793,-0.149251 0.164412,-0.04675 0.328968,-0.09299 0.493237,-0.140241 0.424294,-0.12204 0.694189,-0.185493 1.097167,-0.37151 0.187836,-0.08671 0.726545,-0.395989 0.547319,-0.292652 -2.114862,1.219371 -2.065735,1.205872 -1.106378,0.567457 0.862368,-0.592921 1.521019,-1.422409 1.92173,-2.389462 0.08732,-0.21073 0.151059,-0.430473 0.226588,-0.64571 0.368775,-1.494441 0.71002,-2.995119 0.933956,-4.518573 0.186432,-1.41022 0.208928,-2.83327 0.22505,-4.253298 0.02551,-0.723566 -0.03217,-1.45086 -0.271559,-2.139037 -0.103917,-0.298733 -0.264398,-0.593032 -0.405941,-0.873905 -0.445953,-0.884396 -1.070799,-1.65143 -1.728366,-2.384434 -0.489639,-0.436681 -0.973619,-0.893783 -1.546434,-1.222749 -0.325674,-0.187033 -0.441746,-0.212602 -0.788994,-0.338682 -0.950192,-0.236707 -1.937392,-0.242332 -2.910908,-0.251327 -0.799331,-0.001 -1.598589,0.0111 -2.397909,0.01314 -0.74724,-0.0032 -1.494753,-0.01972 -2.226264,0.148171 -0.737842,0.196056 -1.494804,0.262504 -2.221216,0.499559 -0.382791,0.159222 -0.761519,0.319147 -1.133217,0.502767 0,0 2.027154,-1.614395 2.027154,-1.614395 l 0,0 c 0.382053,-0.173209 0.765829,-0.342116 1.163657,-0.476879 0.73665,-0.201852 1.496059,-0.293362 2.237164,-0.479056 0.746896,-0.119246 1.499462,-0.116821 2.25445,-0.108789 0.796227,-0.006 1.592568,-0.01091 2.388771,3.17e-4 0.994916,0.02322 2.006585,0.04385 2.969047,0.322987 0.953433,0.397206 1.649158,0.961744 2.39398,1.669795 0.660107,0.758642 1.301781,1.539071 1.755321,2.443786 0.540373,1.045024 0.78621,1.940921 0.717208,3.133127 -0.02428,1.435031 -0.07768,2.872271 -0.243722,4.298743 -0.212022,1.533924 -0.566039,3.038841 -0.895701,4.550787 -0.0708,0.223089 -0.130244,0.450102 -0.212389,0.669266 -0.373481,0.996451 -0.994639,1.889113 -1.860897,2.514125 -1.680632,1.161733 -3.435087,2.305714 -5.460793,2.707418 -1.119907,0.134995 -2.246866,0.115062 -3.37316,0.09911 -1.373958,-0.01048 -2.749054,-0.0059 -4.121357,-0.08346 -1.189519,-0.08264 -2.379808,-0.204046 -3.552701,-0.421959 -0.564947,-0.130259 -1.127584,-0.26917 -1.6912,-0.405052 -0.391644,-0.09442 -0.662257,-0.14276 -1.03528,-0.302053 -0.153399,-0.06551 -0.295494,-0.154832 -0.443242,-0.232248 -0.122933,-0.09482 -0.252943,-0.181113 -0.368799,-0.28446 -0.56275,-0.501993 -0.996035,-1.153584 -1.38728,-1.78962 -0.419054,-0.828893 -0.753714,-1.680331 -0.683163,-2.629544 -0.0028,-1.042594 -0.0048,-2.085244 0.02093,-3.127625 0.02932,-1.247645 0.02811,-2.509802 0.311863,-3.732136 0.04593,-0.188822 0.08266,-0.380123 0.137793,-0.566467 0.219187,-0.740853 0.625206,-1.406792 1.048394,-2.045733 0.161095,-0.184168 0.403251,-0.470897 0.5835,-0.637266 0.114806,-0.105966 0.559329,-0.456632 0.696844,-0.538177 2.349346,-1.393124 1.740019,-1.099052 2.991324,-1.672567 0.925769,-0.358689 1.887327,-0.669923 2.886057,-0.719033 0.82763,0.0015 1.655571,0.0078 2.48296,-0.01531 0,0 -2.138579,1.553768 -2.138579,1.553768 z"
       inkscape:connector-curvature="0"
       transform="translate(0,966.36218)" />
    <path
       style="fill:#ffffff;fill-opacity:1;fill-rule:nonzero;stroke:none"
       id="path3145"
       d="m 61.240246,51.41845 c -0.570771,0.05757 -1.151289,0.03318 -1.721238,0.09391 -0.282625,0.03011 -0.846858,0.146525 -1.124904,0.2008 -1.35112,0.240145 -2.612533,0.765378 -3.843205,1.353113 -1.783317,1.010667 1.030016,-0.583897 1.045456,-0.591228 0.192564,-0.09143 -0.346677,0.249256 -0.507134,0.389593 -0.47759,0.417706 -0.877376,0.910535 -1.26138,1.411663 -0.582385,0.823922 -0.907355,1.770451 -1.21813,2.719155 -0.279203,0.89579 -0.33936,1.835236 -0.376375,2.766645 -0.03428,1.060555 -0.02624,2.121909 -0.02115,3.182842 3.21e-4,0.964501 -0.02254,1.922904 0.118906,2.878578 0.226275,1.111856 0.98379,1.95206 1.692259,2.793568 0.879998,0.872002 1.738697,1.769038 2.664247,2.593353 0.986021,0.909814 2.257696,1.368327 3.528999,1.721095 1.204661,0.283418 2.44481,0.332885 3.676924,0.356322 0.577345,-0.02657 1.163203,0.05253 1.739842,0.01019 0.734991,-0.05397 1.48159,-0.234467 2.201861,-0.378698 1.6802,-0.403319 3.361107,-0.808366 4.967985,-1.45108 0.216541,-0.101369 0.853477,-0.429044 0.649623,-0.304107 -3.376287,2.069228 -1.343055,0.811056 -0.826035,0.234362 0.279455,-0.31171 0.389596,-0.538361 0.604531,-0.899131 0.801056,-1.404454 1.027207,-3.011844 1.205568,-4.592515 0.173147,-1.968438 0.178662,-3.946314 0.180551,-5.920789 -0.04315,-0.987451 0.03227,-1.982451 -0.051,-2.968469 -0.03647,-0.431782 -0.0888,-0.656843 -0.166991,-1.073673 -0.217865,-1.069237 -0.655123,-2.061228 -1.210222,-2.993901 -0.471663,-0.665142 -0.832516,-1.444548 -1.442108,-2.003426 -0.105193,-0.09644 -0.226392,-0.173818 -0.339588,-0.260727 -0.810386,-0.528772 -1.805977,-0.470479 -2.729219,-0.594169 -0.879618,-0.143075 -1.766082,-0.225755 -2.655734,-0.267715 -0.612688,-0.02364 -1.225915,-0.02465 -1.83896,-0.02579 0,0 2.107838,-1.530276 2.107838,-1.530276 l 0,0 c 0.613775,0.0033 1.227826,0.0076 1.840871,0.04091 0.885575,0.05578 1.766576,0.156656 2.642576,0.299246 0.969468,0.113373 2.00612,0.09022 2.823205,0.702165 0.119175,0.0994 0.246356,0.189924 0.357526,0.298203 0.604621,0.588899 0.985918,1.364435 1.452877,2.055511 0.576174,0.955987 1.013725,1.98025 1.261869,3.072253 0.05859,0.350552 0.13522,0.764701 0.161208,1.116943 0.07375,0.999567 -0.02642,2.006496 -0.0018,3.006796 -0.01394,1.981925 -0.01727,3.966737 -0.171077,5.943928 -0.153913,1.588347 -0.336298,3.216461 -1.088236,4.65153 -0.17962,0.33489 -0.333405,0.658423 -0.570197,0.958714 -0.209232,0.265341 -0.541609,0.576111 -0.829046,0.751486 -2.433229,1.484592 -1.853243,1.20164 -3.346199,1.854522 -1.622068,0.605666 -3.303515,1.01795 -4.987765,1.412108 -0.747524,0.150078 -1.503608,0.318391 -2.267231,0.365105 -0.583465,0.03569 -1.172424,-0.01869 -1.756252,-0.0068 -1.239604,-0.04125 -2.48596,-0.116373 -3.692823,-0.424591 -1.297201,-0.387897 -2.59506,-0.867295 -3.59499,-1.815317 -0.925167,-0.842352 -1.825447,-1.712451 -2.685389,-2.621491 -0.739513,-0.877482 -1.544779,-1.73929 -1.783688,-2.901095 -0.06859,-0.399582 -0.114713,-0.595892 -0.136067,-0.998049 -0.03386,-0.637615 0.02343,-1.278958 -2.67e-4,-1.916865 6.63e-4,-1.063017 -0.0033,-2.126116 0.01121,-3.189061 0.03245,-0.950148 0.07624,-1.90851 0.339392,-2.828454 0.315538,-0.973839 0.637986,-1.94837 1.21157,-2.807887 0.3764,-0.519324 0.780376,-1.02715 1.244035,-1.473546 1.077566,-1.037448 2.505611,-1.604247 3.802462,-2.322488 1.253378,-0.578809 2.540457,-1.086395 3.908366,-1.321706 0.973015,-0.173563 1.951183,-0.249448 2.937692,-0.302785 0,0 -2.135025,1.551186 -2.135025,1.551186 z"
       inkscape:connector-curvature="0"
       transform="translate(0,966.36218)" />
    <path
       style="fill:#ffffff;fill-opacity:1;fill-rule:nonzero;stroke:none"
       id="path3159"
       d="m 40.149159,60.578968 c 1.893308,0.03015 3.782807,0.147558 5.673927,0.238589 1.974792,0.09419 3.951545,0.12752 5.928278,0.141932 0,0 -2.022366,1.463389 -2.022366,1.463389 l 0,0 c -1.951742,-0.06173 -3.903342,-0.12877 -5.854657,-0.202684 -1.954704,-0.08009 -3.911114,-0.189431 -5.867314,-0.08488 0,0 2.142132,-1.55635 2.142132,-1.55635 z"
       inkscape:connector-curvature="0"
       transform="translate(0,966.36218)" />
    <path
       style="fill:#ffffff;fill-opacity:1;fill-rule:nonzero;stroke:none"
       id="path3167"
       d="m 66.946504,41.946496 c 0.262291,0.723645 0.492531,1.461308 0.703117,2.202059 0.205369,0.746528 0.254632,1.519597 0.28696,2.289228 0.01667,0.556217 0.01693,1.112729 0.01964,1.669135 0,0 -2.331537,1.187372 -2.331537,1.187372 l 0,0 c 0.005,-0.555312 0.0085,-1.110751 -0.004,-1.665997 -0.02256,-0.751748 -0.06167,-1.507154 -0.250471,-2.239004 -0.198438,-0.723162 -0.419681,-1.449175 -0.717314,-2.136879 0,0 2.293554,-1.305914 2.293554,-1.305914 z"
       inkscape:connector-curvature="0"
       transform="translate(0,966.36218)" />
    <path
       style="fill:#ffffff;fill-opacity:1;fill-rule:nonzero;stroke:none"
       id="path3169"
       d="m 64.972735,43.471748 c -0.902237,0.179022 -1.820695,0.234812 -2.731278,0.347105 -0.642705,0.07926 -1.280712,0.192839 -1.921317,0.287578 -1.285171,0.204304 -2.589669,0.281026 -3.875921,0.473696 -0.474333,0.07105 -0.951335,0.18905 -1.418647,0.296375 -0.610793,0.150911 -1.22211,0.300349 -1.83712,0.433086 0,0 2.06514,-1.569348 2.06514,-1.569348 l 0,0 c 0.599208,-0.132448 1.196699,-0.272474 1.796704,-0.401402 1.734341,-0.347728 3.502244,-0.446554 5.249615,-0.716211 0.316605,-0.04791 1.613105,-0.245747 1.941335,-0.289022 0.943012,-0.124332 1.894855,-0.211221 2.816094,-0.462906 0,0 -2.084605,1.601049 -2.084605,1.601049 z"
       inkscape:connector-curvature="0"
       transform="translate(0,966.36218)" />
    <path
       style="fill:#ffffff;fill-opacity:1;fill-rule:nonzero;stroke:none"
       id="path3185"
       d="m 45.941853,11.958038 c -0.764499,-0.02244 -1.529361,-0.02073 -2.294105,-0.02052 -0.775975,1.7e-4 -1.551927,0.0041 -2.327873,0.01041 -0.54193,0.005 -1.0935,-0.0016 -1.618308,0.153294 -0.377815,0.11154 -0.580838,0.223973 -0.938241,0.391785 -0.726875,0.497602 -2.710332,1.370153 0.803206,-0.443999 0.16175,-0.08352 -0.298256,0.208873 -0.444492,0.317283 -0.474384,0.35168 -0.377329,0.28376 -0.808906,0.685181 -0.926947,0.961379 -1.392227,2.200143 -1.708759,3.471857 -0.278911,0.992876 -0.47357,2.001735 -0.574426,3.027324 -0.06169,0.880974 -0.0613,1.76497 -0.06257,2.647681 -0.02334,0.794519 0.0028,1.594049 0.317053,2.332906 0.519935,0.998547 1.520706,1.389616 2.52988,1.736374 1.850951,0.696487 3.816939,0.90565 5.774017,1.048091 1.566222,0.08897 3.135594,0.0953 4.703844,0.08863 0.201252,-6.73e-4 0.402503,-0.0014 0.603755,-0.002 1.299019,-0.0037 2.225432,-0.201075 3.473423,-0.561901 1.729071,-0.511559 3.410957,-1.184088 4.975286,-2.082528 -0.547137,0.28516 -1.056187,0.660061 -1.64141,0.855479 -0.185285,0.06187 0.273392,-0.280712 0.389837,-0.437552 0.50183,-0.675914 0.748501,-1.488477 0.960052,-2.289576 0.174927,-1.030757 0.361735,-2.110393 0.174878,-3.154443 -0.036,-0.201158 -0.09891,-0.39656 -0.14837,-0.594839 -0.37684,-1.170627 -1.15035,-2.102025 -2.055604,-2.905492 -1.00007,-0.763424 -2.218942,-1.171332 -3.411056,-1.531641 -1.356978,-0.333169 -2.714273,-0.644496 -4.100867,-0.822879 -1.209746,-0.130913 -2.427398,-0.152516 -3.643005,-0.162781 0,0 2.06591,-1.495108 2.06591,-1.495108 l 0,0 c 1.216787,0.03527 2.435703,0.068 3.647036,0.19574 1.395695,0.194653 2.76644,0.512663 4.133638,0.85138 1.221851,0.384003 2.467049,0.813494 3.481316,1.619779 0.918831,0.858957 1.740888,1.814547 2.124582,3.037654 0.137427,0.534056 0.211835,0.721468 0.24852,1.277836 0.05686,0.862349 -0.09961,1.733889 -0.217857,2.583314 -0.194309,0.824674 -0.442254,1.672023 -0.908442,2.391449 -0.112734,0.173973 -0.210946,0.372458 -0.380189,0.492177 -0.860144,0.608444 -1.787592,1.115672 -2.681387,1.673508 -1.585542,0.853594 -3.26404,1.521179 -4.993656,2.023086 -0.767642,0.213942 -1.524723,0.416035 -2.319996,0.498813 -0.470059,0.04893 -0.76966,0.03985 -1.239184,0.04035 -0.200546,2.18e-4 -0.401091,-3.34e-4 -0.601637,-5.01e-4 -1.546788,-0.01243 -3.09349,-0.04459 -4.63674,-0.159301 -1.987759,-0.150596 -3.976203,-0.381783 -5.86353,-1.064122 -1.15643,-0.401404 -2.093969,-0.753784 -2.711437,-1.873519 -0.05316,-0.120154 -0.117751,-0.235879 -0.159489,-0.360463 -0.222195,-0.663243 -0.186794,-1.386769 -0.194228,-2.073512 -7.06e-4,-0.890359 -0.0037,-1.781402 0.05725,-2.670276 0.08132,-1.047153 0.294948,-2.072412 0.592863,-3.079786 0.311268,-1.293123 0.739573,-2.56804 1.626689,-3.590774 0.125591,-0.129307 0.242829,-0.267288 0.376773,-0.387923 0.132696,-0.11951 0.280312,-0.22134 0.421344,-0.330888 1.242018,-0.964754 2.665231,-1.66223 4.040573,-2.416105 0.40235,-0.16795 0.55679,-0.252589 0.979672,-0.351154 0.549325,-0.128036 1.119883,-0.126623 1.680249,-0.136601 0.766396,0.0064 1.532799,0.01025 2.299225,0.01041 0.783574,2.19e-4 1.567241,0.0013 2.350586,-0.02052 0,0 -2.145686,1.558933 -2.145686,1.558933 z"
       inkscape:connector-curvature="0"
       transform="translate(0,966.36218)" />
    <path
       style="fill:#ffffff;fill-opacity:1;fill-rule:nonzero;stroke:none"
       id="path3187"
       d="m 45.818556,28.98605 c -0.04642,1.169753 -0.04511,2.340889 -0.04854,3.511387 0.007,1.222887 0.01524,2.445739 0.01233,3.668651 0.0014,1.198207 -0.0023,2.39636 -0.0016,3.594561 -0.01042,1.311035 -0.0032,2.622076 -0.0041,3.933125 0.0016,1.233612 -5.53e-4,2.467239 0.0083,3.700829 0.0075,0.880687 0.0147,1.761393 0.01472,2.642112 0.01774,0.584754 -0.04818,1.167521 -0.09755,1.749283 0,0 -2.333653,1.166012 -2.333653,1.166012 l 0,0 c 0.04219,-0.578548 0.126421,-1.155356 0.117582,-1.736448 1.3e-5,-0.885717 0.0073,-1.771422 0.01471,-2.657108 0.0088,-1.236417 0.0068,-2.47287 0.0083,-3.709308 -8.44e-4,-1.309661 0.0063,-2.619315 -0.0041,-3.928962 6.57e-4,-1.197646 -0.003,-2.395245 -0.0016,-3.592896 -0.0029,-1.2271 0.0054,-2.454139 0.01233,-3.681214 -0.0034,-1.154003 -0.0015,-2.3087 -0.04854,-3.461926 0,0 2.351398,-1.198098 2.351398,-1.198098 z"
       inkscape:connector-curvature="0"
       transform="translate(0,966.36218)" />
    <path
       style="fill:#ffffff;fill-opacity:1;fill-rule:nonzero;stroke:none"
       id="path3189"
       d="m 45.50084,51.365631 c 0.339438,1.307257 0.623448,2.630175 0.946871,3.942337 0.58543,2.369005 1.122302,4.749634 1.715838,7.116594 0.347327,1.426898 0.187078,0.721703 0.482665,2.115149 0,0 -2.171186,1.161996 -2.171186,1.161996 l 0,0 c -0.274402,-1.395225 -0.124648,-0.688246 -0.451337,-2.120498 -0.579789,-2.365765 -1.090176,-4.74841 -1.756067,-7.092697 -0.338687,-1.275005 -0.633541,-2.566135 -1.068874,-3.812107 0,0 2.30209,-1.310774 2.30209,-1.310774 z"
       inkscape:connector-curvature="0"
       transform="translate(0,966.36218)" />
    <path
       style="fill:#ffffff;fill-opacity:1;fill-rule:nonzero;stroke:none"
       id="path3191"
       d="m 45.930095,52.62563 c -0.510155,1.538497 -0.849045,3.13159 -1.163894,4.72005 -0.335275,2.483096 -0.906483,4.919829 -1.447887,7.36277 -0.267257,1.401839 -0.628274,2.781511 -0.991172,4.160651 0,0 -2.247696,1.070241 -2.247696,1.070241 l 0,0 c 0.396885,-1.382472 0.786407,-2.767425 1.060892,-4.1808 0.547825,-2.432734 1.120797,-4.861636 1.422925,-7.341162 0.275648,-1.573344 0.623007,-3.130508 0.978617,-4.687235 0,0 2.388215,-1.104515 2.388215,-1.104515 z"
       inkscape:connector-curvature="0"
       transform="translate(0,966.36218)" />
    <path
       style="fill:#ffffff;fill-opacity:1;fill-rule:nonzero;stroke:none"
       id="path3193"
       d="m 48.374251,35.972837 c 1.618151,0.25789 3.230975,0.572034 4.832251,0.925716 2.644684,0.655948 5.325338,1.171665 7.957134,1.877332 0,0 -2.018552,1.384698 -2.018552,1.384698 l 0,0 c -2.609261,-0.748801 -5.275933,-1.284788 -7.922667,-1.882155 -1.657858,-0.32835 -3.326929,-0.632985 -5.011911,-0.779973 0,0 2.163745,-1.525618 2.163745,-1.525618 z"
       inkscape:connector-curvature="0"
       transform="translate(0,966.36218)" />
    <path
       style="fill:#ffffff;fill-opacity:1;fill-rule:nonzero;stroke:none"
       id="path3195"
       d="m 48.758435,42.256855 c 0.940643,0.411198 1.911243,0.734109 2.842478,1.169918 0.655113,0.334759 1.351423,0.539987 2.073667,0.659771 0,0 -2.131122,1.489084 -2.131122,1.489084 l 0,0 c -0.726078,-0.15023 -1.42209,-0.387973 -2.080463,-0.734272 -0.930761,-0.435952 -1.900942,-0.772706 -2.879667,-1.084199 0,0 2.175107,-1.500302 2.175107,-1.500302 z"
       inkscape:connector-curvature="0"
       transform="translate(0,966.36218)" />
  </g>
</svg>
