<?xml version="1.0" encoding="UTF-8" standalone="no"?>
<!-- Created with Inkscape (http://www.inkscape.org/) -->

<svg
   xmlns:dc="http://purl.org/dc/elements/1.1/"
   xmlns:cc="http://creativecommons.org/ns#"
   xmlns:rdf="http://www.w3.org/1999/02/22-rdf-syntax-ns#"
   xmlns:svg="http://www.w3.org/2000/svg"
   xmlns="http://www.w3.org/2000/svg"
   xmlns:sodipodi="http://sodipodi.sourceforge.net/DTD/sodipodi-0.dtd"
   xmlns:inkscape="http://www.inkscape.org/namespaces/inkscape"
   width="86"
   height="86"
   id="svg3216"
   version="1.1"
   inkscape:version="0.48.5 r10040"
   sodipodi:docname="skate.svg">
  <defs
     id="defs3218" />
  <sodipodi:namedview
     id="base"
     pagecolor="#000000"
     bordercolor="#666666"
     borderopacity="1.0"
     inkscape:pageopacity="0"
     inkscape:pageshadow="2"
     inkscape:zoom="5.6"
     inkscape:cx="48.364281"
     inkscape:cy="41.387639"
     inkscape:document-units="px"
     inkscape:current-layer="layer1"
     showgrid="false"
     inkscape:showpageshadow="false"
     inkscape:window-width="1278"
     inkscape:window-height="780"
     inkscape:window-x="0"
     inkscape:window-y="0"
     inkscape:window-maximized="1" />
  <metadata
     id="metadata3221">
    <rdf:RDF>
      <cc:Work
         rdf:about="">
        <dc:format>image/svg+xml</dc:format>
        <dc:type
           rdf:resource="http://purl.org/dc/dcmitype/StillImage" />
        <dc:title></dc:title>
      </cc:Work>
    </rdf:RDF>
  </metadata>
  <g
     inkscape:label="Layer 1"
     inkscape:groupmode="layer"
     id="layer1"
     transform="translate(0,-966.36218)">
    <path
       style="fill:#ffffff;fill-opacity:1;fill-rule:nonzero;stroke:none"
       id="path3228"
       d="m 43.899234,976.70791 c -2.070359,0.36064 -4.109883,0.87736 -6.159314,1.33834 -2.138937,0.49307 -4.405528,0.77721 -6.454636,1.59725 -0.293256,0.11736 -0.573689,0.26451 -0.860534,0.39677 0.479752,-0.25185 0.90956,-0.64148 1.439256,-0.75556 0.256151,-0.0552 -0.383235,0.35984 -0.547962,0.56361 -0.820275,1.01469 -1.03324,2.26107 -1.245261,3.50819 -0.2065,1.89457 -0.34613,3.81127 -0.134897,5.71258 0.152618,1.37373 0.306667,1.86377 0.616975,3.21505 0.594524,2.02967 1.387848,4.07119 2.942491,5.57324 0.911277,0.88044 1.283561,0.97355 2.392149,1.55286 1.88175,0.74046 3.902926,1.03516 5.914282,1.13196 1.045431,0.05 1.694834,0.012 2.7231,-0.02 1.149672,-0.1026 2.315126,-0.2229 3.422147,-0.57152 0.392924,-0.12374 0.684983,-0.27659 1.053314,-0.45105 -0.586766,0.33032 -1.163851,0.67847 -1.760298,0.99097 -0.155212,0.081 0.295,-0.1899 0.434277,-0.2962 0.146753,-0.1121 0.290237,-0.22935 0.422653,-0.35801 0.598113,-0.58117 0.823397,-1.06402 1.170628,-1.81155 0.92407,-2.40473 1.059263,-4.99972 1.195931,-7.54443 0.156127,-2.63703 0.039,-5.2983 -0.704726,-7.84797 -0.147638,-0.50614 -0.341076,-0.99778 -0.511614,-1.49667 -0.76825,-2.02656 -1.987241,-3.8039 -3.334503,-5.48079 0,0 2.119433,-1.2628 2.119433,-1.2628 l 0,0 c 1.307397,1.73672 2.509245,3.55679 3.27346,5.60751 0.174286,0.50511 0.372451,1.00261 0.522858,1.51534 0.752345,2.56471 0.887381,5.24569 0.750013,7.90072 -0.111378,2.5441 -0.20875,5.12987 -1.034775,7.56371 -0.275157,0.69075 -0.278421,0.82026 -0.684559,1.4095 -0.904848,1.31281 -2.595262,1.93564 -3.869966,2.70584 -0.43534,0.1849 -0.595289,0.2691 -1.062369,0.3976 -1.0928,0.3005 -2.229595,0.3927 -3.356231,0.4554 -2.934026,0.021 -5.920829,-0.1145 -8.673844,-1.2351 -1.145888,-0.6198 -1.497758,-0.7035 -2.432755,-1.63391 -1.554699,-1.54708 -2.342115,-3.63358 -2.967481,-5.68689 -0.323812,-1.36222 -0.480924,-1.85276 -0.651264,-3.23818 -0.233515,-1.89925 -0.126075,-3.81828 0.02702,-5.71877 0.172146,-1.27495 0.350443,-2.54293 1.126046,-3.61433 0.160244,-0.22135 0.308797,-0.46716 0.533864,-0.62215 0.909423,-0.62626 1.894462,-1.13492 2.841693,-1.70238 0.282539,-0.11943 0.559877,-0.252 0.847618,-0.35829 2.062875,-0.762 4.2749,-1.02343 6.40472,-1.52822 2.130773,-0.49729 4.249378,-1.0701 6.404527,-1.45048 0,0 -2.131471,1.54861 -2.131471,1.54861 z"
       inkscape:connector-curvature="0" />
    <path
       style="fill:#ffffff;fill-opacity:1;fill-rule:nonzero;stroke:none"
       id="path3230"
       d="m 39.751042,1001.3749 c -0.0966,1.8529 -0.09007,3.71 -0.10127,5.5649 -0.04901,2.461 -0.10787,4.9217 -0.134211,7.383 -0.02629,1.869 -0.0083,3.738 1.02e-4,5.607 0.0013,1.3642 0.01061,2.7285 0.01098,4.0928 0.0052,0.9884 0.0023,1.9768 0.0091,2.9652 0,0 -2.285916,1.1647 -2.285916,1.1647 l 0,0 c 0.0066,-0.9913 0.0036,-1.9826 0.0081,-2.9739 -4.61e-4,-1.3681 0.0071,-2.7362 0.0106,-4.1043 0.01361,-1.8815 0.04304,-3.763 0.06631,-5.6445 0.04667,-2.4638 0.121108,-4.9271 0.158206,-7.3911 -0.01106,-1.8205 -0.003,-3.6433 -0.101269,-5.4617 0,0 2.359226,-1.2021 2.359226,-1.2021 z"
       inkscape:connector-curvature="0" />
    <path
       style="fill:#ffffff;fill-opacity:1;fill-rule:nonzero;stroke:none"
       id="path3232"
       d="m 40.456592,1026.8295 c 1.96392,0.4071 3.865285,1.0523 5.727278,1.7884 2.485235,1.0017 4.711066,2.3747 6.881067,3.9275 1.044623,0.7328 1.999017,1.5631 2.82639,2.5328 0,0 -2.205324,1.3234 -2.205324,1.3234 l 0,0 c -0.228355,-0.2835 -0.456127,-0.5772 -0.707626,-0.8408 -0.602398,-0.6315 -1.292981,-1.1667 -1.974868,-1.7077 -0.821922,-0.6104 -1.088364,-0.829 -1.971115,-1.3951 -1.532734,-0.9829 -3.161601,-1.8164 -4.850157,-2.4964 -1.897015,-0.7262 -3.845701,-1.3676 -5.869178,-1.6242 0,0 2.143533,-1.5079 2.143533,-1.5079 z"
       inkscape:connector-curvature="0" />
    <path
       style="fill:#ffffff;fill-opacity:1;fill-rule:nonzero;stroke:none"
       id="path3234"
       d="m 39.574427,1027.2454 c -0.0035,0.6106 -0.190409,1.1988 -0.340961,1.7841 -0.584528,2.2724 0.251672,-0.9272 -0.385152,1.5006 -0.416296,1.6779 -0.821003,3.3589 -1.174033,5.0515 -0.255062,1.2692 -0.379678,2.5583 -0.434307,3.8502 -0.01695,0.5872 -0.01158,0.3008 -0.01695,0.8592 0,0 -2.313282,1.1736 -2.313282,1.1736 l 0,0 c 0.01419,-0.5675 0.006,-0.2766 0.02494,-0.8727 0.07601,-1.3172 0.236899,-2.6274 0.491545,-3.9226 0.354187,-1.6919 0.745165,-3.3757 1.154392,-5.0548 0.326353,-1.2937 0.06904,-0.2511 0.359348,-1.487 0.128789,-0.5483 0.305113,-1.1081 0.271327,-1.678 0,0 2.36314,-1.2041 2.36314,-1.2041 z"
       inkscape:connector-curvature="0" />
    <path
       style="fill:#ffffff;fill-opacity:1;fill-rule:nonzero;stroke:none"
       id="path3238"
       d="m 34.135574,1044.0197 c 0.450656,0.3932 0.994763,0.6403 1.499837,0.952 0.252687,0.1641 0.492574,0.3454 0.742158,0.514 0,0 -2.210362,1.4095 -2.210362,1.4095 l 0,0 c -0.240201,-0.1711 -0.475598,-0.3494 -0.725808,-0.506 -0.515191,-0.3094 -1.051323,-0.5824 -1.534935,-0.9423 0,0 2.22911,-1.4272 2.22911,-1.4272 z"
       inkscape:connector-curvature="0" />
    <path
       style="fill:#ffffff;fill-opacity:1;fill-rule:nonzero;stroke:none"
       id="path3240"
       d="m 39.499155,1043.6965 c 0.509615,0.6059 1.252822,0.8901 1.936968,1.2447 0.540675,0.2627 0.271427,0.1417 0.80699,0.3645 0,0 -2.155668,1.4356 -2.155668,1.4356 l 0,0 c -0.536355,-0.2407 -0.267205,-0.1131 -0.807011,-0.3837 -0.715853,-0.3565 -1.449975,-0.6817 -2.023265,-1.2591 0,0 2.241986,-1.402 2.241986,-1.402 z"
       inkscape:connector-curvature="0" />
    <path
       style="fill:#ffffff;fill-opacity:1;fill-rule:nonzero;stroke:none"
       id="path3244"
       d="m 32.129576,1042.2613 c 1.057737,0.031 2.115112,0.046 3.172092,0 2.13243,-0.1159 4.255163,-0.4049 6.366685,-0.7205 1.013111,-0.1574 1.97203,-0.4823 2.990012,-0.6097 0.920553,-0.1567 1.833098,-0.3544 2.731695,-0.6093 0.599723,-0.2348 1.304645,-0.1443 1.890303,-0.4187 0.08153,-0.038 0.149856,-0.1 0.224783,-0.1497 -3.554091,2.3534 -2.272346,1.3358 -1.5257,0.7282 0,0 2.448101,-0.9676 2.448101,-0.9676 l 0,0 c -1.017396,0.6377 -1.34342,1.8625 -2.967608,1.8821 -0.679469,0.2715 -1.42782,0.2776 -2.123342,0.5021 -0.91107,0.2337 -1.828916,0.4385 -2.757995,0.5878 -0.97827,0.1471 -1.927147,0.4421 -2.912408,0.5521 -2.123005,0.2728 -4.249142,0.5512 -6.38401,0.7061 -1.099054,0.059 -2.198167,0.056 -3.298294,0.081 0,0 2.145686,-1.5589 2.145686,-1.5589 z"
       inkscape:connector-curvature="0" />
    <path
       style="fill:#ffffff;fill-opacity:1;fill-rule:nonzero;stroke:none"
       id="path3246"
       d="m 45.901543,1043.5391 c 0.315902,0.3604 0.662515,0.6941 1.072993,0.9436 0,0 -2.208856,1.4194 -2.208856,1.4194 l 0,0 c -0.421514,-0.2851 -0.787229,-0.6368 -1.139197,-1.0033 0,0 2.27506,-1.3597 2.27506,-1.3597 z"
       inkscape:connector-curvature="0" />
    <path
       style="fill:#ffffff;fill-opacity:1;fill-rule:nonzero;stroke:none"
       id="path3250"
       d="m 54.937841,1037.2581 c 1.650083,-0.4204 3.160341,-1.2644 4.671461,-2.026 1.67848,-0.891 0.750494,-0.3831 2.407037,-1.3236 0.366184,-0.2079 1.49746,-0.7594 1.0993,-0.6223 -0.403488,0.1388 -0.721404,0.4644 -1.115559,0.6279 -0.05814,0.024 1.423303,-0.8781 1.462842,-0.9022 0.502818,-0.2878 0.972442,-0.6265 1.441273,-0.9651 0,0 2.39326,-0.9473 2.39326,-0.9473 l 0,0 c -0.484457,0.3523 -0.963867,0.714 -1.488251,1.0066 -2.667235,1.5877 -5.325519,3.1956 -8.079553,4.6308 -1.58588,0.8024 -3.17484,1.6843 -4.911169,2.1152 0,0 2.119359,-1.594 2.119359,-1.594 z"
       inkscape:connector-curvature="0" />
    <path
       style="fill:#ffffff;fill-opacity:1;fill-rule:nonzero;stroke:none"
       id="path3256"
       d="m 57.707801,1039.0761 c 0.531199,0.3287 1.011812,0.7272 1.467979,1.1517 0,0 -2.21787,1.369 -2.21787,1.369 l 0,0 c -0.445146,-0.4204 -0.916982,-0.8136 -1.466805,-1.0921 0,0 2.216696,-1.4286 2.216696,-1.4286 z"
       inkscape:connector-curvature="0" />
    <path
       style="fill:#ffffff;fill-opacity:1;fill-rule:nonzero;stroke:none"
       id="path3258"
       d="m 61.128045,1037.7868 c 0.845249,0.2834 1.656962,0.6568 2.489429,0.9753 0.440175,0.1838 0.228027,0.088 0.637205,0.2859 0,0 -2.179896,1.4385 -2.179896,1.4385 l 0,0 c -0.392921,-0.1899 -0.188752,-0.096 -0.613205,-0.2791 -0.830564,-0.3413 -1.650751,-0.7203 -2.519561,-0.9561 0,0 2.186028,-1.4645 2.186028,-1.4645 z"
       inkscape:connector-curvature="0" />
    <path
       style="fill:#ffffff;fill-opacity:1;fill-rule:nonzero;stroke:none"
       id="path3260"
       d="m 65.867792,1035.4108 c 0.558185,0.1726 1.143617,0.1918 1.706342,0.3486 0.351977,0.1283 0.696218,0.2604 1.021305,0.4472 0,0 -2.201145,1.4349 -2.201145,1.4349 l 0,0 c -0.311475,-0.1657 -0.639396,-0.2911 -0.975685,-0.3982 -0.577374,-0.1385 -1.17478,-0.1706 -1.744364,-0.3442 0,0 2.193547,-1.4883 2.193547,-1.4883 z"
       inkscape:connector-curvature="0" />
    <path
       style="fill:#ffffff;fill-opacity:1;fill-rule:nonzero;stroke:none"
       id="path3262"
       d="m 69.09263,1033.0273 c 0.458579,0.5932 1.091302,0.79 1.773767,1.0323 0.488947,0.1724 0.997481,0.2658 1.509332,0.3352 0,0 -2.132724,1.4999 -2.132724,1.4999 l 0,0 c -0.515509,-0.09 -1.026161,-0.2057 -1.517277,-0.3906 -0.738836,-0.2721 -1.35601,-0.4874 -1.89047,-1.0935 0,0 2.257372,-1.3833 2.257372,-1.3833 z"
       inkscape:connector-curvature="0" />
    <path
       style="fill:#ffffff;fill-opacity:1;fill-rule:nonzero;stroke:none"
       id="path3264"
       d="m 50.027034,1042.8714 c 0.561589,0.3003 1.151183,0.5386 1.745229,0.766 0.08552,0.037 0.17103,0.075 0.256545,0.1121 0,0 -2.182662,1.4528 -2.182662,1.4528 l 0,0 c -0.08273,-0.036 -0.165465,-0.072 -0.248197,-0.1075 -0.585519,-0.2412 -1.162005,-0.5073 -1.75451,-0.7279 0,0 2.183595,-1.4955 2.183595,-1.4955 z"
       inkscape:connector-curvature="0" />
    <path
       style="fill:#ffffff;fill-opacity:1;fill-rule:nonzero;stroke:none"
       id="path3266"
       d="m 43.084635,1009.2677 c 2.011818,0.015 4.014758,0.099 6.016583,0.3025 1.60306,0.1676 3.211579,0.3598 4.781413,0.7384 0.812747,0.196 1.611777,0.4451 2.419941,0.6592 2.545764,0.6409 5.070375,1.3663 7.637321,1.919 0,0 -2.006862,1.3912 -2.006862,1.3912 l 0,0 c -2.551005,-0.5994 -5.070903,-1.3235 -7.617302,-1.9426 -0.811601,-0.2078 -1.615911,-0.4448 -2.432158,-0.6335 -1.558294,-0.3603 -3.150015,-0.5646 -4.737553,-0.74 -0.449251,-0.042 -0.897619,-0.095 -1.347753,-0.126 -1.611754,-0.1115 -3.228354,-0.065 -4.841547,-0.022 0,0 2.127917,-1.5461 2.127917,-1.5461 z"
       inkscape:connector-curvature="0" />
    <path
       style="fill:#ffffff;fill-opacity:1;fill-rule:nonzero;stroke:none"
       id="path3268"
       d="m 45.535798,1017.05 c 1.794314,0.5201 3.564681,1.1189 5.354993,1.6533 3.365532,1.0074 6.83249,1.5725 10.300043,2.088 0,0 -1.944648,1.3662 -1.944648,1.3662 l 0,0 c -3.454767,-0.5935 -6.914907,-1.1787 -10.295324,-2.1255 -1.871141,-0.5097 -3.728246,-1.0687 -5.616188,-1.5152 0,0 2.201124,-1.4668 2.201124,-1.4668 z"
       inkscape:connector-curvature="0" />
  </g>
</svg>
