<?xml version="1.0" encoding="UTF-8" standalone="no"?>
<!-- Created with Inkscape (http://www.inkscape.org/) -->

<svg
   xmlns:dc="http://purl.org/dc/elements/1.1/"
   xmlns:cc="http://creativecommons.org/ns#"
   xmlns:rdf="http://www.w3.org/1999/02/22-rdf-syntax-ns#"
   xmlns:svg="http://www.w3.org/2000/svg"
   xmlns="http://www.w3.org/2000/svg"
   xmlns:sodipodi="http://sodipodi.sourceforge.net/DTD/sodipodi-0.dtd"
   xmlns:inkscape="http://www.inkscape.org/namespaces/inkscape"
   width="86"
   height="86"
   id="svg3101"
   version="1.1"
   inkscape:version="0.48.5 r10040"
   sodipodi:docname="New document 5">
  <defs
     id="defs3103" />
  <sodipodi:namedview
     id="base"
     pagecolor="#000000"
     bordercolor="#666666"
     borderopacity="1.0"
     inkscape:pageopacity="0"
     inkscape:pageshadow="2"
     inkscape:zoom="3.959798"
     inkscape:cx="49.466299"
     inkscape:cy="36.531682"
     inkscape:document-units="px"
     inkscape:current-layer="layer1"
     showgrid="false"
     inkscape:window-width="1278"
     inkscape:window-height="780"
     inkscape:window-x="0"
     inkscape:window-y="0"
     inkscape:window-maximized="1" />
  <metadata
     id="metadata3106">
    <rdf:RDF>
      <cc:Work
         rdf:about="">
        <dc:format>image/svg+xml</dc:format>
        <dc:type
           rdf:resource="http://purl.org/dc/dcmitype/StillImage" />
        <dc:title></dc:title>
      </cc:Work>
    </rdf:RDF>
  </metadata>
  <g
     inkscape:label="Layer 1"
     inkscape:groupmode="layer"
     id="layer1"
     transform="translate(0,-966.36218)">
    <path
       style="fill:#ffffff;fill-opacity:1;fill-rule:nonzero;stroke:none"
       id="path3147"
       d="m 39.061235,1027.193 c -0.588596,0.1219 -1.153101,0.3377 -1.692761,0.6103 -1.345868,0.811 0.515847,-0.3145 2.339948,-1.3259 0.109344,-0.061 -0.206702,0.1408 -0.30722,0.2152 -0.287231,0.2124 -0.550057,0.4448 -0.805226,0.694 -0.467264,0.4773 -0.563415,1.1005 -0.634108,1.7356 -0.03331,0.726 -0.07014,1.4563 -0.0047,2.1811 0.01784,0.7051 0.239783,1.3466 0.513193,1.9864 0.278733,0.8081 0.808778,1.471 1.337749,2.1268 0.666096,0.7081 1.277269,1.4609 1.933585,2.1774 0.347075,0.3741 0.628188,0.8122 1.043362,1.1188 0.180637,0.1333 0.375288,0.2468 0.557555,0.3779 0.60816,0.4111 1.321014,0.5185 2.034522,0.5882 0.618479,-0.015 1.274404,0.1357 1.887936,0 0.129458,-0.028 0.250806,-0.085 0.376209,-0.1273 1.345715,-0.8248 -0.584256,0.3633 -2.255717,1.2685 -0.138611,0.075 0.257472,-0.1821 0.382008,-0.2788 0.387163,-0.3004 0.711011,-0.6321 1.03382,-0.9986 0.755085,-0.7336 1.210307,-1.6536 1.647146,-2.5924 0.593796,-0.9465 0.983716,-1.9761 1.336207,-3.0296 0.375456,-0.9605 0.663155,-1.943 0.826448,-2.9606 0.117317,-1.0929 -0.130888,-1.5959 -0.781705,-2.447 -0.122659,-0.1135 -0.236309,-0.2376 -0.367978,-0.3405 -0.286062,-0.2236 -0.536215,-0.3276 -0.849758,-0.5066 -0.442782,-0.2527 -0.868857,-0.5233 -1.320733,-0.7603 -0.57521,-0.3792 -1.150884,-0.7812 -1.787663,-1.0533 -0.150102,-0.064 -0.306084,-0.1136 -0.459126,-0.1703 -0.1575,-0.069 -0.314999,-0.1377 -0.472498,-0.2065 -0.751961,-0.275 -1.496856,-0.5795 -2.281464,-0.7488 -0.677532,-0.1032 -1.368459,-0.1541 -2.051236,-0.086 -0.462519,0.04 -0.904926,0.1913 -1.35368,0.3021 0,0 2.834701,-2.1632 2.834701,-2.1632 l 0,0 c 0.448002,-0.1039 0.896767,-0.2143 1.358783,-0.2321 0.713795,-0.029 1.437135,0 2.135848,0.1604 0.764464,0.2093 1.475231,0.5713 2.209598,0.8646 0.969847,0.3957 1.880521,0.8743 2.757302,1.4503 0.891363,0.5289 1.859729,0.9835 2.584669,1.7378 0.737144,0.9077 1.070255,1.4712 0.972708,2.6676 -0.167919,1.0629 -0.518246,2.0749 -0.928495,3.068 -0.06173,0.1991 -0.123454,0.3982 -0.185181,0.5974 -0.0476,0.1932 -0.08435,0.3893 -0.142806,0.5795 -0.203865,0.6632 -0.556194,1.2687 -0.917722,1.8553 -0.432396,0.9489 -0.834853,1.9043 -1.576912,2.6662 -1.377142,1.6426 -3.022158,2.6969 -5.127434,3.4873 -0.779163,0.1461 -1.570636,0.1085 -2.357394,0.032 -0.760567,-0.095 -1.503013,-0.2748 -2.139455,-0.7253 -0.648072,-0.4212 -1.166296,-0.9589 -1.5894,-1.6082 -0.624439,-0.7488 -1.25968,-1.4829 -1.940424,-2.1815 -0.573759,-0.6595 -1.086048,-1.384 -1.449665,-2.1818 -0.286044,-0.6769 -0.549945,-1.3329 -0.566708,-2.0826 -0.06773,-0.7419 -0.03288,-1.4908 -0.02087,-2.2349 0.03053,-0.6836 0.08363,-1.3951 0.523437,-1.9531 1.295383,-1.4279 3.122573,-2.2297 4.792833,-3.1317 0.624811,-0.271 1.281782,-0.5384 1.961987,-0.616 0,0 -3.013563,2.1895 -3.013563,2.1895 z"
       inkscape:connector-curvature="0" />
    <path
       style="fill:#ffffff;fill-opacity:1;fill-rule:nonzero;stroke:none"
       id="path3149"
       d="m 62.957041,1025.0033 c -0.551123,0.3448 -0.839224,0.9061 -1.150519,1.4513 -0.343151,0.6597 -0.578507,1.3761 -0.815092,2.0807 -0.225019,0.7712 -0.292031,1.5778 -0.31984,2.3774 -0.02147,0.7758 -0.02134,1.5525 -0.01161,2.3286 -0.01596,0.7545 -0.0084,1.505 0.131929,2.248 0.117867,0.7434 0.428484,1.4381 0.755688,2.1102 0.300186,0.7871 0.8863,1.3686 1.477062,1.9428 0.486795,0.5328 1.183837,0.7363 1.793672,1.088 0.621803,0.3707 1.274924,0.6239 1.985736,0.7515 0.818594,0.112 1.648632,0.1178 2.473629,0.1152 0.143154,-0.013 0.287127,-0.02 0.429462,-0.04 0.38268,-0.054 0.493149,-0.083 0.842356,-0.2517 0.13248,-0.064 0.513487,-0.2871 0.385568,-0.2145 -2.728333,1.548 -3.338831,2.0792 -2.220262,1.1671 0.729661,-0.6806 1.251808,-1.5306 1.834297,-2.3303 0.599626,-0.8558 1.362587,-1.5767 1.977146,-2.4194 0.395975,-0.6106 0.827695,-1.215 0.977968,-1.9375 0.05941,-0.6708 0.04662,-1.3558 -0.125241,-2.009 -0.185733,-0.6359 -0.425172,-1.246 -0.77001,-1.8118 -0.490106,-0.6912 -0.97763,-1.3803 -1.428863,-2.0978 -0.633289,-0.7905 -1.22833,-1.6353 -2.055137,-2.2406 -0.185256,-0.1356 -0.387175,-0.2469 -0.580763,-0.3703 -1.075247,-0.4884 -2.175141,-0.9503 -3.309396,-1.2876 -0.882352,-0.2252 -1.731021,-0.5363 -2.633246,-0.6841 -0.819578,-0.1515 -1.474452,-0.072 -2.208583,0.3175 5.224362,-3.0261 2.39818,-1.5979 1.487488,-0.4617 0,0 -3.278945,1.4187 -3.278945,1.4187 l 0,0 c 1.033735,-1.5528 3.093897,-2.2792 4.561771,-3.1529 0.75908,-0.278 1.526828,-0.3076 2.317141,-0.1295 0.880174,0.2001 1.719315,0.5209 2.586221,0.7684 1.114306,0.3991 2.223955,0.8477 3.255062,1.4306 1.111522,0.7556 1.999242,1.5772 2.813803,2.6485 0.532324,0.6728 0.9983,1.3952 1.545291,2.0576 0.361247,0.5927 0.623537,1.2341 0.820755,1.8993 0.190341,0.6968 0.200745,1.4198 0.200915,2.1393 -0.101464,0.816 -0.552004,1.46 -1.010045,2.1264 -0.591175,0.8749 -1.386779,1.5812 -2.005329,2.4376 -0.578506,0.8013 -1.085151,1.6573 -1.769044,2.378 -1.228731,1.2579 -0.327314,0.3957 -3.702155,2.3155 -0.531525,0.3024 -1.160567,0.3644 -1.758091,0.3799 -0.85639,-0.013 -1.71716,-5e-4 -2.56562,-0.1376 -0.719744,-0.1766 -1.388378,-0.4718 -2.028119,-0.8472 -0.652153,-0.3387 -1.354334,-0.5931 -1.843422,-1.1748 -0.595742,-0.6111 -1.149486,-1.2603 -1.508788,-2.0441 -0.395599,-0.678 -0.679448,-1.4174 -0.827645,-2.1902 -0.153671,-0.7628 -0.189576,-1.5293 -0.164937,-2.3066 0.006,-0.7826 -0.0031,-1.5652 0.01689,-2.3477 0.0359,-0.8285 0.08385,-1.6546 0.289921,-2.4626 0.103911,-0.3803 0.254596,-0.7298 0.375814,-1.102 0.112911,-0.3466 0.170004,-0.7129 0.36184,-1.0328 0.308995,-0.5231 0.533697,-1.0988 0.971071,-1.5331 0,0 3.422211,-1.361 3.422211,-1.361 z"
       inkscape:connector-curvature="0" />
    <path
       style="fill:#ffffff;fill-opacity:1;fill-rule:nonzero;stroke:none"
       id="path3151"
       d="m 12.013549,986.45241 c -0.129953,0.89961 -0.156955,1.80852 -0.166092,2.71609 0.0013,1.14954 0.019,2.29898 0.02823,3.44847 0.0075,1.02274 0.0085,2.04552 0.0093,3.06829 0.02579,1.03751 -0.01874,2.07423 -0.01781,3.11132 0.01032,1.05144 4.3e-5,2.10322 0.02415,3.15442 -0.02979,1.1225 -0.0069,2.2453 -0.09206,3.3656 -0.08948,1.0524 -0.110101,2.1081 -0.162891,3.1623 -0.101665,0.8528 0.0049,1.7159 -0.04307,2.5694 -0.02834,0.5045 -0.114176,0.8105 -0.219552,1.3095 -0.213122,1.1196 -0.472336,2.2284 -0.622724,3.3589 -0.102728,0.8934 -0.116842,1.7924 -0.09793,2.6904 0.01556,0.7077 0.01746,1.4159 0.0099,2.1237 -0.0014,0.7465 0.0039,1.4931 -0.0029,2.2397 -1.27e-4,0.7576 0.0061,1.5154 -3.37e-4,2.273 2.18e-4,0.7578 0.0064,1.5157 2.4e-5,2.2734 2.2e-4,0.7576 0.0064,1.5153 7e-6,2.2729 0.02858,0.7349 -0.0808,1.4801 0.114073,2.1962 0.283535,0.6283 0.915678,0.7386 1.534444,0.8218 0.742986,0.065 1.489532,0.046 2.234372,0.045 0,0 -2.845689,2.0697 -2.845689,2.0697 l 0,0 c -0.760684,0.01 -1.526031,0.017 -2.2818228,-0.081 -0.7542274,-0.135 -1.4418732,-0.3947 -1.7417279,-1.1642 -0.2273615,-0.752 -0.1434651,-1.5116 -0.1505721,-2.289 -0.00644,-0.7576 -1.687e-4,-1.5153 1.3e-5,-2.2729 -0.00643,-0.7577 -1.275e-4,-1.5156 7.79e-5,-2.2734 -0.00642,-0.7575 -6.83e-5,-1.515 -5.16e-4,-2.2725 -0.00719,-0.7446 -0.00238,-1.4892 -0.00706,-2.2338 -0.010983,-0.7116 -0.015878,-1.4238 0.00441,-2.1352 0.033601,-0.9222 0.042948,-1.8464 0.1482343,-2.7641 0.1569035,-1.1631 0.48953,-2.2814 0.7262277,-3.429 0.066687,-0.4136 0.1737918,-0.8215 0.2133625,-1.2385 0.080015,-0.8434 -0.027002,-1.706 -0.0083,-2.5507 -0.00719,-1.0629 0.064162,-2.1256 0.1657003,-3.1834 0.078795,-1.106 0.1051006,-2.2081 0.051751,-3.317 0.023745,-1.0595 0.014062,-2.1194 0.024154,-3.1791 9.261e-4,-1.03101 -0.043747,-2.06169 -0.017811,-3.09316 7.503e-4,-1.02592 0.00186,-2.05186 0.00929,-3.07776 0.00923,-1.15908 0.026819,-2.3181 0.028231,-3.47723 -0.00866,-0.85106 -0.027822,-1.7052 -0.1660916,-2.54684 0,0 3.3189707,-1.6911 3.3189707,-1.6911 z"
       inkscape:connector-curvature="0" />
    <path
       style="fill:#ffffff;fill-opacity:1;fill-rule:nonzero;stroke:none"
       id="path3153"
       d="m 77.106308,1030.5593 c 0.424085,-0.232 0.906739,-0.2747 1.362503,-0.4137 0.393691,-0.1514 0.821948,-0.1501 1.220686,-0.2776 0.204236,-0.065 0.400812,-0.1526 0.602248,-0.2261 -0.134506,0.1749 0.810083,-0.4302 0.610584,-0.317 -6.032336,3.4199 -0.682113,0.4431 1.306087,-0.6953 -4.909782,2.8413 -3.035652,2.0292 -2.21859,1.045 0.270068,-0.3253 0.462862,-0.6748 0.646548,-1.0526 0.316323,-0.7579 0.355074,-1.5759 0.387428,-2.3845 0.01279,-0.7883 -0.0056,-1.5766 -0.0046,-2.3649 -0.0055,-0.759 -0.01297,-1.5182 -0.0073,-2.2773 -0.0052,-0.7457 0.0032,-1.4912 -0.0098,-2.2368 -0.0099,-0.5906 -0.03288,-1.1812 -0.01868,-1.7718 0.0162,-0.6335 0.01089,-1.2668 0.002,-1.9003 0.0064,-0.6838 0.02026,-1.3675 0.01836,-2.0513 -0.03343,-0.7626 0.07735,-1.5162 0.149303,-2.2728 0.07451,-0.7512 0.09875,-1.5067 0.103403,-2.2612 0.01818,-0.7556 -0.09831,-1.5073 -0.170195,-2.2583 -0.07298,-0.6176 -0.22263,-1.2087 -0.462817,-1.7805 -0.26788,-0.6402 -0.505132,-1.0519 -1.135141,-1.3794 -0.744053,-0.2868 -1.555857,-0.2888 -2.342401,-0.3115 -0.951233,-0.019 -1.902498,0 -2.853783,-0.01 -0.896662,0 -1.793226,0.021 -2.689896,0.023 -0.782427,-0.011 -1.568657,0.052 -2.346686,-0.041 -0.943158,-0.1478 -1.486745,-0.3351 -2.241484,-0.92 -0.613632,-0.5219 -0.787141,-1.2674 -0.870643,-2.0327 -0.09574,-0.76383 -0.205766,-1.52365 -0.246591,-2.29311 -0.0592,-0.69172 -0.321367,-1.34309 -0.534207,-1.99802 -0.140851,-0.7475 -0.473803,-1.39288 -0.965437,-1.96345 -0.467027,-0.51063 -1.046847,-0.76788 -1.67512,-1.01322 -0.671055,-0.23749 -1.381472,-0.29032 -2.086781,-0.31786 -0.69789,-0.0228 -1.396487,-0.0253 -2.094714,-0.0215 -0.751019,3.1e-4 -1.502078,-0.003 -2.253092,0.002 -0.758113,3.3e-4 -1.516258,-0.004 -2.274367,4.6e-4 -0.702641,-0.0598 -1.38648,0.10875 -2.080462,0.17837 -0.328838,0.0839 -0.663751,0.11614 -0.985014,0.23074 -0.952317,0.33973 -3.856723,2.14533 2.108405,-1.25905 -0.656708,0.37086 -1.05451,1.00374 -1.376994,1.66371 -0.27449,0.67928 -0.344182,1.41026 -0.334177,2.13625 0.03328,0.71434 0.134674,1.403 0.369497,2.07791 0.231876,0.67854 0.293246,1.38933 0.341439,2.09924 0.03175,0.75403 0.02167,1.50863 0.02763,2.26303 0.0157,0.6855 0.06417,1.364 -0.108396,2.0322 -0.282875,0.7635 -0.84088,1.3849 -1.480809,1.8723 -1.625624,0.981 -3.073504,2.104 -4.941599,2.3276 -0.715027,0.052 -1.432234,0.04 -2.148538,0.043 -0.665625,-0.081 -1.329267,-0.1682 -1.998241,-0.2174 -0.732235,0 -1.452682,-0.1374 -2.179383,-0.2127 -0.762077,-0.083 -1.531384,-0.034 -2.29076,-0.1311 -0.759773,-0.178 -1.523599,-0.321 -2.299937,-0.3995 -0.738817,-0.059 -1.480195,-0.056 -2.220695,-0.062 -0.622401,-0.056 -1.279676,0.098 -1.895669,-0.038 -0.129409,-0.029 -0.250697,-0.086 -0.376045,-0.1293 -0.736161,-0.432 -1.143192,-1.1482 -1.468956,-1.9064 -0.292074,-0.7364 -0.369545,-1.5191 -0.425376,-2.3013 -0.02906,-0.7855 -0.03693,-1.5716 -0.0079,-2.3572 0.0935,-0.87444 -0.146987,-1.71665 -0.229752,-2.57809 -0.01813,-0.76246 -0.120313,-1.51763 -0.187204,-2.27649 -0.0708,-0.75713 -0.09172,-1.51841 -0.09495,-2.27857 -0.0068,-0.75798 -0.01146,-1.51619 -0.0045,-2.27421 0.0073,-0.75034 -0.02097,-1.5019 0.01564,-2.25153 0.02912,-0.20052 0.04061,-0.3994 0.130485,-0.58578 0.629447,-1.30526 3.684333,-2.51738 4.035132,-2.71968 0.658881,-0.18809 1.34855,-0.16876 2.021204,-0.2518 0.0929,-0.0115 0.989689,-0.18339 1.07923,-0.2004 1.011257,-0.21692 2.050317,-0.20596 3.051792,-0.4646 0.721022,-0.25705 1.500669,-0.24331 2.208256,-0.53079 1.211185,-0.84027 -0.560342,0.40016 -2.584501,1.41701 -0.101236,0.0509 0.146724,-0.17359 0.207383,-0.26927 0.218439,-0.34457 0.365251,-0.73976 0.517911,-1.11579 0.283144,-0.71597 0.370433,-1.48077 0.409688,-2.24344 0.02595,-0.70579 -0.406653,-1.17026 -0.91668,-1.59114 -0.632024,-0.60696 -1.447331,-0.91679 -2.281764,-1.12974 -0.906856,-0.19823 -1.838032,-0.20591 -2.761465,-0.23086 -0.652745,-0.0247 -1.310431,0.0568 -1.954506,-0.0784 -0.16136,-0.0339 -0.749152,-0.20692 -0.913216,-0.25435 -0.853207,-0.25503 -1.7378,-0.34298 -2.623313,-0.38322 -0.797216,-0.0277 -1.59537,-0.026 -2.392965,-0.0188 -0.758901,0.003 -1.517834,1.9e-4 -2.276727,0.005 -0.757069,5.6e-4 -1.514169,-0.004 -2.271233,6.1e-4 -0.764818,-0.002 -1.529575,0.002 -2.29438,-0.006 -0.877851,-0.008 -1.755661,-0.008 -2.633579,-0.0113 -0.815697,-0.0651 -1.613454,0.1083 -2.419597,0.19 -0.739411,0.0102 -1.443235,0.23028 -2.143988,0.44957 -0.791497,0.16491 -1.5376289,0.4441 -2.2891448,0.73537 -0.7090257,0.41235 -1.4948911,0.66228 -2.2237465,1.02996 -1.3022373,0.57516 -4.2867096,2.32212 1.0386493,-0.72831 -0.6838752,0.41937 -1.3201712,0.91252 -1.738039,1.60477 -0.2929349,0.64844 -0.3465515,1.36815 -0.5265681,2.05241 -0.1443065,0.6558 -0.3856247,1.32196 -0.3045986,1.99809 0.2234755,0.6839 0.8506624,0.96957 1.4126861,1.32857 0.6856818,0.38336 1.4293103,0.63334 2.1981127,0.78202 0.7490078,0.11783 1.5085379,0.11725 2.2645519,0.12693 0.357919,0.0277 0.708733,-0.0454 1.059803,-0.10097 0,0 -2.8492289,2.12594 -2.8492289,2.12594 l 0,0 c -0.3527757,0.0343 -0.7059492,0.062 -1.0608796,0.0407 -0.7690891,-0.009 -1.543983,-0.0299 -2.2994406,-0.18773 -0.7901293,-0.18407 -1.5561394,-0.4719 -2.2597913,-0.87894 -0.6903532,-0.38393 -1.3327531,-0.80429 -1.6060638,-1.5885 -0.086934,-0.71267 0.051035,-1.43353 0.2380664,-2.12281 0.019378,-0.063 0.1862871,-0.60278 0.2009079,-0.66353 0.1170047,-0.48615 0.1012639,-0.99994 0.3048254,-1.46673 0.1327345,-0.2643 0.2064368,-0.4456 0.3960315,-0.67906 0.3549034,-0.437 0.8486142,-0.74643 1.2763793,-1.10293 1.6555087,-0.95427 3.2575926,-1.94305 4.9949667,-2.72317 0.7456462,-0.33504 1.49971,-0.65106 2.236643,-1.00563 0.76066,-0.28958 1.533113,-0.5248 2.321628,-0.72699 0.721461,-0.20686 1.449056,-0.38734 2.203219,-0.41346 0.791527,-0.0919 1.582969,-0.14444 2.380616,-0.11424 0.888265,-0.003 1.776428,-0.003 2.664629,-0.0113 0.770493,-0.008 1.540936,-0.004 2.311441,-0.006 0.757057,0.004 1.514157,-2.1e-4 2.271215,-10e-4 0.757963,0.003 1.515942,-0.003 2.273908,-0.003 0.793568,0.006 1.587666,0.004 2.379983,0.0568 0.894543,0.077 1.787239,0.18153 2.646439,0.45673 0.227843,0.0634 0.632724,0.18347 0.868692,0.2206 0.638888,0.10053 1.288546,0.011 1.93071,0.0516 0.947548,0.012 1.900942,0.0556 2.823026,0.29404 0.880211,0.26568 1.721629,0.59928 2.423251,1.21362 0.591065,0.49581 1.088107,1.06199 1.070723,1.88145 -0.04571,0.79782 -0.106741,1.59778 -0.379399,2.357 -0.06148,0.15386 -0.553296,1.44607 -0.609969,1.48546 -2.566274,1.78327 -2.125555,1.59466 -3.524295,2.13445 -0.715597,0.1745 -1.451137,0.25876 -2.163497,0.45127 -0.995337,0.17106 -2.011051,0.19779 -3.000657,0.41253 -1.047426,0.18462 -2.144502,0.18625 -3.132898,0.60929 0.895466,-0.52853 1.788353,-1.06145 2.686398,-1.58558 0.09727,-0.0568 -0.195865,0.11296 -0.28379,0.18333 -0.29728,0.23793 -0.550409,0.55079 -0.650302,0.91995 -0.09229,0.74047 -0.02225,1.4893 -0.04707,2.23389 0.0059,0.75675 -0.002,1.51354 0.0029,2.2703 0.01389,0.75143 0.01852,1.50344 0.08183,2.25293 0.07518,0.76125 0.185529,1.51998 0.175441,2.2868 0.06045,0.87652 0.282268,1.73083 0.22529,2.61375 0.02605,0.77326 0.004,1.54689 0.0352,2.32009 0.03087,0.7439 0.09595,1.4944 0.36483,2.1959 0.283559,0.6775 0.598485,1.3196 1.310318,1.6354 0.725343,0.1616 1.470131,0.068 2.208257,0.094 0.749552,0 1.501194,0.01 2.247204,0.089 0.766619,0.091 1.508872,0.2897 2.270136,0.4097 0.771554,0.032 1.545213,0.038 2.31351,0.123 0.730857,0.075 1.458394,0.1802 2.194611,0.188 0.659869,0.045 1.310497,0.159 1.969637,0.2062 0.715431,-4e-4 1.434952,0 2.144516,-0.1045 1.428247,-0.2579 3.991941,-1.8248 -1.196439,1.0921 0.669194,-0.3691 1.229535,-0.9521 1.567923,-1.6396 0.218752,-0.6281 0.131194,-1.2885 0.163071,-1.9452 0.007,-0.7465 0.0039,-1.4938 -0.02707,-2.2398 -0.0333,-0.6785 -0.09995,-1.3594 -0.316687,-2.00752 -0.224104,-0.71339 -0.342439,-1.43286 -0.381724,-2.18129 -0.05716,-0.76606 0.02191,-1.54881 0.262722,-2.28063 0.271023,-0.69385 0.668646,-1.40597 1.273145,-1.85699 1.780511,-1.02553 3.084521,-2.13202 5.038606,-2.37316 0.690448,-0.0914 1.380401,-0.15736 2.078298,-0.12582 0.758081,0.004 1.516205,0 2.274288,-8.3e-4 0.753115,0.003 1.506263,-0.003 2.259362,-0.007 0.708861,10e-4 1.418268,-0.0121 2.126447,0.0276 0.725356,0.0656 1.45226,0.15832 2.138492,0.4162 0.669716,0.26566 1.291805,0.61354 1.774573,1.16323 0.488546,0.62003 0.814863,1.32547 1.039769,2.08181 0.195624,0.69221 0.493456,1.3607 0.547766,2.08629 0.0463,0.76099 0.104534,1.52244 0.243732,2.27321 0.0758,0.6681 0.18371,1.3244 0.71677,1.792 0.621405,0.4625 1.342777,0.6893 2.112739,0.7625 0.777932,0.022 1.556035,0.01 2.334159,0.019 0.880314,0 1.760566,0.014 2.640903,0.012 0.960846,-0.014 1.921819,-0.012 2.882716,-0 0.843353,0.024 1.725251,0.035 2.498521,0.4124 0.61573,0.3773 1.028929,0.8864 1.294182,1.5595 0.247144,0.6167 0.40719,1.2378 0.463855,1.9036 0.05429,0.7638 0.188509,1.5219 0.186409,2.2883 -0.01561,0.7637 -0.02256,1.5279 -0.09074,2.2893 -0.0794,0.7433 -0.196663,1.4861 -0.154933,2.2358 -0.0019,0.6776 0.01189,1.3551 0.01836,2.0326 -0.0087,0.6329 -0.01433,1.2655 0.002,1.8983 0.0147,0.597 -0.0096,1.194 -0.01879,1.7909 -0.01283,0.7487 -0.0049,1.4973 -0.009,2.246 0.007,0.7592 0.0015,1.5186 0.0033,2.2779 0.0083,0.7957 0.0058,1.5918 -0.01171,2.3874 -0.0195,0.8409 -0.03327,1.7033 -0.322978,2.5029 -0.890112,2.208 -1.892773,2.2771 -4.357929,3.6809 -0.390091,0.2048 -0.798269,0.4203 -0.660526,0.3383 0.893094,-0.5312 3.600974,-2.0759 2.693145,-1.5702 -1.291761,0.7195 -2.584856,1.6842 -4.012587,2.2203 -0.603628,0.2042 -1.228381,0.3127 -1.840277,0.4885 -0.519024,0.1347 -1.018233,0.3505 -1.546478,0.4262 0,0 3.013563,-2.1895 3.013563,-2.1895 z"
       inkscape:connector-curvature="0" />
    <path
       style="fill:#ffffff;fill-opacity:1;fill-rule:nonzero;stroke:none"
       id="path3157"
       d="m 17.563977,993.07296 c -0.21884,0.48697 -0.256497,1.03105 -0.291571,1.55694 -0.148529,0.75554 -0.352077,1.49485 -0.450111,2.26011 -0.08643,0.75044 -0.100629,1.50756 -0.10057,2.26232 0.02115,0.70762 -0.08541,1.43307 0.102898,2.12327 0.18364,0.5502 0.602047,0.8273 1.108721,1.0492 0.65754,0.2206 1.357195,0.243 2.044286,0.2602 0.757331,0.014 1.515034,0.012 2.272457,0 0.701244,0.012 1.388245,-0.1567 2.086002,-0.2105 0.306476,-0.012 0.623293,-0.035 0.895458,-0.1939 0.07435,-0.043 0.278112,-0.2015 0.202883,-0.1597 -2.88586,1.6038 -3.684534,2.4993 -2.786027,1.5247 0.31091,-0.5006 0.180569,-1.1001 0.139838,-1.6549 -0.06775,-0.7513 -0.09655,-1.506 -0.104184,-2.26016 -0.0061,-0.70869 -0.018,-1.41723 -0.03259,-2.12584 4e-6,-0.66335 0.06348,-1.32501 -0.09215,-1.97455 -0.288494,-0.70434 -0.997239,-0.8295 -1.675167,-0.9326 -0.697933,-0.0699 -1.401079,-0.0555 -2.101548,-0.0489 -0.71944,-0.0428 -1.425999,0.0462 -2.137803,0.13383 -0.712309,0.0238 -1.364559,0.32877 -2.047254,0.50036 -0.09684,0.0189 -0.193688,0.0379 -0.290532,0.0568 0,0 2.858091,-2.16936 2.858091,-2.16936 l 0,0 c 0.09039,-0.0208 0.180773,-0.0417 0.271159,-0.0625 0.672719,-0.18179 1.336439,-0.40381 2.039792,-0.43378 0.726801,-0.0828 1.452104,-0.13597 2.184644,-0.11782 0.701079,0.002 1.403994,0.01 2.097452,0.12815 0.81007,0.15803 1.580895,0.4166 1.904834,1.25092 0.04237,0.12427 0.09837,0.2447 0.127101,0.37281 0.121878,0.5434 -0.01421,1.1262 0.04312,1.6756 -0.01495,0.71451 -0.02816,1.42889 -0.01581,2.14356 0.01814,0.74288 0.02964,1.48656 0.108905,2.22628 0.07286,0.6032 0.233532,1.2333 0.04889,1.8284 -0.714668,1.5665 -2.844913,2.2771 -4.499911,2.4133 -0.690295,0.079 -1.381303,0.1789 -2.078025,0.1639 -0.761242,0 -1.522593,0.01 -2.283667,-0.014 -0.731533,-0.037 -1.47333,-0.075 -2.161257,-0.3527 -0.59341,-0.2955 -1.06069,-0.6669 -1.271296,-1.325 -0.156429,-0.7318 -0.09155,-1.4762 -0.103491,-2.2203 0.01136,-0.76778 0.0097,-1.53652 0.08445,-2.30164 0.09637,-0.75188 0.243039,-1.49058 0.437149,-2.22353 0.01892,-0.5245 0.02609,-1.05048 0.09627,-1.57136 0,0 3.368566,-1.582 3.368566,-1.582 z"
       inkscape:connector-curvature="0" />
    <path
       style="fill:#ffffff;fill-opacity:1;fill-rule:nonzero;stroke:none"
       id="path3165"
       d="m 32.407058,1031.5695 c 0.632781,0.087 1.263739,0.052 1.896229,-0.012 0.403386,-0.08 0.82527,-0.055 1.229388,-0.1207 0.385719,-0.063 0.773615,-0.2063 1.15029,-0.3092 0.388799,-0.1 0.788059,-0.1361 1.186177,-0.1742 0,0 -2.804074,2.0896 -2.804074,2.0896 l 0,0 c -0.395778,0.058 -0.791393,0.1187 -1.177425,0.2272 -0.783023,0.1968 -1.56786,0.3268 -2.376825,0.3561 -0.705289,0.061 -1.411297,0.086 -2.117323,0.1323 0,0 3.013563,-2.1895 3.013563,-2.1895 z"
       inkscape:connector-curvature="0" />
    <path
       style="fill:#ffffff;fill-opacity:1;fill-rule:nonzero;stroke:none"
       id="path3167"
       d="m 50.132428,1034.0377 c 1.114155,-0.6309 2.228309,-1.2618 3.342464,-1.8927 0.08288,-0.031 0.169988,-0.052 0.248638,-0.092 0.09901,-0.051 0.187587,-0.1199 0.28138,-0.1799 0.106638,-0.062 0.209942,-0.1293 0.319914,-0.1848 0.249893,-0.1259 0.460398,-0.1941 0.722434,-0.2898 0.746735,-0.2239 1.525876,-0.2509 2.298787,-0.277 0.749487,-0.022 1.491807,-0.018 2.235204,0.079 0.10617,0.014 0.212339,0.027 0.318509,0.041 0,0 -2.91628,2.0574 -2.91628,2.0574 l 0,0 c -0.10159,-0.015 -0.20318,-0.031 -0.304769,-0.046 -0.723015,-0.093 -1.450609,-0.071 -2.177958,-0.047 -0.753132,0.031 -1.513334,0.093 -2.222499,0.3697 -1.412103,0.6094 -4.458369,2.5304 1.311203,-0.8894 0,0 -3.457027,1.3526 -3.457027,1.3526 z"
       inkscape:connector-curvature="0" />
    <path
       style="fill:#ffffff;fill-opacity:1;fill-rule:nonzero;stroke:none"
       id="path3173"
       d="m 19.594099,1024.9139 c -0.664744,-0.063 -1.334243,-0.063 -2.001466,-0.062 -0.744343,-0.012 -1.480799,-0.016 -2.199191,0.1978 -1.100978,0.5556 -2.795989,1.4926 2.23325,-1.2969 0.08589,-0.048 -0.160761,0.1132 -0.236191,0.1762 -0.20095,0.1676 -0.238543,0.2249 -0.407532,0.4173 -0.350337,0.4794 -0.444837,1.0811 -0.641032,1.632 -0.281627,0.7332 -0.557598,1.4581 -0.725371,2.2271 -0.199999,0.9322 -0.533512,1.8269 -0.728939,2.7606 -0.134627,0.7485 -0.203991,1.5146 -0.161886,2.2747 2.48e-4,0.7244 0.326487,1.3634 0.582329,2.0206 0.169201,0.6602 0.532828,1.1626 1.005804,1.6365 0.535271,0.648 1.245332,1.0499 1.993055,1.3975 0.651736,0.3809 1.3017,0.7706 2.027519,0.9903 0.674181,0.1634 1.371419,0.1639 2.060746,0.1778 0.752445,0 1.504856,0 2.257293,0 0.663955,0.015 1.312822,-0.1355 1.947017,-0.3137 1.119224,-0.501 2.781643,-1.5037 -2.299836,1.3544 -0.09166,0.052 0.17816,-0.112 0.264114,-0.1726 0.213608,-0.1505 0.317993,-0.2454 0.518849,-0.4138 0.622123,-0.465 1.010958,-1.1182 1.439453,-1.7478 0.579397,-0.6943 1.033242,-1.4443 1.278087,-2.3156 0.186733,-0.7353 0.192059,-1.4833 0.05984,-2.226 -0.178742,-0.7525 -0.517652,-1.4314 -0.914811,-2.0888 -0.350808,-0.593 -0.730811,-1.1682 -1.111736,-1.7422 -0.489576,-0.7061 -0.963498,-1.4189 -1.5068,-2.0869 -0.465693,-0.7208 -1.17377,-1.1224 -1.879159,-1.5626 -0.567819,-0.4566 -1.284111,-0.5895 -1.943514,-0.8543 -0.751313,-0.2555 -1.524201,-0.4352 -2.270969,-0.7058 -0.511517,-0.1729 -0.255927,-0.093 -0.76658,-0.2391 0,0 2.897879,-1.9786 2.897879,-1.9786 l 0,0 c 0.514304,0.1629 0.260747,0.076 0.760818,0.2608 0.765283,0.2542 1.559277,0.4133 2.317742,0.6896 0.683475,0.2563 1.39394,0.447 1.971821,0.9202 0.717955,0.4738 1.395006,0.9783 1.912986,1.6791 0.525134,0.687 0.995459,1.4144 1.550554,2.0784 0.429626,0.5521 0.768692,1.1707 1.104802,1.783 0.405189,0.6976 0.799179,1.3968 0.985786,2.1903 0.153614,0.7917 0.17768,1.5813 -7.66e-4,2.3738 -0.240775,0.905 -0.643846,1.7115 -1.254675,2.4299 -0.41662,0.6282 -0.732203,1.327 -1.338425,1.8036 -1.321275,1.2172 -2.902551,2.2172 -4.622329,2.7518 -0.637668,0.1515 -1.291402,0.2236 -1.947525,0.2031 -0.755734,0.01 -1.511674,0.01 -2.267371,2e-4 -0.719604,-0.012 -1.452096,-0.031 -2.142959,-0.254 -0.715173,-0.2685 -1.336377,-0.7168 -2.024873,-1.0441 -0.763829,-0.3837 -1.445623,-0.8812 -2.045895,-1.4941 -0.121141,-0.1109 -0.475549,-0.4268 -0.583163,-0.5578 -0.278638,-0.339 -0.385009,-0.789 -0.528672,-1.1922 -0.279102,-0.6869 -0.579955,-1.3745 -0.619138,-2.1271 -0.0568,-0.7949 0.01035,-1.593 0.146879,-2.3776 0.215538,-0.9287 0.585808,-1.8123 0.737496,-2.7535 0.127455,-0.7733 0.381398,-1.4995 0.622714,-2.2411 0.07018,-0.1885 0.151727,-0.373 0.215438,-0.5638 0.130042,-0.3895 0.13678,-0.8194 0.374185,-1.169 1.04657,-1.4845 2.844199,-2.3006 4.538811,-2.8678 0.725514,-0.1233 1.457012,-0.105 2.190882,-0.091 0.723935,0 1.449207,0 2.171197,-0.062 0,0 -2.996545,2.1771 -2.996545,2.1771 z"
       inkscape:connector-curvature="0" />
  </g>
</svg>
