<?xml version="1.0" encoding="UTF-8" standalone="no"?>
<!-- Created with Inkscape (http://www.inkscape.org/) -->

<svg
   xmlns:dc="http://purl.org/dc/elements/1.1/"
   xmlns:cc="http://creativecommons.org/ns#"
   xmlns:rdf="http://www.w3.org/1999/02/22-rdf-syntax-ns#"
   xmlns:svg="http://www.w3.org/2000/svg"
   xmlns="http://www.w3.org/2000/svg"
   xmlns:sodipodi="http://sodipodi.sourceforge.net/DTD/sodipodi-0.dtd"
   xmlns:inkscape="http://www.inkscape.org/namespaces/inkscape"
   width="86"
   height="86"
   id="svg3084"
   version="1.1"
   inkscape:version="0.48.5 r10040"
   sodipodi:docname="run.svg">
  <defs
     id="defs3086" />
  <sodipodi:namedview
     id="base"
     pagecolor="#000000"
     bordercolor="#666666"
     borderopacity="1.0"
     inkscape:pageopacity="0"
     inkscape:pageshadow="2"
     inkscape:zoom="5.6"
     inkscape:cx="66.264224"
     inkscape:cy="39.654491"
     inkscape:document-units="px"
     inkscape:current-layer="layer1"
     showgrid="false"
     inkscape:window-width="1278"
     inkscape:window-height="780"
     inkscape:window-x="0"
     inkscape:window-y="0"
     inkscape:window-maximized="1" />
  <metadata
     id="metadata3089">
    <rdf:RDF>
      <cc:Work
         rdf:about="">
        <dc:format>image/svg+xml</dc:format>
        <dc:type
           rdf:resource="http://purl.org/dc/dcmitype/StillImage" />
        <dc:title></dc:title>
      </cc:Work>
    </rdf:RDF>
  </metadata>
  <g
     inkscape:label="Layer 1"
     inkscape:groupmode="layer"
     id="layer1"
     transform="translate(0,-966.36218)">
    <path
       style="fill:#ffffff;fill-opacity:1;fill-rule:nonzero;stroke:none"
       id="path3098"
       d="m 47.328712,15.021054 c -0.725879,-0.482188 -1.465204,-0.950853 -2.289924,-1.24804 -0.245092,-0.08832 -0.497823,-0.153794 -0.746735,-0.230692 -1.550136,-0.537241 -3.156716,-0.830087 -4.784781,-0.986863 -1.485295,-0.113097 -2.976053,-0.108453 -4.464639,-0.109171 -0.241364,0.0247 -0.485287,0.0312 -0.72409,0.07409 -0.5305,0.09527 -0.986485,0.257637 -1.470537,0.494654 -0.25286,0.123813 -0.992564,0.530345 -0.73604,0.414313 1.532544,-0.693211 1.994021,-1.223287 0.85408,-0.173343 -1.027702,1.074781 -1.840358,2.33117 -2.435728,3.69249 -0.127966,0.292596 -0.234029,0.59429 -0.351044,0.891436 -0.656163,1.623742 -1.08627,3.321178 -1.357528,5.047904 -0.157855,1.081088 -0.172966,2.174635 -0.187524,3.264834 -0.0032,1.010777 0.0042,2.02149 0.01202,3.032226 -0.03358,0.944882 0.133457,1.899676 0.585345,2.739943 0.101966,0.189601 0.231589,0.362972 0.347383,0.544458 0.931523,1.210655 2.151543,1.803998 3.503675,2.424706 1.10586,0.505909 2.295851,0.636387 3.494276,0.699831 1.580247,0.05181 3.161864,0.04337 4.742771,0.04435 2.009676,-0.09338 3.974814,-0.526958 5.904949,-1.069258 1.603096,-0.510442 3.198561,-1.067243 4.721749,-1.785054 -0.426388,0.260232 1.506531,-0.822959 1.131561,-0.614195 -0.58088,0.323404 -1.142843,0.683314 -1.742308,0.970808 -0.161019,0.07722 0.28556,-0.215356 0.417657,-0.335526 0.386843,-0.351915 0.454896,-0.480888 0.780448,-0.90363 0.783842,-1.172329 1.331834,-2.503568 1.661237,-3.873649 0.08028,-0.333922 0.137095,-0.673056 0.205643,-1.009584 0.330782,-2.113939 0.422973,-4.261925 0.360868,-6.398577 -0.134695,-1.358478 -0.283391,-2.757969 -0.824631,-4.027041 -0.08709,-0.204196 -0.195581,-0.398584 -0.293371,-0.597876 -0.578011,-1.019143 -1.298313,-1.951322 -2.00635,-2.882828 -0.459423,-0.578667 -0.943686,-1.00537 -1.619808,-1.300408 0,0 2.170242,-1.434489 2.170242,-1.434489 l 0,0 c 0.668135,0.34071 1.207991,0.820341 1.657248,1.424503 0.706666,0.951694 1.440044,1.895684 2.006342,2.939608 0.100144,0.208372 0.212305,0.411384 0.300431,0.625116 0.539166,1.30763 0.678497,2.733733 0.803118,4.127943 0.06147,2.151941 -0.03557,4.313841 -0.33591,6.446828 -0.06266,0.340239 -0.113583,0.682853 -0.187996,1.020718 -0.303374,1.377445 -0.819724,2.725906 -1.557661,3.928064 -0.30247,0.436973 -0.372637,0.581144 -0.739757,0.952324 -1.147954,1.160649 -2.756028,1.741347 -4.170514,2.517475 -1.52617,0.679157 -3.105897,1.237995 -4.704534,1.720627 -1.944444,0.527326 -3.926965,0.939733 -5.946481,1.017691 -1.604441,0.0095 -3.209898,0.0394 -4.81382,-0.01289 -1.217647,-0.08462 -2.417851,-0.242359 -3.526125,-0.795214 -1.382252,-0.670155 -2.633719,-1.279913 -3.588553,-2.539493 -0.122788,-0.191768 -0.259353,-0.375384 -0.368365,-0.575304 -0.468875,-0.859885 -0.695729,-1.842032 -0.668517,-2.817234 0.0011,-1.013022 -0.0041,-2.025982 -0.0047,-3.038995 0.0011,-1.10913 0.03969,-2.219044 0.204329,-3.317876 0.302027,-1.744542 0.730159,-3.467482 1.38323,-5.116866 0.665703,-1.763791 1.422661,-3.282663 2.722341,-4.675791 1.348524,-1.329303 0.545064,-0.625138 3.41014,-2.348817 0.922876,-0.555219 1.946436,-0.87906 3.025514,-0.898071 1.492619,0.0042 2.988194,0.0023 4.47637,0.132198 1.636559,0.180083 3.240237,0.517233 4.806466,1.032588 0.257861,0.08041 0.519416,0.149809 0.773584,0.241222 0.854699,0.307397 1.621196,0.793318 2.414041,1.226549 0,0 -2.229111,1.427276 -2.229111,1.427276 z"
       inkscape:connector-curvature="0"
       transform="translate(0,966.36218)" />
    <path
       style="fill:#ffffff;fill-opacity:1;fill-rule:nonzero;stroke:none"
       id="path3100"
       d="m 40.110142,36.240407 c -0.01259,0.938348 -0.313176,1.831142 -0.533786,2.733302 -0.277919,1.402818 -0.633494,2.787989 -0.909204,4.191441 -0.04207,0.267018 -0.08942,0.533259 -0.126219,0.801055 -0.121537,0.884476 -0.06448,0.737383 -0.203907,1.619931 -0.125841,0.796526 -0.2944,1.587094 -0.428774,2.382404 -0.228331,1.418431 -0.324845,2.853809 -0.600644,4.264025 -0.283085,1.26961 -0.496877,2.554631 -0.648312,3.846366 -0.06984,0.728333 -0.04001,0.370688 -0.09049,1.07285 0,0 -2.299752,1.149835 -2.299752,1.149835 l 0,0 c 0.05742,-0.713813 0.02468,-0.350365 0.09902,-1.09027 0.166448,-1.299548 0.364672,-2.595635 0.656301,-3.873867 0.310675,-1.404466 0.374798,-2.848808 0.625276,-4.265156 0.133107,-0.794356 0.30291,-1.582553 0.434745,-2.376715 0.129941,-0.782748 0.102593,-0.833036 0.202199,-1.622696 0.03402,-0.269675 0.07658,-0.538204 0.114862,-0.807306 0.266323,-1.400609 0.608128,-2.783693 0.876503,-4.183408 0.04029,-0.201514 0.07251,-0.404812 0.120878,-0.604542 0.161925,-0.668673 0.417513,-1.330566 0.34816,-2.033169 0,0 2.363141,-1.20408 2.363141,-1.20408 z"
       inkscape:connector-curvature="0"
       transform="translate(0,966.36218)" />
    <path
       style="fill:#ffffff;fill-opacity:1;fill-rule:nonzero;stroke:none"
       id="path3102"
       d="m 36.484173,58.454807 c -0.501101,0.976125 -0.832406,2.031346 -1.255571,3.043031 -0.571051,1.477515 -1.075103,2.978172 -1.712057,4.429704 -0.491255,0.983019 -0.895964,2.00509 -1.351742,3.004188 -0.328658,0.678449 -0.584414,1.386603 -0.845435,2.092392 -0.194343,0.590979 -0.504185,1.132695 -0.745893,1.704088 0,0 -2.369573,1.094202 -2.369573,1.094202 l 0,0 c 0.227187,-0.580277 0.56627,-1.108066 0.754192,-1.703141 0.285631,-0.703664 0.497847,-1.439326 0.852768,-2.115613 0.483459,-0.99946 0.892078,-2.03389 1.399504,-3.022482 0.676514,-1.436678 1.184863,-2.938596 1.729009,-4.428534 0.413453,-0.997018 0.755009,-2.021597 1.119856,-3.036841 0,0 2.424942,-1.060994 2.424942,-1.060994 z"
       inkscape:connector-curvature="0"
       transform="translate(0,966.36218)" />
    <path
       style="fill:#ffffff;fill-opacity:1;fill-rule:nonzero;stroke:none"
       id="path3104"
       d="m 37.147056,57.759553 c 0.09656,0.05179 0.189823,0.11027 0.289682,0.155376 0.735743,0.332336 1.521361,0.551533 2.289297,0.792803 1.634578,0.513552 0.581547,0.186193 2.288639,0.712945 2.8952,0.992471 5.69136,2.246735 8.482262,3.496333 1.770361,0.867727 3.558177,1.732816 5.223813,2.794091 0.805249,0.513071 1.173606,0.802821 1.936297,1.36338 1.605815,1.252596 3.079435,2.658842 4.670757,3.929575 1.023194,0.766258 2.027911,1.553155 2.956627,2.432331 0.45764,0.476666 0.82484,1.029644 1.229895,1.550362 0,0 -2.213029,1.318813 -2.213029,1.318813 l 0,0 c -0.397724,-0.509765 -0.762398,-1.047514 -1.204858,-1.519878 -0.919409,-0.867645 -1.885622,-1.680258 -2.884577,-2.455417 -1.556135,-1.297735 -3.027058,-2.693064 -4.617682,-3.949068 -0.724419,-0.538878 -1.139202,-0.864093 -1.899982,-1.361238 -1.635715,-1.068886 -3.383283,-1.96764 -5.143262,-2.810046 -2.803077,-1.241363 -5.614992,-2.482043 -8.536158,-3.424101 -1.018562,-0.301762 -1.324611,-0.393943 -2.328158,-0.685523 -0.806199,-0.234241 -1.654811,-0.427275 -2.428453,-0.762217 -0.1266,-0.05481 -0.242124,-0.132298 -0.363185,-0.198447 0,0 2.252075,-1.380074 2.252075,-1.380074 z"
       inkscape:connector-curvature="0"
       transform="translate(0,966.36218)" />
    <path
       style="fill:#ffffff;fill-opacity:1;fill-rule:nonzero;stroke:none"
       id="path3106"
       d="m 39.91059,47.410188 c 2.443213,-0.04675 4.874786,-0.305367 7.303124,-0.556716 4.278864,-0.442891 1.327052,-0.125722 5.649133,-0.600028 2.446028,-0.237367 4.884407,-0.543498 7.322572,-0.849033 0,0 -1.803876,1.342612 -1.803876,1.342612 l 0,0 c -2.39784,0.253722 -4.794828,0.515695 -7.194449,0.752286 -4.454864,0.494052 -8.903435,1.064853 -13.37212,1.418937 0,0 2.095616,-1.508058 2.095616,-1.508058 z"
       inkscape:connector-curvature="0"
       transform="translate(0,966.36218)" />
    <path
       style="fill:#ffffff;fill-opacity:1;fill-rule:nonzero;stroke:none"
       id="path3108"
       d="m 42.626885,45.301617 c 4.493372,-0.864792 8.911158,-2.074918 13.3164,-3.301837 3.948836,-1.17532 2.020888,-0.569909 5.785866,-1.809785 0,0 -1.646591,1.277268 -1.646591,1.277268 l 0,0 c -3.72341,1.194529 -1.814051,0.607207 -5.729965,1.75582 -4.581548,1.285225 -9.173428,2.530857 -13.795952,3.661561 0,0 2.070242,-1.583027 2.070242,-1.583027 z"
       inkscape:connector-curvature="0"
       transform="translate(0,966.36218)" />
  </g>
</svg>
