<?xml version="1.0" encoding="UTF-8" standalone="no"?>
<!-- Created with Inkscape (http://www.inkscape.org/) -->

<svg
   xmlns:dc="http://purl.org/dc/elements/1.1/"
   xmlns:cc="http://creativecommons.org/ns#"
   xmlns:rdf="http://www.w3.org/1999/02/22-rdf-syntax-ns#"
   xmlns:svg="http://www.w3.org/2000/svg"
   xmlns="http://www.w3.org/2000/svg"
   xmlns:sodipodi="http://sodipodi.sourceforge.net/DTD/sodipodi-0.dtd"
   xmlns:inkscape="http://www.inkscape.org/namespaces/inkscape"
   width="86"
   height="86"
   id="svg3019"
   version="1.1"
   inkscape:version="0.48.5 r10040"
   sodipodi:docname="walk.svg"
   inkscape:export-filename="/home/m/projects/sailfish/harbour-stator/qml/images/walk.png"
   inkscape:export-xdpi="90"
   inkscape:export-ydpi="90">
  <defs
     id="defs3021" />
  <sodipodi:namedview
     id="base"
     pagecolor="#000000"
     bordercolor="#666666"
     borderopacity="1.0"
     inkscape:pageopacity="0"
     inkscape:pageshadow="2"
     inkscape:zoom="5.6"
     inkscape:cx="62.565888"
     inkscape:cy="42.38112"
     inkscape:document-units="px"
     inkscape:current-layer="layer1"
     showgrid="false"
     inkscape:showpageshadow="false"
     showborder="true"
     inkscape:window-width="1278"
     inkscape:window-height="780"
     inkscape:window-x="0"
     inkscape:window-y="0"
     inkscape:window-maximized="1" />
  <metadata
     id="metadata3024">
    <rdf:RDF>
      <cc:Work
         rdf:about="">
        <dc:format>image/svg+xml</dc:format>
        <dc:type
           rdf:resource="http://purl.org/dc/dcmitype/StillImage" />
        <dc:title></dc:title>
      </cc:Work>
    </rdf:RDF>
  </metadata>
  <g
     inkscape:label="Layer 1"
     inkscape:groupmode="layer"
     id="layer1"
     transform="translate(0,-966.36218)">
    <path
       style="fill:#ffffff;fill-opacity:1;fill-rule:nonzero;stroke:none"
       id="path3047"
       d="m 48.422269,11.421032 c -1.392282,-0.05235 -2.785975,-0.04443 -4.178968,-0.04002 -1.150362,-0.04472 -2.286555,0.171974 -3.332018,0.649218 -0.157545,0.0726 -0.317258,0.140663 -0.472635,0.217791 -0.172168,0.08546 -0.340314,0.178812 -0.509629,0.269796 -0.186026,0.09996 -0.740174,0.407037 -0.556375,0.303037 0.513599,-0.290611 1.014466,-0.60618 1.545818,-0.862897 0.218158,-0.105401 -0.404672,0.266729 -0.602218,0.407007 -0.206127,0.146373 -0.405659,0.301817 -0.608489,0.452725 -0.883485,0.671494 -1.669626,1.462334 -2.279827,2.391863 -0.372033,0.566724 -0.475397,0.810099 -0.786467,1.417882 -0.368775,0.898581 -0.821764,1.76347 -1.093963,2.699459 -0.15489,0.532608 -0.185034,0.76333 -0.284758,1.29772 -0.153904,1.117049 -0.264422,2.257313 -0.144218,3.381938 0.232697,1.080623 0.784149,1.564669 1.702264,2.106393 0.182631,0.07652 0.359978,0.167131 0.547892,0.229562 1.369959,0.45514 3.012713,0.45808 4.442944,0.514199 2.287333,0.05948 4.575921,0.05646 6.863802,0.0393 1.502325,-0.05402 3.021609,-0.0226 4.48239,-0.419234 0.139285,-0.05355 0.282209,-0.09847 0.417857,-0.160664 0.12643,-0.05797 0.487837,-0.267428 0.366712,-0.199065 -0.614446,0.346794 -1.212944,0.724304 -1.846713,1.03438 -0.147913,0.07237 0.263236,-0.199679 0.379333,-0.316454 0.298095,-0.299834 0.419034,-0.533932 0.647891,-0.89169 0.831632,-1.310078 1.042121,-2.820034 1.18945,-4.331813 0.118855,-1.638431 0.122272,-3.282522 0.110421,-4.924346 -0.02221,-1.191365 0.01505,-2.385375 -0.05445,-3.575365 -0.0128,-0.803786 -0.368714,-1.489778 -0.929577,-2.046522 -0.870368,-0.598826 -1.887576,-0.805271 -2.912762,-0.959621 -0.828025,-0.103075 -1.662699,-0.1212735 -2.495827,-0.1388431 0,0 2.072936,-1.4974406 2.072936,-1.4974406 l 0,0 c 0.839467,0.028203 1.680488,0.0599 2.514427,0.1665999 1.069133,0.1794495 2.153862,0.4116712 3.04088,1.0735782 0.576649,0.6138976 0.999729,1.3537366 1.006926,2.2175216 0.04923,1.203258 -0.01189,2.40915 0.0088,3.613137 -0.01361,1.653255 -0.0075,3.308447 -0.127235,4.958468 -0.1322,1.525784 -0.281758,3.063801 -1.084846,4.408938 -0.184619,0.322939 -0.360062,0.665923 -0.601598,0.95319 -0.106772,0.126987 -0.215366,0.259433 -0.355303,0.348561 -1.103441,0.702806 -2.148093,1.45741 -3.392736,1.829137 -1.453603,0.30983 -2.943852,0.268895 -4.422895,0.300974 -2.292537,-0.009 -4.585545,0.01356 -6.877641,-0.04173 -1.447388,-0.05666 -3.189737,-0.06171 -4.567863,-0.539721 -0.197454,-0.06849 -0.382418,-0.168732 -0.573628,-0.253098 -1.005629,-0.607917 -1.559963,-1.119234 -1.828734,-2.304918 -0.02224,-0.178983 -0.05763,-0.356818 -0.06671,-0.536948 -0.0091,-0.181143 0.007,-0.362684 0.01221,-0.543984 0.02266,-0.795832 0.05151,-1.594376 0.185439,-2.380853 0.130035,-0.680666 0.25912,-1.356094 0.494373,-2.010552 0.20888,-0.581091 0.328805,-0.76165 0.579981,-1.330711 0.107458,-0.243456 0.20684,-0.490397 0.310261,-0.735595 0.770484,-1.589237 1.583418,-2.816794 3.006771,-3.910206 1.714415,-1.322654 3.606805,-2.4101 5.570606,-3.317903 1.069335,-0.41469 2.191046,-0.6005128 3.340732,-0.5285156 1.429736,0.00457 2.860036,0.010514 4.289125,-0.040017 0,0 -2.142133,1.5563502 -2.142133,1.5563502 z"
       inkscape:connector-curvature="0"
       transform="translate(0,966.36218)" />
    <path
       style="fill:#ffffff;fill-opacity:1;fill-rule:nonzero;stroke:none"
       id="path3049"
       d="m 45.110142,27.84755 c -0.03267,0.991143 -0.04581,1.982925 -0.06219,2.97446 -0.0469,2.369319 -0.04199,4.739231 -0.04071,7.108903 0.03569,1.903185 -0.103216,3.803396 -0.205671,5.70257 -0.123844,1.224776 -0.135691,2.460349 -0.295723,3.680621 -0.189451,1.132929 -0.3906,2.263813 -0.527236,3.404561 -0.104388,0.736192 -0.06008,1.486859 -0.172166,2.221874 -0.05305,0.347877 -0.13428,0.623067 -0.222975,0.960088 -0.03771,0.13538 -0.07543,0.27076 -0.113145,0.40614 0,0 -2.340963,1.111451 -2.340963,1.111451 l 0,0 c 0.04027,-0.136174 0.08055,-0.272349 0.120824,-0.408524 0.08597,-0.284658 0.200646,-0.637971 0.254578,-0.929187 0.13592,-0.733922 0.07226,-1.490524 0.185232,-2.227781 0.120074,-1.145693 0.31208,-2.280518 0.527703,-3.411935 0.17571,-1.215135 0.161567,-2.452388 0.320238,-3.671438 0.132493,-1.911176 0.35378,-3.820312 0.311955,-5.739216 0.0013,-2.355841 0.0065,-4.711935 -0.04071,-7.067417 -0.0163,-0.970411 -0.02922,-1.94109 -0.06218,-2.91109 0,0 2.363141,-1.20408 2.363141,-1.20408 z"
       inkscape:connector-curvature="0"
       transform="translate(0,966.36218)" />
    <path
       style="fill:#ffffff;fill-opacity:1;fill-rule:nonzero;stroke:none"
       id="path3051"
       d="m 44.161335,54.19895 c 1.057513,1.072598 1.564856,2.544667 2.166743,3.894059 1.11059,2.634986 2.37329,5.196211 3.793753,7.676904 1.122568,1.882784 2.341766,3.717472 3.306185,5.690685 0.170579,0.349008 0.319755,0.708076 0.479633,1.062113 0.687631,1.54589 1.187796,3.163828 1.82515,4.729055 0.06671,0.157003 0.133418,0.314006 0.200127,0.47101 0,0 -2.245245,1.256 -2.245245,1.256 l 0,0 c -0.06315,-0.160761 -0.126306,-0.321522 -0.189459,-0.482284 -0.58536,-1.587844 -1.035228,-3.223661 -1.716797,-4.776159 -0.153148,-0.35204 -0.294481,-0.70946 -0.459444,-1.056121 -0.942319,-1.980228 -2.158629,-3.816085 -3.262115,-5.705783 -1.404552,-2.493897 -2.676981,-5.055589 -3.865216,-7.659522 -0.616853,-1.293228 -1.144638,-2.73926 -2.257215,-3.698814 0,0 2.2239,-1.401143 2.2239,-1.401143 z"
       inkscape:connector-curvature="0"
       transform="translate(0,966.36218)" />
    <path
       style="fill:#ffffff;fill-opacity:1;fill-rule:nonzero;stroke:none"
       id="path3053"
       d="m 42.955542,54.94598 c -0.0617,1.635878 -0.06746,3.273665 -0.07193,4.910571 -0.0033,2.141323 -0.0055,4.282654 -0.0014,6.423977 -4.92e-4,1.558548 0.03664,3.116644 0.03896,4.67516 0.01462,0.979063 0.01327,1.958181 0.017,2.937308 0.003,0.788243 0.0082,1.576487 0.0054,2.364736 0.0138,0.37737 5.91e-4,0.75056 -0.03381,1.126091 0,0 -2.33346,1.154675 -2.33346,1.154675 l 0,0 c 0.05372,-0.367816 0.06366,-0.72875 0.05163,-1.100885 -0.0028,-0.790077 0.0024,-1.58015 0.0054,-2.370221 0.0037,-0.984901 0.0024,-1.969793 0.017,-2.954631 0.0023,-1.571746 0.0394,-3.14308 0.03896,-4.714858 0.0041,-2.140841 0.0019,-4.281692 -0.0014,-6.422533 -0.0044,-1.612463 -0.0094,-3.225888 -0.07193,-4.837276 0,0 2.339656,-1.192114 2.339656,-1.192114 z"
       inkscape:connector-curvature="0"
       transform="translate(0,966.36218)" />
    <path
       style="fill:#ffffff;fill-opacity:1;fill-rule:nonzero;stroke:none"
       id="path3129"
       d="m 45.119914,38.770587 c 0.0179,0.08973 0.02967,0.180912 0.05371,0.269197 0.09301,0.341507 0.149914,0.416986 0.276603,0.759746 0.194865,0.52721 0.367981,1.063815 0.55425,1.594136 0.444322,1.404769 0.923424,2.801567 1.326327,4.219152 0.07796,0.249766 0.150644,0.501242 0.233887,0.749298 0.148147,0.441466 0.319982,0.874743 0.46827,1.316161 0.173633,0.516862 0.340484,1.009731 0.569287,1.504977 0,0 -2.245174,1.266999 -2.245174,1.266999 l 0,0 c -0.519605,-1.169201 -0.795874,-2.432502 -1.238722,-3.631725 -0.208744,-0.732246 -0.454519,-1.44702 -0.686841,-2.171786 -0.146304,-0.456419 -0.270873,-0.919732 -0.422569,-1.374387 -0.07214,-0.216221 -0.155274,-0.428617 -0.232911,-0.642926 -0.333711,-0.87617 -0.671892,-1.751191 -0.996087,-2.629682 0,0 2.339965,-1.22916 2.339965,-1.22916 z"
       inkscape:connector-curvature="0"
       transform="translate(0,966.36218)" />
    <path
       style="fill:#ffffff;fill-opacity:1;fill-rule:nonzero;stroke:none"
       id="path3133"
       d="m 47.045212,37.521843 c 1.521559,2.000779 3.195162,3.878997 4.825508,5.790558 1.728497,2.052111 3.628965,3.948587 5.420986,5.942982 0,0 -2.075014,1.251048 -2.075014,1.251048 l 0,0 c -1.711479,-2.056399 -3.575307,-3.977587 -5.328478,-5.9981 -1.676144,-1.891857 -3.365481,-3.77272 -5.07765,-5.631678 0,0 2.234648,-1.35481 2.234648,-1.35481 z"
       inkscape:connector-curvature="0"
       transform="translate(0,966.36218)" />
  </g>
</svg>
